<svg width="55" height="77" viewBox="0 0 55 77" fill="none" xmlns="http://www.w3.org/2000/svg">
<mask id="mask0_168_277" style="mask-type:alpha" maskUnits="userSpaceOnUse" x="0" y="0" width="55" height="77">
<rect x="0.345947" y="0.214844" width="53.7205" height="76.1241" fill="#D9D9D9"/>
</mask>
<g mask="url(#mask0_168_277)">
<path d="M39.0072 94.6069C39.3854 94.4021 39.7902 94.2383 40.1467 93.995C40.4839 93.7637 40.8019 93.4939 41.079 93.1904C41.2645 92.9881 41.2476 92.4629 41.5198 92.4966C41.8378 92.5376 41.7848 93.1037 42.0281 93.3133C42.1221 93.3928 42.2762 93.2049 42.3919 93.2482C42.587 93.3229 42.6713 93.6361 42.8809 93.6385C43.1266 93.6433 43.3338 93.4265 43.5217 93.2675C43.6253 93.1808 43.6301 93.0073 43.7361 92.923C44.0372 92.6821 44.4082 92.54 44.7189 92.3087C44.8225 92.2316 44.8779 91.9185 44.9647 92.0124C45.273 92.3497 45.314 92.8628 45.5717 93.2386C45.7452 93.4939 45.9499 93.771 46.239 93.8842C46.545 94.0046 46.8991 93.9444 47.2243 93.889C47.7205 93.8047 48.2072 93.6553 48.6769 93.4698C49.1683 93.2771 49.5899 92.9134 50.0958 92.7568C50.1825 92.7303 50.1729 92.9254 50.2403 92.9881C50.4162 93.147 50.6017 93.2988 50.8113 93.4024C50.8884 93.4409 50.9968 93.4409 51.0714 93.3976C51.2015 93.3253 51.3268 93.2193 51.387 93.082C51.4304 92.9832 51.3918 92.8604 51.3509 92.7616C51.2545 92.5352 51.0233 92.3665 50.9799 92.1256C50.9486 91.9546 51.1269 91.8077 51.1509 91.6366C51.1847 91.3933 51.2232 91.1355 51.1509 90.9019C51.1076 90.7573 50.963 90.6562 50.833 90.5839C50.7583 90.5429 50.6402 90.5261 50.5776 90.5839C50.1898 90.9549 49.985 91.5113 49.5442 91.8197C48.8431 92.3087 48.0217 92.6123 47.2267 92.923C47.0701 92.9832 46.8557 93.0242 46.7256 92.9182C46.3836 92.6436 46.1065 92.275 45.9258 91.8775C45.8632 91.7378 46.0993 91.586 46.0583 91.4391C46.0174 91.2849 45.709 91.2608 45.7139 91.0994C45.7235 90.9091 46.027 90.8513 46.0897 90.673C46.1619 90.4731 46.2005 90.2201 46.1017 90.0322C45.9909 89.8226 45.7355 89.7311 45.5308 89.6131C45.485 89.5866 45.4103 89.5769 45.3742 89.6131C45.1309 89.8588 44.8779 90.1117 44.731 90.4225C44.69 90.5068 44.8563 90.5718 44.8755 90.6634C44.8828 90.7019 44.8322 90.726 44.8033 90.7525C44.1817 91.3066 43.671 92.0269 42.9291 92.4003C42.7363 92.4966 42.6496 92.0702 42.5484 91.8799C42.5075 91.8052 42.5195 91.7113 42.5195 91.6246C42.5195 91.4608 42.5123 91.2969 42.5509 91.138C42.5918 90.9693 42.7291 90.832 42.7532 90.661C42.7869 90.4201 42.799 90.1623 42.7219 89.9335C42.6737 89.7913 42.534 89.6877 42.4039 89.6155C42.3292 89.5745 42.2232 89.5721 42.151 89.6155C41.9896 89.7094 41.8257 89.8323 41.7414 89.9985C41.4861 90.4875 41.4162 91.0633 41.1464 91.5451C41.0019 91.8052 40.708 91.9498 40.5249 92.181C40.3876 92.3545 40.3442 92.5954 40.1852 92.7472C39.9178 93.0073 39.6071 93.2265 39.2746 93.3928C39.1542 93.453 38.9855 93.4795 38.8747 93.4048C38.682 93.2747 38.4989 93.07 38.458 92.8411C38.3448 92.2051 38.3857 91.5475 38.4291 90.9019C38.4411 90.7308 38.6097 90.5911 38.617 90.4201C38.6218 90.3237 38.4459 90.2659 38.4652 90.1719C38.5351 89.8371 38.7952 89.5601 38.8651 89.2252C38.8844 89.1289 38.6844 89.0686 38.7133 88.9771C38.776 88.782 39.0337 88.6904 39.0988 88.4953C39.1277 88.4062 38.9542 88.3483 38.9542 88.2544C38.9542 88.1604 39.1638 88.0809 39.0988 88.0111C38.9904 87.8954 38.7711 87.84 38.6338 87.9171C38.4291 88.0279 38.2966 88.264 38.2267 88.4881C38.1978 88.5796 38.4122 88.6471 38.3761 88.7362C38.2918 88.9361 38.0171 89.0084 37.928 89.2035C37.716 89.6588 37.545 90.1479 37.492 90.6465C37.3884 91.6125 37.3402 92.5978 37.4655 93.5638C37.4992 93.8192 37.7329 94.0287 37.9473 94.1709M13.484 94.631C13.6044 94.5924 13.7417 94.5876 13.8477 94.5178C14.0188 94.4021 14.12 94.1998 14.291 94.0842C14.621 93.8601 15.0089 93.73 15.3389 93.506C15.4714 93.4144 15.5244 93.0627 15.6641 93.1446C16.011 93.347 16.0375 93.9011 16.3772 94.1155C16.5265 94.2094 16.7771 94.0625 16.8662 93.9083C17.0083 93.665 17.0035 93.3518 16.9818 93.07C16.9626 92.817 16.7795 92.5978 16.7482 92.3449C16.7 91.9474 16.7 91.5403 16.7482 91.1428C16.7674 90.9717 16.9144 90.8344 16.9505 90.6658C16.9842 90.5044 17.0107 90.3237 16.9505 90.1719C16.8951 90.0322 16.7795 89.8853 16.6325 89.854C16.4663 89.8202 16.3145 90.0057 16.1435 90.0081C16.0496 90.0081 15.9941 89.8853 15.9026 89.8636C15.8689 89.8564 15.8231 89.9021 15.8303 89.9335C15.8544 90.0274 16.0038 90.0876 15.9797 90.1816C15.9122 90.4442 15.6497 90.6272 15.5822 90.8898C15.5581 90.9838 15.7677 91.0488 15.7316 91.138C15.5991 91.4704 15.3654 91.7619 15.1269 92.0269C14.886 92.2943 14.556 92.4677 14.303 92.7207C14.1489 92.8748 14.1079 93.1567 13.908 93.2458C13.4021 93.4747 12.8432 93.6313 12.2891 93.6313C11.9639 93.6313 11.6772 93.4024 11.3906 93.2458C11.2918 93.1928 11.1882 93.1157 11.1521 93.0097C10.9738 92.4822 10.8148 91.9377 10.7594 91.3837C10.745 91.2415 10.9184 91.1404 10.9521 91.0006C11.2268 89.8491 11.4917 88.6928 11.6796 87.5245C11.6989 87.4016 11.6315 87.2739 11.5664 87.1679C11.511 87.0788 11.4315 86.9873 11.3303 86.9584C11.1713 86.9126 10.9979 86.9222 10.8365 86.9584C10.7642 86.9752 10.6968 87.0354 10.6655 87.1029C10.5065 87.4691 10.3427 87.8425 10.28 88.2375C10.2632 88.3387 10.4535 88.3965 10.4414 88.4977C10.3692 89.1433 10.109 89.76 10.0367 90.4056C10.0271 90.5044 10.1692 90.5574 10.2005 90.6489C10.227 90.7284 10.2222 90.82 10.2005 90.9019C10.1548 91.0681 10.0126 91.2054 10.0006 91.3789C9.95481 92.022 9.86808 92.6893 10.0319 93.3109C10.1258 93.665 10.4511 93.9203 10.7305 94.1588C10.9666 94.3588 11.2557 94.5009 11.5496 94.5973C11.7086 94.6503 11.8892 94.6334 12.0506 94.5949C12.1422 94.5732 12.1903 94.4575 12.2795 94.4262C12.359 94.3997 12.4529 94.3997 12.5324 94.4262C12.6216 94.4575 12.6673 94.5732 12.7613 94.5949M28.4149 94.1082C28.5402 94.0793 28.6967 94.1131 28.7883 94.0239C28.9882 93.8288 29.1472 93.5807 29.2267 93.3133C29.2532 93.2217 29.0677 93.1687 29.0653 93.0724C29.0653 92.9013 29.2195 92.7544 29.2195 92.5833C29.2195 92.4846 29.0509 92.4292 29.0677 92.3328C29.1472 91.8366 29.3038 91.3499 29.4917 90.885C29.5351 90.779 29.6411 90.6995 29.7447 90.6513C29.8169 90.6176 29.9133 90.6947 29.9856 90.6562C30.1277 90.5791 30.1951 90.3888 30.3469 90.3309C30.5011 90.2731 30.6866 90.2755 30.8408 90.3309C30.9251 90.3623 30.9082 90.502 30.9732 90.567C31.1804 90.7718 31.4671 90.897 31.6429 91.1307C31.7249 91.2391 31.6237 91.4246 31.7056 91.533C31.8188 91.6872 32.0067 91.7787 32.1826 91.8582C32.8402 92.1594 33.5099 92.4388 34.1965 92.6701C34.3531 92.7231 34.5265 92.7158 34.6903 92.699C34.8156 92.6869 34.9409 92.6484 35.0468 92.5833C35.136 92.5279 35.2444 92.4533 35.254 92.3473C35.2661 92.1979 35.2347 91.9956 35.1047 91.9209C34.4687 91.5523 33.734 91.3885 33.0691 91.0777C32.9486 91.0223 32.8908 90.8609 32.7631 90.8248C32.6933 90.8055 32.6306 90.9982 32.5825 90.9452C32.3849 90.7332 32.3343 90.4177 32.1657 90.1816C32.0452 90.013 31.8959 89.8588 31.7224 89.7431C31.3659 89.5047 31.0214 89.1289 30.595 89.1289C30.0916 89.1289 29.6628 89.5191 29.2171 89.7528C29.0966 89.8154 29.0364 90.0274 28.9015 90.0129C28.4848 89.9744 28.1258 89.6829 27.7139 89.6106C27.6175 89.5938 27.5621 89.7624 27.4633 89.7624C27.367 89.7624 27.3092 89.5866 27.2152 89.6131C26.9647 89.6805 26.7117 89.8154 26.5455 90.0129C26.2733 90.3358 26.0878 90.7308 25.9409 91.1283C25.9144 91.1982 26.1264 91.2704 26.0661 91.3114C25.7674 91.5089 25.4157 91.6149 25.0688 91.7065C24.9074 91.7474 24.7219 91.7643 24.5653 91.7017C24.4256 91.6462 24.3003 91.5234 24.2449 91.3813C24.1847 91.2271 24.2088 91.0488 24.2449 90.8874C24.2666 90.7911 24.428 90.7405 24.4087 90.6441C24.3485 90.3261 24.2088 90.0202 24.0281 89.7552C23.8571 89.5047 23.6451 89.2541 23.3729 89.1216C23.1537 89.0156 22.8863 89.0855 22.643 89.0855C22.4791 89.0855 22.3009 89.0518 22.1539 89.1216C21.8311 89.2758 21.5155 89.4685 21.2771 89.7335C20.6604 90.4225 20.4917 92.2437 19.6124 91.957C18.644 91.6414 19.1042 89.9816 18.9476 88.9747C18.9307 88.8759 19.1427 88.8109 19.1066 88.7169C18.7332 87.7461 18.2923 86.797 17.7648 85.8984C17.6877 85.7659 17.4949 85.7346 17.3432 85.7201C17.2324 85.7105 17.0782 85.7322 17.03 85.8309C16.9891 85.9153 17.1697 85.9779 17.1745 86.0718C17.1794 86.1465 17.0204 86.1947 17.0517 86.2622C17.124 86.4236 17.3841 86.4645 17.4323 86.6356C17.4709 86.7777 17.23 86.9005 17.2661 87.0427C17.3962 87.5486 17.7599 87.9701 17.9045 88.4736C17.931 88.57 17.7407 88.6302 17.7479 88.729C17.7575 88.8807 17.9093 88.9891 17.9478 89.1361C18.1237 89.7889 18.3092 90.4466 18.3935 91.1163C18.4128 91.2704 18.2152 91.4126 18.2538 91.5643C18.2947 91.7209 18.538 91.7547 18.5959 91.904C18.6248 91.9763 18.4754 92.0148 18.461 92.0895C18.4272 92.2533 18.4007 92.434 18.4585 92.5906C18.6368 93.0892 18.8247 93.5975 19.1475 94.0167C19.2222 94.1131 19.3884 93.9348 19.5089 93.9492C19.6028 93.9613 19.6606 94.1227 19.7498 94.0938C19.9473 94.0263 20.0316 93.6987 20.2412 93.7011C20.6579 93.7059 21.0121 94.0336 21.4216 94.1106C21.7468 94.1709 22.0889 94.1757 22.4141 94.1106C22.7249 94.0456 23.0453 93.9348 23.2886 93.7276C23.6981 93.3807 23.845 92.7399 24.3196 92.4942C24.6111 92.3424 24.958 92.699 25.288 92.6942C25.5458 92.6893 25.7867 92.3617 26.0228 92.4629C26.4371 92.6412 26.6756 93.0868 26.9743 93.4241C27.0418 93.4988 27.0394 93.624 27.1116 93.6939C27.2803 93.8577 27.4537 94.0528 27.6826 94.1082C27.8512 94.1492 28.0054 93.9517 28.1764 93.9492M61.0206 93.5494C61.1121 93.3036 61.2639 93.0748 61.2952 92.8146C61.3458 92.4147 61.3169 92.0052 61.2639 91.6053C61.2518 91.5113 61.1073 91.4656 61.1073 91.3716C61.1073 91.2777 61.2326 91.2271 61.2615 91.138C61.288 91.056 61.3048 90.9549 61.2639 90.8778C61.1603 90.6682 61.0423 90.4442 60.8495 90.3141C60.7387 90.2394 60.5773 90.29 60.4496 90.3237C60.3581 90.3478 60.3099 90.4779 60.216 90.4803C60.122 90.4827 60.069 90.3358 59.9751 90.3358C59.8811 90.3358 59.8281 90.4803 59.7342 90.4803C59.6378 90.4803 59.58 90.3117 59.4861 90.3285C59.1705 90.3863 58.8814 90.5453 58.5971 90.6923C58.3201 90.8368 58.0864 91.0584 57.807 91.203C57.7757 91.2174 57.7323 91.1717 57.7299 91.1355C57.7154 91.032 57.7251 90.9211 57.7564 90.8224C57.9323 90.2972 58.1274 89.7769 58.3514 89.2686C58.5755 88.7579 58.8934 88.2881 59.1006 87.7702C59.1512 87.6449 59.1873 87.4763 59.1102 87.3631C58.9778 87.1703 58.773 86.9584 58.5393 86.9559C58.3442 86.9535 58.2262 87.1968 58.1033 87.3486C57.925 87.5654 57.7492 87.7943 57.6384 88.0544C57.448 88.4977 57.4023 88.9964 57.212 89.4396C57.0409 89.8395 56.8073 90.2153 56.5567 90.5718C56.417 90.767 56.246 90.9428 56.0484 91.0777C55.6991 91.321 55.3305 91.5451 54.9331 91.6968C54.7765 91.7571 54.5862 91.7571 54.432 91.6944C54.2417 91.6149 54.1477 91.3764 53.9574 91.2969C53.8876 91.268 53.8297 91.4632 53.7671 91.4198C53.5913 91.2921 53.3528 91.1018 53.3937 90.8874C53.4612 90.5212 53.7382 90.1984 54.0345 89.9744C54.5284 89.6034 55.2053 89.5312 55.6943 89.1529C55.7907 89.0783 55.61 88.9048 55.5112 88.8301C55.2655 88.6422 54.9812 88.5073 54.6946 88.3917C54.6103 88.358 54.5019 88.3459 54.4248 88.3917C54.0273 88.6398 53.6635 88.9434 53.3094 89.2517C53.0781 89.4541 52.7987 89.6371 52.671 89.9166C52.6084 90.0563 52.8469 90.2081 52.8035 90.355C52.7433 90.567 52.4711 90.6706 52.3964 90.8778C52.3386 91.0344 52.3603 91.2247 52.4277 91.3764C52.5289 91.6077 52.6903 91.8197 52.8854 91.9835C53.2082 92.2533 53.5527 92.5255 53.9526 92.658C54.114 92.7134 54.2706 92.5039 54.4416 92.5039C54.5356 92.5039 54.5862 92.6291 54.6753 92.658C54.7596 92.6845 54.856 92.6966 54.9379 92.6628C55.5859 92.3954 56.1616 91.945 56.8386 91.7667C57.0843 91.7017 57.3228 91.9426 57.5757 91.9691C57.8985 92.0028 58.2406 92.0389 58.5514 91.9401C58.9802 91.8028 59.3174 91.4656 59.7294 91.2849C59.8426 91.2367 60.0305 91.1596 60.0979 91.2632C60.3412 91.639 60.5243 92.0847 60.534 92.5328C60.5388 92.7327 60.1437 92.7785 60.1317 92.9784C60.1196 93.1615 60.3894 93.2482 60.4737 93.412C60.5051 93.4723 60.3967 93.6023 60.4617 93.6192M22.1708 93.1687C21.7468 93.0338 21.1518 93.1278 20.8964 92.764C20.7158 92.5038 21.0843 92.1449 21.2819 91.8992C21.4264 91.7161 21.7035 91.6848 21.8769 91.5306C22.019 91.4078 22.0552 91.1789 22.2142 91.0801C22.2768 91.0416 22.3298 91.2054 22.4045 91.203C22.4984 91.1982 22.5514 91.0609 22.6454 91.0609C22.72 91.0609 22.7899 91.1331 22.826 91.1982C22.9826 91.4824 23.2211 91.7691 23.2115 92.0943C23.2018 92.3738 22.9441 92.5882 22.773 92.8122C22.6743 92.9423 22.5514 93.0603 22.4117 93.1446M28.0295 93.0579C27.9403 93.0338 27.8223 93.0531 27.7597 92.9856C27.591 92.8026 27.3405 92.5906 27.3766 92.3449C27.4176 92.0823 27.685 91.851 27.9403 91.7787C28.0849 91.7378 28.215 91.9546 28.2607 92.0967C28.2896 92.1859 28.1162 92.2437 28.1162 92.3376C28.1162 92.4316 28.2728 92.4846 28.2607 92.5785M22.8116 90.6537C22.8646 90.6513 22.9561 90.5935 22.9706 90.6441C22.9971 90.7501 22.9995 90.9597 22.8911 90.9645M23.0549 90.4201C23.079 90.3117 23.0188 90.0997 23.1296 90.0949C23.2404 90.0925 23.2356 90.3068 23.2091 90.4153M50.9149 86.5657C50.9679 86.4573 50.9606 86.2911 51.0714 86.2429C51.1582 86.2043 51.2232 86.3657 51.3172 86.3874C51.3509 86.3947 51.387 86.3537 51.3943 86.3224C51.4159 86.2405 51.4232 86.1489 51.3967 86.0694C51.3485 85.9273 51.269 85.7924 51.175 85.6768C51.0618 85.537 50.8595 85.4672 50.7824 85.3034C50.7486 85.2359 50.8932 85.1877 50.9052 85.1131C50.9125 85.0649 50.8643 85.0215 50.8281 84.9902C50.6547 84.8529 50.3391 84.8312 50.2789 84.6192C50.2355 84.4675 50.6595 84.465 50.633 84.3085C50.5848 84.017 50.4066 83.5761 50.1127 83.5954C49.7923 83.6147 49.6983 84.0941 49.5442 84.3759C49.5008 84.4554 49.5104 84.5614 49.5442 84.6457C49.72 85.1082 49.9175 85.5684 50.1633 85.9996C50.3006 86.2405 50.462 86.479 50.6836 86.6476M12.9299 86.0983C13.1467 85.8526 13.4478 85.6623 13.5803 85.3612C13.6574 85.1853 13.6647 84.8914 13.5032 84.7903C13.2599 84.6385 12.8865 84.6216 12.6432 84.771C12.3807 84.9324 12.1494 85.2865 12.2144 85.5876M15.7364 85.3588C15.6906 85.2962 15.6665 85.2118 15.5991 85.1733C15.3172 85.0167 15.033 84.7614 14.7126 84.7927C14.4644 84.8144 14.2356 85.0649 14.1705 85.3058C14.1272 85.4672 14.4042 85.5563 14.4668 85.7105C14.4861 85.7563 14.356 85.802 14.3898 85.8382C14.4668 85.9177 14.5921 85.9418 14.7029 85.9538C14.8643 85.9707 15.0498 86.0044 15.1895 85.9225M28.9136 76.5274C29.0461 76.4528 29.1978 76.407 29.3086 76.3034C29.4724 76.1492 29.5519 75.918 29.7182 75.7662C30.0651 75.4506 30.4336 75.1543 30.8359 74.9134C30.9516 74.8435 31.1443 74.9495 31.2382 74.8508C31.508 74.5737 31.6213 74.1763 31.8573 73.8679C32.0163 73.6583 32.1994 73.4632 32.4138 73.309C32.4765 73.2656 32.5752 73.2729 32.6427 73.309C32.7848 73.3861 32.845 73.6005 33.004 73.6318C33.1558 73.6631 33.3413 73.5909 33.4401 73.4728C33.7412 73.1187 33.9315 72.6851 34.1531 72.278C34.4109 71.8058 34.659 71.3264 34.8758 70.8326C35.0974 70.3291 35.2275 69.7871 35.4612 69.2884C35.5961 69.0017 35.8707 68.7897 35.9719 68.491C36.0032 68.3995 35.7985 68.3369 35.8201 68.2429C35.955 67.6888 36.2032 67.1661 36.4248 66.6385C36.4995 66.4603 36.5766 66.2748 36.7042 66.1278C36.8415 65.9712 37.0897 65.9279 37.2005 65.752C37.2703 65.6388 37.2246 65.4798 37.1884 65.3521C37.1619 65.2582 36.9981 65.2028 37.0246 65.1088C37.28 64.2006 37.7136 63.3527 38.0003 62.4541C38.3279 61.4303 38.6483 60.3992 38.8699 59.3465C38.8916 59.2477 38.6892 59.1875 38.7085 59.0863C39.0193 57.4747 39.5131 55.9017 39.8407 54.2924C39.8913 54.0491 39.8769 53.7938 39.8359 53.5481C39.8215 53.4541 39.6793 53.4083 39.6793 53.3144C39.6793 53.2204 39.8046 53.1699 39.8335 53.0807C39.86 52.9988 39.8648 52.9025 39.8383 52.8181C39.7275 52.4905 39.4216 52.2135 39.4264 51.869C39.4312 51.4426 39.8046 51.0861 39.8648 50.6645C39.8889 50.4935 39.6914 50.3586 39.6673 50.1899C39.6119 49.79 39.6312 49.3829 39.6312 48.9782C39.6312 48.8144 39.6215 48.6458 39.6673 48.4892C39.6938 48.3976 39.8335 48.3567 39.8335 48.2603C39.8359 48.0893 39.6817 47.9423 39.6793 47.7713C39.6793 47.6774 39.8263 47.6244 39.8239 47.5304C39.8239 47.4316 39.6601 47.3762 39.6697 47.2799C39.7468 46.6367 40.0142 46.0224 40.0792 45.3768C40.0961 45.2009 39.8745 45.0443 39.9106 44.8709C40.0961 44.0061 40.4237 43.1774 40.7248 42.3463C40.8019 42.1295 40.9826 41.5152 41.0404 41.7368C41.2042 42.3631 41.1079 43.0304 41.0717 43.676C41.0621 43.8302 40.867 43.9579 40.9031 44.1096C40.9417 44.2686 41.262 44.2831 41.2572 44.4445C41.25 44.7023 40.9368 44.8661 40.8766 45.1166C40.8525 45.2154 41.0476 45.2732 41.0356 45.3744C40.9633 45.9405 40.7056 46.4753 40.6333 47.0414C40.6213 47.1377 40.7851 47.1932 40.7875 47.2919C40.7875 47.3859 40.6405 47.4389 40.6429 47.5328C40.6429 47.6316 40.8092 47.687 40.7971 47.7834C40.7128 48.4338 40.4285 49.0505 40.3611 49.7009C40.3442 49.8744 40.5827 50.0165 40.5514 50.1899C40.5056 50.4573 40.2214 50.6356 40.1539 50.8982C40.1298 50.9921 40.3057 51.0499 40.3033 51.1463C40.3033 51.2403 40.1491 51.286 40.1491 51.38C40.1491 51.551 40.3009 51.698 40.3033 51.869C40.3033 51.963 40.1322 52.0208 40.1587 52.1099C40.2021 52.252 40.3418 52.4905 40.4719 52.4231C40.7562 52.2713 40.9441 51.9485 41.0404 51.6426C41.0934 51.4739 40.867 51.3149 40.8766 51.1391C40.8862 50.9295 41.0476 50.7512 41.091 50.5465C41.3464 49.3131 41.6186 48.0773 41.7679 46.827C41.7896 46.6511 41.5849 46.497 41.5993 46.3211C41.6668 45.3575 41.9317 44.4132 42.004 43.4496C42.0112 43.3508 41.8498 43.3026 41.8378 43.2039C41.7896 42.8329 41.7342 42.4426 41.8257 42.0789C41.898 41.7994 42.0739 41.5272 42.31 41.3586C42.8279 40.9828 43.4735 40.8166 44.0252 40.4889C44.2709 40.342 44.5792 40.2071 44.6876 39.9421C45.0466 39.0628 45.314 38.1257 45.3814 37.1766C45.4127 36.7574 45.0273 36.3985 44.9743 35.9793C44.9526 35.8034 45.1502 35.6637 45.1718 35.4879C45.22 35.088 45.2128 34.6833 45.1742 34.2834C45.1429 33.9509 44.943 33.6378 44.9671 33.3053C45.0128 32.626 45.2152 31.9635 45.379 31.3035C45.5115 30.7662 45.762 30.2604 45.8584 29.7159C45.8753 29.6196 45.7066 29.5642 45.7066 29.4654C45.7066 29.3714 45.8464 29.3184 45.8512 29.2245C45.8536 29.1498 45.697 29.1016 45.7283 29.0342C45.803 28.8728 46.0294 28.8174 46.1138 28.6608C46.1667 28.5644 46.1499 28.4319 46.1113 28.3308C46.068 28.2224 45.8415 28.1766 45.8825 28.0682C45.9548 27.8755 46.3161 27.8803 46.3619 27.6803C46.4944 27.0853 46.4245 26.4614 46.3787 25.8543C46.3667 25.6833 46.1981 25.5436 46.1908 25.3725C46.186 25.2762 46.3667 25.2183 46.3402 25.1244C46.2703 24.8642 46.0391 24.6715 45.9355 24.4234C45.8873 24.3126 46.0029 24.1126 45.8945 24.062C45.3356 23.8091 44.7141 23.72 44.1119 23.5971C43.9457 23.5634 43.7674 23.5634 43.6012 23.5971C43.117 23.6959 42.6352 23.8235 42.1702 23.9898C41.7848 24.1247 41.462 24.5294 41.0549 24.4981C40.7875 24.4788 40.6526 24.115 40.549 23.8669C40.2744 23.2092 40.1973 22.4841 39.9371 21.8217C39.8263 21.535 39.5396 21.3375 39.4433 21.046C39.4143 20.9544 39.5733 20.8966 39.6047 20.8051C39.6312 20.7256 39.6408 20.6268 39.6047 20.5521C39.5468 20.4317 39.4047 20.369 39.3421 20.251C39.1951 19.986 39.1349 19.6777 38.9807 19.4199C38.8916 19.2705 38.7085 19.1959 38.6194 19.0465C38.4652 18.7887 38.417 18.4732 38.258 18.2154C38.1279 18.0058 37.8654 17.8926 37.7642 17.6686C37.7256 17.5818 37.9521 17.5096 37.9087 17.4277C37.6726 16.9844 37.3282 16.6086 36.9981 16.2304C36.7163 15.9028 36.4079 15.5992 36.0803 15.3174C35.9141 15.1753 35.6419 15.1488 35.5262 14.9633C35.4684 14.8693 35.7358 14.7585 35.6732 14.667C35.3648 14.2189 34.8541 13.9395 34.5241 13.5058C34.3266 13.2457 34.3049 12.8771 34.1098 12.6169C33.8134 12.2243 33.3895 11.9448 33.0715 11.5714C32.9173 11.3932 32.8523 11.1474 32.6981 10.9692C32.5487 10.7981 32.3656 10.6536 32.1681 10.538C30.7853 9.72613 29.405 8.90466 27.9668 8.19642C27.8801 8.15306 27.803 8.39155 27.7187 8.34578C27.6199 8.29519 27.6247 8.1362 27.6368 8.02538C27.6537 7.88325 27.8512 7.76762 27.8054 7.63272C27.7548 7.48336 27.5573 7.43036 27.4103 7.36532C25.4398 6.49086 23.4765 5.59471 21.465 4.82143C21.371 4.78529 21.3011 5.01655 21.2096 4.97801C20.7519 4.78288 20.2219 4.59498 19.9521 4.17823C19.8389 4.00478 20.2918 3.93492 20.4797 3.84819C20.5592 3.81206 20.6507 3.81929 20.735 3.81929C20.8964 3.81929 21.0651 3.80965 21.2217 3.8506C21.3132 3.87469 21.3614 4.01441 21.4553 4.00719C21.6023 3.99514 21.7372 3.89637 21.848 3.7976C22.0672 3.60007 22.1322 3.13995 22.4286 3.13272C23.1488 3.11586 23.833 3.4748 24.5075 3.73256C25.4157 4.08187 26.3022 4.4938 27.1622 4.95151C27.6729 5.22373 28.1403 5.57303 28.6076 5.91511C28.7522 6.01869 28.8413 6.18732 28.9906 6.28609C29.2315 6.44508 29.5182 6.52458 29.7591 6.68357C30.1951 6.96543 30.6143 7.27619 31.0166 7.60381C31.2455 7.7893 31.4117 8.04706 31.6478 8.22292C32.079 8.54091 32.4861 8.97212 33.0137 9.0757C33.2016 9.11184 33.1365 8.70713 33.1365 8.51682C33.1365 8.38914 33.11 8.23737 33.0137 8.15306C32.5174 7.72426 31.9224 7.42554 31.4069 7.01842C30.7757 6.51976 30.2289 5.91992 29.5808 5.44535C29.3159 5.25263 28.969 5.20205 28.6919 5.03101C28.5064 4.91538 28.4004 4.68411 28.2029 4.59016C28.1355 4.55885 28.0776 4.75156 28.0126 4.71302C27.8416 4.60221 27.7934 4.3589 27.6392 4.22641C27.4874 4.09632 27.2899 4.02887 27.1092 3.93733C26.4925 3.63138 25.8806 3.3134 25.2495 3.04118C24.9002 2.88942 24.5147 2.82678 24.1654 2.6702C24.098 2.63888 23.9655 2.52325 24.0329 2.49193C24.2787 2.38353 24.5605 2.36185 24.8279 2.3763C25.0014 2.38594 25.1387 2.55697 25.3097 2.5642C25.4037 2.56902 25.4518 2.41966 25.5434 2.40762C25.8686 2.36426 26.2034 2.35703 26.5287 2.40521C26.8756 2.4558 27.1959 2.62924 27.538 2.70392C28.9401 3.00505 30.3879 3.11586 31.761 3.5278C32.3753 3.71329 32.886 4.14691 33.4352 4.47935C34.3266 5.02137 35.2227 5.55617 36.0755 6.15841C36.5886 6.51976 37.0559 6.93893 37.5209 7.3605C37.9906 7.7893 38.3978 8.28555 38.8747 8.70472C39.0434 8.85167 39.2819 8.90225 39.4481 9.0492C40.007 9.54786 40.4839 10.1332 41.0428 10.6319C41.2331 10.8005 41.4909 10.8776 41.6836 11.039C41.992 11.2968 42.2353 11.622 42.5364 11.887C42.6111 11.9544 42.7339 11.9544 42.8062 12.0243C43.3217 12.5446 43.8324 13.0722 44.2877 13.648C44.6057 14.0503 44.7984 14.5393 45.114 14.944C45.3646 15.2668 45.7548 15.474 45.974 15.8185C46.3281 16.3725 46.492 17.0278 46.8075 17.6035C47.1183 18.1696 47.5447 18.6683 47.8458 19.2392C48.0674 19.6608 48.2361 20.1113 48.3662 20.569C48.8552 22.3011 49.1973 24.0717 49.7031 25.7989C49.8091 26.1603 50.1006 26.4517 50.1994 26.8155C50.2259 26.9119 50.0187 26.9745 50.0428 27.0709C50.1079 27.3334 50.3704 27.5165 50.4403 27.7791C50.4644 27.8731 50.2885 27.9309 50.2909 28.0272C50.2909 28.1212 50.4307 28.1694 50.4475 28.2609C50.5053 28.5524 50.409 28.8704 50.5077 29.1474C50.568 29.316 50.8209 29.357 50.8932 29.5208C50.9245 29.5907 50.7703 29.6316 50.7583 29.7063C50.7149 29.9448 50.6932 30.1929 50.727 30.4338C50.7511 30.6097 50.939 30.7494 50.9245 30.9277C50.8595 31.8792 50.7221 32.8283 50.5005 33.7558C50.1825 35.0759 49.655 36.3358 49.3105 37.6487C49.2551 37.8607 49.2286 38.0992 49.3033 38.304C49.3659 38.4726 49.6839 38.4991 49.6911 38.6774C49.6959 38.8653 49.3827 38.9303 49.3273 39.1086C49.2984 39.2025 49.4984 39.2628 49.4791 39.3567C49.4092 39.6916 49.1467 39.9686 49.0792 40.3034C49.0599 40.4022 49.2695 40.4648 49.2382 40.5612C49.0166 41.2261 48.583 41.8091 48.3589 42.4739C48.3276 42.5655 48.5252 42.6281 48.5083 42.7221C48.4842 42.8497 48.3083 42.9027 48.2602 43.0232C48.0144 43.6278 47.7784 44.2445 47.6338 44.8805C47.6121 44.9745 47.8025 45.0347 47.7856 45.1286C47.7615 45.2587 47.5856 45.3141 47.5326 45.437C47.3303 45.9019 47.1761 46.3886 47.0243 46.8703C46.8051 47.5641 46.5859 48.2603 46.4221 48.9686C46.3836 49.1324 46.3908 49.3082 46.4269 49.4721C46.4462 49.5636 46.6028 49.6142 46.5835 49.7081C46.5642 49.7973 46.4125 49.7828 46.3498 49.8503C46.2535 49.9539 46.1716 50.0767 46.1162 50.2092C45.8608 50.8139 45.5886 51.4161 45.4175 52.0497C45.1309 53.1048 45.0225 54.2033 44.7454 55.2609C44.637 55.6728 44.36 56.0317 44.2661 56.4461C44.2444 56.54 44.4347 56.6003 44.4178 56.6942C44.3961 56.8219 44.2082 56.8725 44.1697 56.9977C43.8324 58.0842 43.5241 59.1827 43.3025 60.3005C43.2832 60.3968 43.435 60.4498 43.4663 60.5438C43.4928 60.6257 43.5 60.722 43.4711 60.8064C43.3603 61.1292 43.1483 61.4134 43.0543 61.741C43.0086 61.9024 43.0206 62.0807 43.0567 62.2445C43.0784 62.3409 43.2374 62.3915 43.2206 62.4878C43.1531 62.8998 42.8905 63.2635 42.8183 63.6755C42.8014 63.7718 42.97 63.8272 42.97 63.926C42.97 64.02 42.8231 64.0729 42.8255 64.1669C42.8255 64.2608 42.9532 64.3114 42.9797 64.4006C43.0062 64.4801 43.0062 64.574 42.9797 64.6535C42.9483 64.7426 42.8447 64.7932 42.8158 64.88C42.7869 64.9619 42.7869 65.0582 42.811 65.1425C42.9989 65.7833 43.223 66.4145 43.447 67.0456C43.5867 67.4359 43.7288 67.8262 43.9047 68.202C44.2058 68.85 44.4997 69.5052 44.8755 70.1123C45.0803 70.4447 45.3236 70.7699 45.6344 71.006C45.7404 71.0879 45.9138 71.0518 46.0343 70.994C46.1692 70.9289 46.3185 70.8157 46.3402 70.6688C46.3643 70.4977 46.174 70.358 46.1523 70.187C46.121 69.9461 46.1138 69.6907 46.186 69.4594C46.2125 69.3727 46.3595 69.3944 46.4221 69.327C46.5811 69.1535 46.781 68.9849 46.8364 68.756C46.8774 68.5874 46.6799 68.4332 46.6799 68.2622C46.6799 68.1682 46.8075 68.1176 46.834 68.0285C46.8605 67.949 46.8774 67.8478 46.834 67.7756C46.7594 67.6479 46.6582 67.4913 46.5112 67.4696C46.3402 67.4431 46.2005 67.6503 46.0294 67.6551C45.8825 67.6575 45.6729 67.6262 45.6175 67.4889C45.3814 66.9011 45.3116 66.2579 45.2176 65.6316C45.1694 65.3088 45.1526 64.9787 45.1911 64.6535C45.2104 64.4777 45.4007 64.3379 45.3886 64.1621C45.3356 63.3671 45.0177 62.6011 44.996 61.8037C44.9912 61.635 45.2417 61.5604 45.3116 61.4086C45.3405 61.346 45.2489 61.2737 45.2658 61.2062C45.4368 60.5847 45.7524 60.0042 45.8753 59.3706C45.909 59.1996 45.697 59.0478 45.7163 58.8743C45.7307 58.7467 45.921 58.7009 45.9596 58.578C46.1354 58.0312 46.1595 57.441 46.3498 56.899C46.6919 55.9306 47.2098 55.032 47.5519 54.066C47.5784 53.9913 47.3905 53.9383 47.4218 53.8661C47.4917 53.7022 47.7543 53.6637 47.8025 53.4927C47.841 53.3505 47.6073 53.2301 47.6362 53.088C47.7735 52.4303 48.1301 51.8353 48.2843 51.1824C48.3589 50.8645 48.3324 50.5296 48.3132 50.2044C48.3059 50.0912 48.3059 49.9322 48.2023 49.8816C48.0891 49.8262 47.9253 49.884 47.8314 49.9683C47.6507 50.1273 47.6555 50.4887 47.4291 50.5657C47.2845 50.6163 47.0966 50.3441 47.152 50.202C47.4026 49.5275 47.8579 48.9421 48.2553 48.3422C48.3927 48.1375 48.6504 48.0194 48.7492 47.793C48.7877 47.7063 48.5733 47.6412 48.6046 47.5521C48.6721 47.357 48.9491 47.2775 48.9997 47.0775C49.0407 46.9113 48.8022 46.7547 48.8455 46.5885C48.8745 46.4801 49.0479 46.468 49.1587 46.4777C49.3803 46.497 49.5803 46.7258 49.7971 46.6752C49.9561 46.6391 50.0091 46.4199 50.0717 46.2681C50.3849 45.5069 50.7077 44.7432 50.9221 43.9458C50.9486 43.8495 50.7294 43.7844 50.7679 43.6905C51.0185 43.0786 51.5484 42.5944 51.7363 41.9608C52.0543 40.884 52.0591 39.7373 52.2663 38.6316C52.4325 37.7475 52.7409 36.8899 52.8541 35.9986C52.8758 35.8227 52.6686 35.683 52.6566 35.5071C52.6132 34.8639 52.6084 34.2135 52.6903 33.5751C52.7023 33.486 52.8637 33.5101 52.9264 33.4426C53.0781 33.2788 53.2468 33.1102 53.319 32.9006C53.3817 32.7199 53.3407 32.5176 53.307 32.3297C53.2925 32.2526 53.1769 32.2116 53.1817 32.1346C53.189 32.0406 53.3263 31.9948 53.3383 31.9009C53.3913 31.501 53.4082 31.0939 53.3696 30.6916C53.3528 30.5205 53.1432 30.3784 53.1817 30.2098C53.2251 30.0074 53.5021 29.9255 53.5792 29.7352C53.6418 29.5834 53.6129 29.4028 53.5792 29.2414C53.5599 29.1498 53.4226 29.1016 53.4226 29.0077C53.4226 28.9113 53.5961 28.8535 53.5744 28.7596C53.4828 28.3548 53.2299 28.0031 53.107 27.6081C52.9336 27.0444 52.765 26.4734 52.6903 25.888C52.6782 25.7869 52.871 25.729 52.8517 25.6279C52.7312 25.0184 52.4952 24.4354 52.2904 23.85C52.1868 23.5561 52.0905 23.2574 51.9291 22.99C51.5797 22.4046 51.0811 21.9132 50.7655 21.3086C50.7197 21.2218 50.9125 21.164 50.9269 21.0677C50.9679 20.8268 51.0209 20.5594 50.9269 20.3329C50.7246 19.8367 50.3825 19.4055 50.0693 18.9694C49.7321 18.4997 49.2792 18.1142 48.9756 17.6228C48.6311 17.0639 48.4601 16.4111 48.1421 15.8377C48.053 15.6787 47.8699 15.592 47.7639 15.4451C47.4242 14.9801 47.0918 14.508 46.8099 14.0093C46.5763 13.595 46.4558 13.1204 46.2173 12.7085C46.1258 12.5495 45.9451 12.4627 45.8367 12.3158C45.5934 11.9834 45.4368 11.5859 45.1646 11.2751C44.8683 10.9379 44.4564 10.7186 44.1504 10.3886C43.977 10.2031 43.9047 9.94294 43.7433 9.74781C43.5024 9.45873 43.1916 9.22988 42.9459 8.94321C42.7219 8.68063 42.5822 8.3506 42.3389 8.10729C42.1606 7.92902 41.8908 7.86398 41.6981 7.70017C41.3247 7.37977 41.0549 6.94134 40.6502 6.65948C40.2599 6.38727 39.754 6.31982 39.3493 6.06687C39.1036 5.9127 38.9542 5.63566 38.7254 5.4574C38.1809 5.03101 37.6486 4.57089 37.0367 4.25049C35.6539 3.5278 34.2133 2.91832 32.7631 2.34498C31.9657 2.02941 31.1322 1.80778 30.306 1.58133C29.67 1.40789 29.0268 1.26094 28.3788 1.14531C27.4465 0.979086 26.5094 0.805639 25.5651 0.738187C25.3916 0.726142 25.2447 0.880317 25.0736 0.911634C24.9098 0.940542 24.7316 0.967041 24.5726 0.914043C24.0787 0.745414 23.6523 0.408155 23.1537 0.256389C22.9176 0.184119 22.655 0.220254 22.4117 0.258798C22.3177 0.273252 22.272 0.415382 22.178 0.415382C22.0841 0.415382 22.0359 0.27807 21.9444 0.258798C21.7805 0.222663 21.6023 0.210618 21.4409 0.25398C20.5953 0.480425 19.7377 0.697234 18.9403 1.0634C18.2273 1.39102 17.5961 1.87282 16.9529 2.3233C16.7458 2.46784 16.6398 2.75692 16.4037 2.83883C16.0929 2.94241 15.7388 2.92073 15.4208 2.84124C15.2136 2.78824 15.0378 2.62684 14.9029 2.46061C14.8667 2.41725 15.045 2.35944 15.0016 2.3233C14.7005 2.07036 14.3512 1.88246 14.0019 1.70178C13.9248 1.66324 13.8333 1.67288 13.7466 1.67288C13.3418 1.67288 12.9275 1.62229 12.5276 1.70178C11.6676 1.87041 10.8052 2.07518 9.99335 2.40762C9.79822 2.48711 9.791 2.80992 9.60069 2.89905C9.50914 2.94241 9.46096 2.66056 9.36701 2.70151C9.19597 2.77619 9.17429 3.03395 9.02975 3.14959C8.72622 3.39289 8.34801 3.53021 8.04207 3.7687C7.78912 3.96623 7.56268 4.19991 7.35791 4.44803C7.19651 4.64316 7.11702 4.89851 6.9508 5.08882C6.86166 5.19 6.69785 5.19964 6.60872 5.30081C6.20883 5.76575 5.89325 6.30055 5.5054 6.77512C5.31991 7.00397 5.06937 7.17501 4.88629 7.40627C4.1395 8.3506 3.39754 9.30456 2.7182 10.2995C2.35444 10.8294 2.06055 11.4052 1.76424 11.9761C1.61488 12.2628 1.44384 12.5495 1.38362 12.865C1.36435 12.9614 1.54502 13.0096 1.54502 13.1084C1.54502 13.277 1.38121 13.4191 1.3788 13.5901C1.3788 13.7636 1.57634 13.9154 1.5378 14.084C1.40771 14.667 1.04395 15.1753 0.899413 15.7534C0.875323 15.8474 1.0825 15.91 1.05118 16.004C0.988545 16.1991 0.730783 16.2906 0.665741 16.4858C0.636833 16.5749 0.812689 16.6327 0.81028 16.7267C0.81028 16.8206 0.682604 16.8712 0.656105 16.9603C0.629606 17.0398 0.629606 17.1338 0.656105 17.2133C0.685013 17.3024 0.81028 17.353 0.81028 17.4469C0.81028 17.5409 0.682604 17.5915 0.656105 17.6806C0.629606 17.7601 0.634424 17.8517 0.656105 17.9336C0.699467 18.0998 0.870505 18.2371 0.851233 18.4081C0.78619 18.9815 0.480248 19.509 0.410388 20.08C0.388707 20.251 0.583835 20.398 0.581426 20.5714C0.574199 20.9014 0.403161 21.2122 0.379071 21.5422C0.335709 22.1035 0.3333 22.6672 0.38148 23.2285C0.395934 23.402 0.559745 23.5393 0.569381 23.7103C0.574199 23.8043 0.424842 23.8573 0.424842 23.9512C0.424842 24.0452 0.569381 24.0982 0.569381 24.1921C0.569381 24.2861 0.424842 24.3391 0.424842 24.433C0.424842 24.527 0.574199 24.58 0.569381 24.6739C0.559745 24.8449 0.38148 24.9847 0.383889 25.1557C0.383889 25.3267 0.542882 25.4641 0.581426 25.6303C0.61997 25.7893 0.639242 25.9555 0.612743 26.1169C0.583835 26.2879 0.434478 26.4277 0.424842 26.5987C0.420024 26.6926 0.569381 26.7456 0.569381 26.8396C0.569381 26.9335 0.424842 26.9865 0.424842 27.0805C0.424842 27.1744 0.569381 27.2274 0.569381 27.3214C0.569381 27.4153 0.424842 27.4683 0.424842 27.5623C0.424842 27.6562 0.57179 27.7092 0.569381 27.8032C0.566972 27.8971 0.42966 27.9453 0.412797 28.0369C0.367026 28.2754 0.347754 28.5235 0.38148 28.7644C0.485066 29.4919 0.73801 30.1953 0.819916 30.9252C0.831961 31.0264 0.648878 31.0842 0.656105 31.1854C0.752464 32.6019 0.93073 34.0112 1.12827 35.4156C1.15717 35.618 1.33062 35.789 1.33303 35.9938C1.33303 36.1696 1.11381 36.3093 1.14031 36.4852C1.2704 37.3765 1.66547 38.2173 1.79074 39.111C1.82687 39.3663 1.5932 39.6072 1.61488 39.8626C1.6727 40.5082 1.95214 41.1201 2.02441 41.7657C2.03646 41.8621 1.89192 41.9175 1.8606 42.009C1.83169 42.0933 1.83892 42.1873 1.85578 42.2716C2.29663 44.5987 3.05546 46.88 3.23372 49.2432C3.30358 50.1466 2.73988 50.9897 2.58571 51.8835C2.56884 51.9798 2.73988 52.0352 2.73747 52.134C2.73747 52.2279 2.59775 52.2761 2.58089 52.3677C2.53512 52.6062 2.51825 52.8543 2.54957 53.0952C2.57125 53.2662 2.73747 53.4059 2.73747 53.577C2.73747 53.748 2.5568 53.8877 2.54957 54.0588C2.49416 55.4223 2.48453 56.7882 2.54957 58.1516C2.56402 58.4287 2.73506 58.6768 2.78565 58.949C2.96151 59.8789 3.14459 60.8136 3.22891 61.7555C3.23854 61.8543 3.08437 61.9049 3.06269 62.0012C3.02655 62.165 3.03137 62.3385 3.05787 62.5047C3.2265 63.5237 3.4144 64.5403 3.65289 65.5448C3.8697 66.4603 4.08169 67.3829 4.42377 68.2574C5.05974 69.881 5.77521 71.4734 6.5774 73.0199C6.67858 73.2151 6.91466 73.3066 7.10497 73.4198C7.14351 73.4439 7.20374 73.4439 7.23987 73.415C7.28083 73.3837 7.30974 73.3187 7.29528 73.2681C7.12183 72.5646 6.94598 71.8564 6.69062 71.1795C6.26423 70.0497 5.76316 68.9487 5.25487 67.8551C5.20669 67.7539 4.95615 67.6961 5.02601 67.6069C5.23319 67.3419 5.77039 67.3781 5.87639 67.0577C5.97756 66.7517 5.64753 66.453 5.49577 66.1688C5.43313 66.0507 5.26691 65.9929 5.24282 65.8628C5.22596 65.7689 5.41386 65.7086 5.39218 65.6147C5.24041 64.9619 4.87906 64.3668 4.74416 63.7092C4.71043 63.5381 4.90075 63.3864 4.90315 63.2129C4.90315 63.119 4.75621 63.066 4.75861 62.972C4.75861 62.8733 4.92243 62.8179 4.91279 62.7215C4.83329 61.8398 4.57071 60.9798 4.50085 60.0957C4.4864 59.9198 4.69598 59.7657 4.66948 59.5898C4.61408 59.2477 4.23827 58.9779 4.26477 58.6334C4.33704 57.6313 4.77548 56.687 4.95374 55.6969C5.15128 54.6008 5.32473 53.4951 5.39459 52.3821C5.40663 52.2063 5.21632 52.0641 5.19464 51.8883C5.14887 51.4908 5.14887 51.0837 5.19464 50.6862C5.21391 50.5152 5.37291 50.3754 5.38254 50.2044C5.38736 50.1104 5.21632 50.0526 5.238 49.9635C5.25728 49.884 5.40904 49.819 5.46445 49.8768C5.72944 50.1562 5.84266 50.5513 6.08356 50.85C6.16787 50.9536 6.33409 50.968 6.42564 51.0644C6.66413 51.3173 7.01102 51.5462 7.06884 51.8907C7.10015 52.081 6.73158 52.1027 6.62558 52.2641C6.3895 52.623 6.18715 53.0109 6.0667 53.4228C5.78725 54.3695 5.66921 55.3596 5.42591 56.316C5.38977 56.4557 5.24282 56.5593 5.23319 56.7014C5.22596 56.7978 5.41386 56.858 5.38254 56.9496C5.31509 57.1447 5.06215 57.2338 4.98506 57.4241C4.92243 57.5759 4.90556 57.7758 4.98506 57.918C5.04288 58.0143 5.20428 58.0167 5.31509 57.9927C5.4524 57.9662 5.60176 57.8963 5.68126 57.7783C5.91734 57.4338 6.05947 57.0339 6.2281 56.6533C6.36059 56.357 6.53645 56.0703 6.59186 55.7499C6.60872 55.6511 6.41841 55.5909 6.43286 55.4921C6.49791 55.0007 6.66894 54.5285 6.81589 54.0564C6.89298 53.8106 6.98934 53.5698 7.10738 53.3433C7.15797 53.2494 7.30974 53.2084 7.31696 53.1C7.32901 52.929 7.18929 52.7796 7.16279 52.611C7.15797 52.5772 7.1941 52.5339 7.22783 52.5339C7.35069 52.5339 7.488 52.5435 7.59159 52.6134C7.80599 52.7627 8.00112 52.953 8.14565 53.1699C8.57446 53.8106 8.85631 54.543 9.29956 55.1741C9.42965 55.3596 9.685 55.4174 9.83677 55.5837C10.1523 55.9306 10.4486 56.2991 10.6895 56.7014C10.7618 56.8219 10.6968 56.9905 10.7546 57.1206C10.8004 57.229 11.0148 57.2724 10.9883 57.388C10.9449 57.5687 10.6606 57.612 10.6004 57.7855C10.5571 57.9083 10.7305 58.024 10.7185 58.1541C10.7064 58.3251 10.5426 58.4648 10.533 58.6359C10.5281 58.7298 10.6944 58.7852 10.6775 58.8768C10.6534 58.9996 10.4872 59.2766 10.4342 59.1634C10.1837 58.6262 10.2078 57.9975 10.0102 57.441C9.98131 57.3567 9.81027 57.3928 9.77654 57.3109C9.5766 56.8267 9.51637 56.2919 9.33329 55.8029C9.3092 55.7354 9.23211 55.6873 9.16225 55.6752C9.11407 55.668 9.0683 55.7138 9.0418 55.7523C8.8804 55.9787 8.68045 56.1955 8.60336 56.4629C8.57446 56.5593 8.76958 56.6195 8.76236 56.7207C8.68286 57.9228 8.35042 59.1056 8.35042 60.3077C8.35042 61.4423 8.68527 62.5529 8.76236 63.6851C8.76958 63.7863 8.57686 63.8465 8.59855 63.9453C8.97676 65.6484 9.46096 67.3275 9.94517 69.0042C10.0512 69.3727 10.1813 69.7365 10.3643 70.0713C10.822 70.9145 11.3038 71.7504 11.8627 72.5309C12.2217 73.0344 12.6264 73.5114 13.1009 73.9064C13.2045 73.9932 13.3828 73.9522 13.5032 73.8944C13.6382 73.8318 13.8405 73.7137 13.8092 73.5692C13.7538 73.3259 13.4551 73.2151 13.3081 73.0127C12.966 72.5454 12.6553 72.0563 12.3445 71.5649C12.0964 71.1747 11.8435 70.782 11.6315 70.37C11.3183 69.7654 10.9859 69.1631 10.769 68.5151C10.7377 68.4236 10.9064 68.3682 10.9329 68.2742C10.9762 68.1176 10.969 67.949 10.969 67.7852C10.969 67.3805 10.9859 66.9758 10.9329 66.5735C10.9208 66.4795 10.7642 66.4313 10.7763 66.3374C10.7859 66.2579 10.9353 66.2748 10.9786 66.2073C11.1497 65.9496 11.3327 65.6846 11.4098 65.3834C11.4339 65.2895 11.2773 65.2341 11.2484 65.1401C11.2219 65.0606 11.2075 64.9595 11.2484 64.8872C11.3472 64.7065 11.5785 64.6077 11.6435 64.4126C11.6748 64.3187 11.4773 64.2584 11.4893 64.1621C11.6531 63.0299 12.0193 61.9314 12.1687 60.7967C12.2385 60.2692 12.2554 59.7199 12.147 59.1972C12.0988 58.9659 11.788 58.8575 11.7254 58.631C11.7013 58.5395 11.9157 58.7105 12.0049 58.6816C12.1205 58.6455 12.1663 58.4359 12.2867 58.4504C12.4553 58.4696 12.5758 58.6359 12.6914 58.7611C12.9275 59.0165 13.2407 59.2501 13.337 59.585C13.4069 59.8307 13.1226 60.0716 13.1419 60.3246C13.1564 60.5076 13.431 60.6112 13.431 60.7967C13.431 60.9822 13.1925 61.0906 13.1395 61.2689C13.0913 61.4279 13.0913 61.611 13.1395 61.77C13.1925 61.9482 13.431 62.0566 13.431 62.2421C13.431 62.4276 13.2094 62.5432 13.1395 62.7143C13.1082 62.7914 13.1323 62.8829 13.1347 62.9648C13.1419 63.1286 13.125 63.2948 13.1708 63.4514C13.1973 63.543 13.3322 63.5863 13.337 63.6803C13.3443 63.8296 13.1515 63.9718 13.2045 64.1115C13.272 64.2849 13.6068 64.2729 13.643 64.456C13.6887 64.6872 13.4551 64.8944 13.4093 65.1257C13.378 65.2871 13.3057 65.4943 13.4117 65.6195C13.4984 65.7207 13.7538 65.4894 13.814 65.6075C13.8911 65.7592 13.6719 65.9206 13.6502 66.0893C13.6165 66.335 13.5683 66.5976 13.6478 66.8312C13.7441 67.1251 14.0115 67.3347 14.1561 67.6069C14.3801 68.0285 14.5223 68.4886 14.7487 68.9078C14.7872 68.9777 14.8619 69.0812 14.939 69.0571C15.0811 69.0138 15.2353 68.8957 15.2642 68.7512C15.3702 68.2261 15.1582 67.6551 15.3244 67.1468C15.4136 66.8722 15.8207 66.8216 15.9749 66.5759C16.0231 66.4964 15.8183 66.4289 15.8303 66.335C15.84 66.2603 15.9845 66.2772 16.0206 66.2097C16.2013 65.8676 16.382 65.5183 16.4639 65.1401C16.4856 65.0414 16.288 64.9811 16.3025 64.8824C16.3844 64.3885 16.6373 63.9356 16.7409 63.4442C16.7747 63.2852 16.7506 63.1142 16.7096 62.9576C16.6855 62.866 16.5554 62.8179 16.553 62.7239C16.5506 62.63 16.6976 62.577 16.6976 62.483C16.6976 62.3891 16.5169 62.3288 16.553 62.2421C16.6373 62.0398 16.7771 61.7555 16.9963 61.7555C17.2107 61.7555 17.4203 62.0229 17.4251 62.2373C17.4299 62.4469 17.1023 62.5264 17.0228 62.7191C16.9601 62.8709 16.9866 63.0515 17.0228 63.2129C17.0445 63.3069 17.2083 63.3599 17.1842 63.4538C17.1167 63.7164 16.8325 63.8923 16.7795 64.1573C16.7457 64.3307 16.9722 64.4849 16.9433 64.6607C16.8782 65.0799 16.5988 65.4437 16.5097 65.858C16.4856 65.9688 16.5169 66.1278 16.6157 66.1808C16.7602 66.2603 16.9577 66.2434 17.1095 66.1808C17.2492 66.1254 17.3504 65.9905 17.4275 65.8628C17.4733 65.7881 17.4974 65.6822 17.4564 65.6027C17.3504 65.3907 17.1384 65.2485 17.0131 65.0462C16.9866 65.0028 16.9818 64.9305 17.0131 64.892C17.071 64.8197 17.189 64.8197 17.2516 64.7523C17.4106 64.5788 17.5841 64.4006 17.6684 64.1814C17.7286 64.0248 17.6997 63.8441 17.6684 63.6803C17.6539 63.6056 17.5094 63.5671 17.5335 63.4948C17.6033 63.29 17.8539 63.1744 17.9141 62.9648C17.9406 62.8709 17.7551 62.8179 17.7551 62.7215C17.7551 62.6276 17.8948 62.5794 17.9117 62.4878C17.9647 62.2108 17.7262 61.8013 17.9599 61.6447C18.6127 61.2111 19.4824 61.2568 20.2075 60.9629C20.6483 60.7847 20.9904 60.4041 21.4336 60.233C21.5276 60.1969 21.5902 60.4089 21.689 60.3896C22.0046 60.3294 22.3105 60.1921 22.5779 60.0162C23.0549 59.703 23.4042 59.2092 23.9053 58.9346C24.3726 58.6792 24.9339 58.6503 25.4277 58.4552C25.859 58.2866 26.2805 58.0842 26.6732 57.8409C26.8828 57.7108 26.996 57.4458 27.22 57.347C27.3068 57.3085 27.3694 57.5109 27.4609 57.4916C27.5958 57.4627 27.6585 57.2916 27.7789 57.229C28.2005 57.0074 28.6751 56.8893 29.0798 56.6364C29.3255 56.4822 29.4749 56.2052 29.7037 56.0269C30.0988 55.7162 30.5444 55.4777 30.9419 55.1717C31.1901 54.979 31.4743 54.8032 31.6381 54.5358C31.7032 54.4298 31.6164 54.2804 31.5562 54.172C31.5056 54.0805 31.4261 53.9528 31.3226 53.9648C30.7396 54.0275 30.1494 54.1503 29.6098 54.384C28.5305 54.8513 27.5742 55.5692 26.5046 56.0534C26.4154 56.092 26.3432 55.8607 26.2564 55.9041C25.9288 56.0655 25.7289 56.4172 25.4085 56.593C24.7773 56.9423 24.0763 57.1423 23.4307 57.4651C22.8309 57.7638 22.2961 58.195 21.6794 58.4552C21.5926 58.4913 21.5348 58.3299 21.4457 58.301C21.3638 58.2745 21.2674 58.2697 21.1855 58.2986C21.0097 58.3564 20.8675 58.4913 20.6917 58.5515C19.9907 58.79 19.2921 59.0622 18.5621 59.1947C18.3911 59.2261 18.2441 59.0261 18.0731 59.0237C17.9021 59.0237 17.7599 59.1682 17.5913 59.1923C17.3456 59.2261 17.0854 59.2646 16.8493 59.1947C16.3603 59.0502 15.9652 58.6238 15.4618 58.5612C15.2449 58.5347 15.1486 58.896 14.9366 58.9514C14.8499 58.9755 15.0595 58.7346 14.9848 58.6864C14.303 58.2456 13.4238 58.1179 12.8119 57.5807C12.3783 57.2001 12.3132 56.5328 11.9928 56.0534C11.9181 55.9402 11.7302 55.945 11.6483 55.8366C11.1641 55.2151 10.8293 54.4828 10.3113 53.8877C9.94758 53.471 9.4176 53.2277 9.02734 52.8374C8.84908 52.6591 8.78163 52.3918 8.62023 52.1966C8.31669 51.8305 7.89753 51.5582 7.63736 51.1583C7.58677 51.0789 7.81803 51.0042 7.7819 50.9174C7.51932 50.2983 7.06402 49.7708 6.78939 49.1565C6.46177 48.4266 6.3076 47.6268 5.97997 46.8944C5.70535 46.2801 5.24764 45.755 4.98747 45.1335C4.95133 45.0467 5.11274 44.9889 5.14164 44.8998C5.16814 44.8179 5.17296 44.7215 5.14405 44.6396C4.95615 44.0759 4.61889 43.558 4.49603 42.975C4.4599 42.8016 4.67671 42.6594 4.69357 42.4836C4.73212 42.0813 4.71525 41.6742 4.66226 41.2743C4.65021 41.1803 4.50808 41.1345 4.50567 41.0406C4.50326 40.9466 4.65503 40.8936 4.65021 40.7997C4.64057 40.6287 4.46231 40.4889 4.46472 40.3179C4.46472 40.1469 4.65262 40.0144 4.65985 39.8433C4.66707 39.6723 4.50326 39.5253 4.50567 39.3543C4.50567 39.2122 4.69357 39.0941 4.66466 38.9544C4.62612 38.7737 4.40449 38.6846 4.32981 38.516C4.30332 38.4582 4.40208 38.4003 4.39486 38.3377C4.28404 37.3091 4.04555 36.2925 3.9781 35.259C3.96606 35.088 4.15878 34.9483 4.166 34.7772C4.17082 34.6784 4.00219 34.623 4.01183 34.5267C4.10096 33.5848 4.27682 32.6501 4.45508 31.7202C4.49122 31.5299 4.68875 31.3637 4.65503 31.1734C4.61648 30.9662 4.36595 30.865 4.26236 30.6819C4.2455 30.653 4.29368 30.6024 4.32981 30.6024C4.45267 30.6024 4.58517 30.6217 4.69357 30.6819C4.8357 30.7614 4.91038 30.9301 5.05251 31.0047C5.12719 31.0433 5.24764 31.0626 5.30786 31.0047C5.38736 30.9252 5.40181 30.7879 5.38254 30.6771C5.36809 30.5856 5.23319 30.5422 5.21873 30.4483C5.20187 30.3399 5.18982 30.1158 5.30064 30.1279C5.5054 30.152 5.57767 30.5157 5.78484 30.5133C5.99202 30.5109 6.06429 30.1809 6.25942 30.1158C6.49309 30.0387 6.76771 30.0243 6.99416 30.1158C7.10015 30.1616 7.10015 30.3423 7.07365 30.4531C6.99175 30.8 6.87371 31.1493 6.68099 31.448C6.64245 31.5082 6.56536 31.2938 6.50513 31.33C6.27628 31.4649 5.95347 31.6214 5.93661 31.8864C5.91975 32.1273 6.20883 32.3249 6.43527 32.4068C6.61835 32.4742 6.81107 32.2526 7.00379 32.2767C7.56991 32.349 8.09988 32.6139 8.666 32.6862C8.76236 32.6983 8.81535 32.5537 8.9093 32.5224C8.99362 32.4935 9.08516 32.5007 9.17188 32.5152C10.2174 32.7127 11.2388 33.05 12.2939 33.1656C12.4023 33.1777 12.2024 32.9536 12.2144 32.8452C12.2265 32.7513 12.3662 32.6983 12.359 32.6043C12.3469 32.467 12.2723 32.3225 12.159 32.243C11.8916 32.0527 11.3303 32.149 11.2629 31.8286C11.1906 31.4697 11.7399 31.2601 11.8892 30.9277C11.9567 30.7783 11.923 30.5952 11.8892 30.4338C11.87 30.3423 11.6869 30.282 11.7326 30.1977C11.7856 30.099 11.9567 30.0676 12.0579 30.1134C12.4096 30.27 12.6264 30.7446 13.0094 30.7687C13.272 30.7855 13.5418 30.4675 13.5659 30.205C13.5852 30.0026 13.2359 29.9665 13.0937 29.8195C12.9371 29.6557 12.8528 29.4293 12.6842 29.2799C12.5348 29.1474 12.3349 29.0824 12.1566 28.9932C11.8965 28.8607 11.6459 28.7017 11.3665 28.6126C10.8052 28.4319 10.227 28.2946 9.64886 28.1814C9.48265 28.1501 9.30197 28.1356 9.13816 28.1814C8.81054 28.2754 8.53109 28.5042 8.20347 28.5982C8.04207 28.6439 7.8638 28.6319 7.7024 28.5957C7.60604 28.5741 7.55545 28.4151 7.45909 28.4319C7.04956 28.497 6.65931 28.6656 6.27628 28.8246C5.94143 28.9619 5.65717 29.2173 5.30786 29.3136C5.2115 29.3401 5.14887 29.133 5.05251 29.157C4.78993 29.2245 4.61408 29.5063 4.34909 29.5618C4.18046 29.5955 4.02387 29.3642 3.85283 29.4028C3.65289 29.4485 3.5758 29.7641 3.37104 29.7882C3.26263 29.8002 3.2795 29.5786 3.28913 29.4678C3.29636 29.3931 3.45294 29.3522 3.42163 29.2823C3.35658 29.133 3.06028 29.1089 3.0675 28.9475C3.07714 28.6897 3.35176 28.5163 3.45776 28.2826C3.4939 28.2055 3.50112 28.1115 3.48426 28.0272C3.43367 27.7791 3.29636 27.5527 3.25541 27.3045C3.22891 27.1431 3.24577 26.9745 3.28672 26.8179C3.31081 26.7264 3.43608 26.6782 3.44331 26.5842C3.44812 26.5096 3.27468 26.4517 3.32045 26.3939C3.52762 26.141 3.78779 25.9049 4.09373 25.7869C4.22864 25.7363 4.3539 25.9868 4.49363 25.9459C4.66466 25.8977 4.69357 25.5267 4.86702 25.5652C5.16333 25.6327 5.28618 26.0085 5.53431 26.1819C5.60176 26.2301 5.69812 26.2133 5.78244 26.2133C6.02574 26.2133 6.27146 26.2277 6.50995 26.1819C6.67858 26.1482 6.81348 25.9916 6.98693 25.9796C7.79394 25.9314 8.60818 25.8953 9.40797 26.0085C9.67536 26.047 9.8464 26.3458 10.1042 26.4228C10.3908 26.5072 10.716 26.3819 10.9979 26.4807C11.1665 26.5409 11.2075 26.7938 11.3713 26.8661C11.4412 26.8974 11.4821 26.7553 11.5568 26.7336C11.6363 26.7095 11.7302 26.7047 11.8097 26.7336C11.8989 26.7649 11.947 26.8805 12.0386 26.9022C12.2 26.9384 12.3807 26.9649 12.5324 26.9022C12.7083 26.83 12.7685 26.5192 12.9588 26.5264C13.178 26.5337 13.272 26.8637 13.4792 26.9311C13.602 26.9721 13.7441 26.895 13.8477 26.8179C14.1031 26.6276 14.2814 26.3458 14.5295 26.1458C14.7029 26.0061 14.9366 25.9483 15.1028 25.8013C15.3389 25.5917 15.6641 25.3966 15.7219 25.0858C15.7605 24.869 15.5148 24.6739 15.3293 24.5535C15.2184 24.4812 15.057 24.5294 14.9294 24.5631C14.8378 24.5872 14.768 24.7775 14.6933 24.7197C14.5704 24.6257 14.6692 24.38 14.556 24.274C14.3319 24.0644 14.0477 23.8838 13.7441 23.838C13.4936 23.7994 13.2624 24.0355 13.007 24.0379C12.836 24.0379 12.6962 23.8597 12.5252 23.8524C12.4312 23.8476 12.3855 24.0066 12.2915 24.0066C12.1205 24.0066 11.9735 23.8524 11.8025 23.8524C11.7086 23.8524 11.658 23.9801 11.5688 24.0066C11.4869 24.0331 11.3954 24.0331 11.3159 24.0066C11.2268 23.9753 11.1762 23.8717 11.0894 23.8428C11.0075 23.8139 10.9064 23.7994 10.8293 23.8404C10.4125 24.0524 10.0873 24.4547 9.63682 24.5824C9.46096 24.633 9.33811 24.3439 9.15743 24.3198C9.06107 24.3077 9.01771 24.4716 8.92135 24.4908C8.68286 24.5414 8.43473 24.527 8.19143 24.527C8.02761 24.527 7.86139 24.5342 7.7024 24.4908C7.61086 24.4667 7.56268 24.3367 7.46873 24.3342C7.37478 24.3318 7.32178 24.4812 7.22783 24.4788C7.13388 24.4788 7.08329 24.3511 6.99416 24.3246C6.91225 24.2981 6.82071 24.2981 6.74121 24.3246C6.65208 24.3535 6.60149 24.4788 6.50754 24.4788C6.41359 24.4788 6.36541 24.3391 6.27387 24.3222C6.03538 24.2764 5.77521 24.2114 5.54635 24.2909C5.11274 24.4378 4.7827 24.816 4.3539 24.9774C4.15155 25.0545 3.87211 25.1244 3.70589 24.9847C3.30359 24.6498 3.041 24.1632 2.81697 23.691C2.77361 23.6019 2.99764 23.5321 2.97355 23.4357C2.9061 23.1707 2.52066 22.9876 2.57125 22.7178C2.77602 21.6314 3.39031 20.6581 3.69625 19.5958C3.72275 19.5018 3.52521 19.4416 3.54448 19.3452C3.56135 19.2561 3.71552 19.2705 3.77575 19.2055C3.88656 19.0826 3.98051 18.9405 4.04555 18.7912C4.26959 18.2853 4.38763 17.736 4.64057 17.2446C4.98747 16.5749 5.37532 15.9221 5.83543 15.3246C6.20401 14.8476 6.66894 14.4526 7.1122 14.0454C7.18688 13.978 7.30974 13.978 7.382 13.9081C7.57954 13.7082 7.74817 13.4842 7.89994 13.2481C8.11675 12.9108 8.25406 12.5254 8.48291 12.1953C8.62023 12.0002 8.79608 11.8316 8.9888 11.6895C9.72113 11.145 10.5233 10.6945 11.2484 10.1405C11.3568 10.0586 11.352 9.86826 11.4652 9.79358C11.8483 9.53582 12.3012 9.40092 12.7035 9.16965C12.8191 9.1022 12.8721 8.92393 13.0046 8.90707C13.1732 8.88298 13.3226 9.05884 13.4936 9.06125C13.5876 9.06125 13.6454 8.88539 13.7345 8.91671C13.9296 8.98657 14.0188 9.2371 14.2091 9.31419C14.3608 9.37683 14.5704 9.41055 14.7029 9.31419C14.9583 9.13111 15.0209 8.76012 15.2594 8.55295C15.5846 8.2711 15.9628 8.04225 16.3627 7.88084C17.0637 7.59417 17.7888 7.334 18.538 7.21596C18.791 7.17501 19.0222 7.38459 19.2752 7.41832C19.4366 7.44 19.6052 7.42795 19.7618 7.387C19.8558 7.36291 19.9088 7.20151 20.0051 7.22319C21.3421 7.50263 22.6526 7.88566 23.9631 8.26628C24.4762 8.41564 24.9869 8.57704 25.4687 8.8083C25.6229 8.88298 25.6855 9.08775 25.8373 9.16483C26.1794 9.33587 26.5841 9.35274 26.9189 9.53582C27.0321 9.59604 27.0273 9.77431 27.1189 9.86344C27.3188 10.061 27.5404 10.2368 27.7789 10.3814C28.2752 10.6849 28.8196 10.8993 29.3134 11.2052C29.5712 11.3642 29.8097 11.5594 30.0241 11.7738C30.4625 12.2122 30.901 12.6555 31.2647 13.1565C31.6719 13.7154 31.9489 14.3586 32.3319 14.932C32.4331 15.0837 32.6282 15.1656 32.7125 15.327C33.6352 17.0639 34.5915 18.7936 35.3456 20.6099C35.7286 21.5326 35.89 22.5323 36.1116 23.5056C36.3405 24.5173 36.5621 25.5339 36.697 26.5626C36.7091 26.6589 36.5043 26.724 36.5428 26.8131C36.6416 27.0347 36.8006 27.3407 37.0463 27.3455C37.2607 27.3479 37.3739 27.0347 37.4245 26.8251C37.504 26.5072 37.4655 26.1675 37.4245 25.8423C37.4125 25.7483 37.2679 25.7026 37.2679 25.6086C37.2679 25.5098 37.4342 25.4544 37.4197 25.3581C37.2703 24.3607 37.0391 23.3779 36.7886 22.4022C36.5886 21.6314 36.3718 20.8629 36.0707 20.1257C35.8876 19.6753 35.519 19.3139 35.3407 18.861C35.307 18.7743 35.5262 18.7044 35.4853 18.6201C35.2299 18.0805 34.7891 17.6445 34.5145 17.1145C34.3386 16.7748 34.329 16.3653 34.1435 16.0305C33.7123 15.2572 33.1221 14.5802 32.6764 13.8166C32.6065 13.6986 32.6981 13.5203 32.6186 13.4095C32.4885 13.2288 32.2356 13.1662 32.0862 12.9999C31.92 12.812 31.8405 12.5591 31.6839 12.364C31.4743 12.1038 31.1611 11.9279 30.9925 11.6413C30.9371 11.5473 31.0046 11.4076 31.0744 11.3209C31.1033 11.2847 31.1539 11.3667 31.1901 11.3932C31.5394 11.6581 31.932 11.8774 32.2331 12.1953C32.6692 12.6579 32.9631 13.236 33.3822 13.713C33.5316 13.8816 33.7701 13.9563 33.9194 14.1225C34.076 14.296 34.1218 14.5537 34.288 14.7176C34.5096 14.9368 34.8469 15.0235 35.0565 15.2524C35.3552 15.58 35.507 16.0208 35.7912 16.3605C35.9358 16.5339 36.1935 16.5918 36.3308 16.77C36.5741 17.0856 36.6898 17.4855 36.909 17.8179C37.0078 17.9649 37.1884 18.0492 37.28 18.201C37.8027 19.0634 38.2797 19.9547 38.7422 20.8508C38.8892 21.1351 39.0843 21.4218 39.1084 21.7398C39.118 21.8747 38.9687 22.0216 38.8338 22.0409C38.7157 22.0577 38.6748 21.7831 38.5616 21.8168C38.3929 21.865 38.3062 22.065 38.2219 22.2167C38.1785 22.2914 38.193 22.3854 38.193 22.4721C38.193 22.7154 38.1569 22.9659 38.2243 23.1996C38.2629 23.3297 38.4411 23.3779 38.4893 23.5031C38.829 24.3487 39.1349 25.2087 39.3854 26.0856C39.4143 26.1892 39.3638 26.3048 39.3156 26.4012C39.1325 26.7842 38.8025 27.1046 38.7037 27.5189C38.6435 27.7646 38.9518 28.02 38.8723 28.2609C38.7711 28.5644 38.3761 28.6897 38.2243 28.9716C38.1472 29.1161 38.1858 29.3064 38.2243 29.4654C38.246 29.5569 38.3688 29.6027 38.3929 29.6942C38.4387 29.8508 38.4291 30.0195 38.4291 30.1833C38.4291 30.3471 38.4363 30.5133 38.3953 30.6723C38.3688 30.7662 38.205 30.8217 38.2339 30.9132C38.3014 31.1348 38.4508 31.3444 38.6411 31.4769C38.7206 31.5323 38.8506 31.4552 38.9157 31.383C39.0578 31.2264 39.1494 31.0264 39.2313 30.8337C39.4481 30.3278 39.5878 29.7906 39.8167 29.2895C39.848 29.2197 39.9299 29.1137 39.9973 29.1498C40.2286 29.2751 40.4406 29.4654 40.5634 29.6967C40.6598 29.8797 40.4888 30.1544 40.6188 30.3158C40.8429 30.5976 41.4307 30.5543 41.527 30.9012C41.7679 31.7563 41.7535 32.7079 41.5294 33.5703C41.3608 34.2232 40.6213 34.6134 40.402 35.2494C40.3322 35.4517 40.5779 35.683 40.773 35.7745C40.8911 35.8299 41.0236 35.6782 41.1151 35.5866C41.3921 35.3144 41.6499 35.0181 41.8643 34.6953C42.1052 34.3388 42.3389 33.9654 42.4786 33.5583C42.5099 33.4691 42.3316 33.4113 42.334 33.3174C42.3365 33.2234 42.4665 33.1728 42.4906 33.0837C42.5316 32.9271 42.5484 32.7585 42.5219 32.5971C42.493 32.426 42.3413 32.2863 42.334 32.1153C42.3292 32.0165 42.4979 31.9611 42.4882 31.8647C42.4159 31.0746 42.3798 30.258 42.0956 29.5184C41.9799 29.2149 41.4692 29.1956 41.3488 28.8969C41.1946 28.5114 41.0741 27.9646 41.3439 27.6466C41.9173 26.9721 42.811 26.6469 43.6012 26.247C43.7529 26.1699 43.9505 26.1843 44.1095 26.247C44.3263 26.3313 44.5045 26.4975 44.6659 26.6637C44.7021 26.7023 44.6852 26.7746 44.6684 26.8251C44.519 27.3238 44.2516 27.7936 44.1721 28.3091C43.9529 29.7256 43.8469 31.1565 43.7746 32.5874C43.7698 32.6862 43.9384 32.7344 43.9384 32.8332C43.9408 33.0042 43.777 33.1511 43.7843 33.3222C43.7915 33.4956 43.9553 33.6329 43.9722 33.804C44.0083 34.1292 44.0083 34.4616 43.9432 34.782C43.7264 35.8661 43.5193 36.9598 43.1338 37.9956C42.9845 38.3979 42.6424 38.7039 42.3581 39.0291C42.0811 39.3471 41.8402 39.7494 41.4524 39.9108C41.0766 40.0674 40.6285 39.9927 40.2286 39.9132C39.9901 39.865 39.7757 39.7084 39.5998 39.5398C39.3734 39.323 39.2963 38.9665 39.0434 38.781C38.9446 38.7087 38.7904 38.8026 38.6796 38.8629C38.5881 38.9135 38.4869 38.9954 38.47 39.0989C38.4026 39.4964 38.4002 39.906 38.4387 40.3083C38.4556 40.4793 38.617 40.619 38.6266 40.7901C38.6314 40.884 38.4797 40.937 38.4821 41.031C38.4845 41.1731 38.67 41.2911 38.6411 41.4309C38.6025 41.6115 38.3809 41.7007 38.3062 41.8693C38.2797 41.9271 38.3809 41.9897 38.3664 42.0524C38.087 43.3677 37.7184 44.6637 37.4342 45.979C37.2703 46.7306 37.0993 47.4846 37.0246 48.2483C37.015 48.3495 37.1981 48.4073 37.1884 48.5085C37.1041 49.4769 36.8223 50.4212 36.7524 51.3896C36.7404 51.5631 36.974 51.7052 36.9427 51.8786C36.897 52.146 36.6127 52.3243 36.5452 52.5869C36.5211 52.6832 36.7331 52.7483 36.6994 52.8422C36.0466 54.7309 35.1962 56.5473 34.5241 58.4311C34.329 58.9755 34.3193 59.5754 34.1049 60.1102C33.9869 60.4016 33.7099 60.5968 33.5412 60.8618C33.3124 61.2231 32.9799 61.5604 32.9197 61.9844C32.8884 62.2012 33.2281 62.3168 33.3003 62.524C33.3268 62.5962 33.1919 62.642 33.1775 62.7167C33.1702 62.7504 33.2088 62.789 33.2425 62.7962C33.375 62.8227 33.5557 62.9094 33.6448 62.8082C34.2615 62.1217 34.7891 61.3508 35.254 60.5534C35.3022 60.4691 35.1023 60.4016 35.1047 60.3053C35.1047 60.2113 35.2323 60.1607 35.2588 60.0716C35.2853 59.9921 35.2853 59.8982 35.2588 59.8187C35.2299 59.7271 35.0854 59.6741 35.0998 59.5778C35.1191 59.4405 35.2348 59.1586 35.3432 59.2429C35.5865 59.4284 35.7744 59.7633 35.743 60.0668C35.6057 61.4544 35.0854 62.7769 34.8541 64.1524C34.8373 64.2512 35.0468 64.3138 35.0131 64.4102C34.7096 65.3136 34.1676 66.1278 33.8857 67.0384C33.8351 67.2046 34.0977 67.3684 34.0423 67.5323C33.9652 67.7708 33.6617 67.8719 33.5388 68.0911C33.1341 68.8211 32.8595 69.616 32.4789 70.3556C32.1031 71.0903 31.7032 71.813 31.2696 72.5165C31.0576 72.8585 30.8143 73.1813 30.5469 73.4825C30.1253 73.957 29.6098 74.3449 29.205 74.8363C29.0123 75.07 28.9641 75.4 28.7738 75.6361C28.5908 75.8625 28.2679 75.9565 28.1065 76.1998C28.0439 76.2938 28.0776 76.4865 28.1812 76.5298M11.5761 70.7434C11.4677 70.7169 11.2557 70.7796 11.2508 70.6688C11.2484 70.5579 11.4628 70.5628 11.5712 70.5893M45.7837 70.0232C45.6753 69.9967 45.4633 70.0593 45.4585 69.9485C45.4561 69.8377 45.6705 69.8425 45.7789 69.869M15.5846 66.1037C15.6087 65.9953 15.5485 65.7833 15.6593 65.7785C15.7701 65.7761 15.7653 65.9905 15.7388 66.0989M17.1143 65.687C17.0059 65.6605 16.7939 65.7231 16.7891 65.6123C16.7867 65.5015 17.0011 65.5063 17.1095 65.5328M15.7894 65.3762C15.7219 65.2943 15.5653 65.2365 15.5846 65.1329C15.6135 64.9884 15.7725 64.7402 15.9002 64.8173C16.0616 64.9161 16.0158 65.1931 15.9797 65.3762M9.55973 64.6583C9.58382 64.5499 9.5236 64.3379 9.63441 64.3331C9.74522 64.3307 9.74041 64.5451 9.71391 64.6535M15.9773 64.1645C15.9243 64.1669 15.8496 64.2151 15.8159 64.1741C15.7629 64.1091 15.7846 64.0079 15.7822 63.926C15.7725 63.6851 15.7557 63.4442 15.7822 63.2057C15.7942 63.0949 15.787 62.8901 15.8978 62.8901C16.0086 62.8901 16.0062 63.0925 16.0134 63.2033M9.39833 62.0687C9.36942 61.9627 9.31402 61.8615 9.31161 61.7531C9.31161 61.717 9.37424 61.6567 9.3911 61.6856C9.44892 61.7796 9.4706 61.8976 9.4706 62.006M16.4567 61.994C16.3483 62.0229 16.2423 62.0759 16.1315 62.0783C16.0977 62.0783 16.0447 62.0277 16.064 61.9988C16.1435 61.8735 16.2302 61.6856 16.3772 61.6856M17.2685 61.5242C17.3745 61.4953 17.4757 61.4399 17.5841 61.4375C17.6202 61.4375 17.6804 61.4977 17.6515 61.517C17.5576 61.5748 17.4395 61.5965 17.3311 61.5965M11.1641 61.5074C11.0268 61.1918 10.7763 60.9051 10.7522 60.5606C10.7425 60.4089 10.9232 60.2402 11.075 60.2378C11.1858 60.2378 11.1834 60.4402 11.1906 60.5534M9.46819 61.2737C9.41519 61.2761 9.34051 61.3243 9.30679 61.2833C9.25379 61.2183 9.27547 61.1171 9.27306 61.0352C9.26343 60.7943 9.24656 60.5534 9.27306 60.3149C9.28511 60.2041 9.27788 59.9993 9.38869 59.9993C9.49951 59.9993 9.4971 60.2017 9.50432 60.3149M36.7259 61.0304C36.6609 61.0352 36.5717 61.093 36.5308 61.0424C36.4778 60.9774 36.4706 60.8473 36.5308 60.7871C36.6103 60.7076 36.7885 60.6281 36.8584 60.7148M16.064 60.3197C16.17 60.2908 16.2712 60.2354 16.3796 60.233C16.4157 60.233 16.4759 60.2932 16.447 60.3125C16.3531 60.3703 16.235 60.392 16.1266 60.392M11.2653 58.6575C11.2557 58.4046 11.1473 58.1348 11.234 57.8963C11.2725 57.7903 11.4532 57.8023 11.564 57.824C11.6122 57.8337 11.6242 57.9204 11.6074 57.9686M35.8948 57.0556C35.89 56.9905 35.8322 56.9014 35.8828 56.8604C35.9478 56.8074 36.0779 56.8002 36.1381 56.8604C36.2176 56.9399 36.2971 57.1182 36.2104 57.1881M26.9743 56.6219C26.9767 56.6749 27.0345 56.7665 26.984 56.7809C26.878 56.8074 26.6708 56.8098 26.6636 56.7014M42.045 54.6345C42.3485 53.5601 42.7195 52.5026 42.9556 51.4113C42.9772 51.3125 42.7749 51.2523 42.7966 51.1535C43.1844 49.3781 43.7939 47.6557 44.1673 45.8754C44.2034 45.7044 44.0083 45.5526 44.0083 45.3792C44.0083 45.2852 44.1504 45.2371 44.1649 45.1455C44.2155 44.8251 44.2323 44.4975 44.1962 44.1771C44.1769 44.0061 43.9722 43.8639 44.0083 43.6929C44.0517 43.4881 44.3985 43.4134 44.401 43.2039C44.4034 42.9196 44.1938 42.6667 44.0203 42.4426C43.9866 42.3993 43.9384 42.5631 43.8903 42.539C43.7481 42.4643 43.7096 42.2234 43.5506 42.1969C43.4374 42.1776 43.288 42.327 43.3073 42.4402C43.3338 42.6016 43.6542 42.6305 43.6518 42.7943C43.6421 43.4255 43.341 44.0205 43.2784 44.6469C43.2687 44.7456 43.4109 44.7986 43.4422 44.8902C43.4687 44.9721 43.4687 45.0684 43.447 45.1527C43.3868 45.3792 43.2567 45.5815 43.2013 45.808C42.6328 48.2218 42.0353 50.6332 41.5848 53.0711C41.4957 53.5529 41.4524 54.0684 41.5921 54.5382M46.7449 53.6444C46.6365 53.6179 46.4221 53.6806 46.4197 53.5698C46.4173 53.4204 46.5907 53.2204 46.7353 53.2542M46.2631 53.1626C46.1547 53.1361 45.9427 53.1988 45.9379 53.088C45.9355 52.9771 46.1499 52.982 46.2583 53.0085M46.981 52.676C46.9521 52.57 46.8967 52.4688 46.8943 52.3604C46.8943 52.3243 46.9569 52.2641 46.9738 52.293C47.0316 52.3869 47.0533 52.505 47.0533 52.6134M38.7904 51.9533C38.7471 51.7702 38.6772 51.5896 38.6627 51.4017C38.6338 51.0018 38.6338 50.5971 38.6652 50.1996C38.6748 50.0888 38.7037 49.8045 38.7808 49.884C38.9133 50.0189 38.8892 50.2502 38.9012 50.4381C38.9277 50.838 38.9277 51.2427 38.8988 51.6426M47.2195 51.7124C47.1906 51.6064 47.1352 51.5052 47.1328 51.3968C47.1328 51.3607 47.1954 51.3005 47.2122 51.3294C47.2701 51.4233 47.2917 51.5414 47.2917 51.6498M20.5833 51.6498C20.6555 51.5679 20.7495 51.498 20.8025 51.4017C20.8266 51.3583 20.8386 51.286 20.8025 51.2499C20.6411 51.0837 20.4725 50.8837 20.246 50.8331C19.7714 50.7271 19.2728 50.7633 18.7886 50.8042C18.6175 50.8187 18.4778 50.9825 18.3068 50.9921C18.2128 50.997 18.1598 50.8428 18.0659 50.8476C17.8924 50.8572 17.7551 51.0138 17.5841 51.0355C17.3432 51.0668 17.0951 51.0499 16.8566 51.0042C16.6879 50.9704 16.553 50.8163 16.3796 50.8018C16.1098 50.7825 15.8135 50.7777 15.5774 50.9102C15.4834 50.9632 15.5653 51.1343 15.6135 51.2306C15.7075 51.4185 15.7797 51.7052 15.9869 51.7341C17.071 51.8907 18.1767 51.804 19.2704 51.7558C19.4438 51.7486 19.5811 51.5679 19.7522 51.5679C19.9232 51.5679 20.0629 51.7365 20.234 51.7534M27.9355 48.3832C28.0463 48.3471 28.2101 48.3784 28.268 48.2748C28.3474 48.1302 28.3402 47.9279 28.268 47.7785C28.162 47.5593 27.8584 47.475 27.7717 47.2486C27.5428 46.6535 27.5284 45.9959 27.3501 45.384C27.3212 45.2804 27.1622 45.2395 27.1478 45.1335C27.1357 45.0419 27.3549 44.9624 27.2923 44.8926C27.0442 44.6179 26.6997 44.4421 26.3721 44.2686C26.0445 44.0952 25.7048 43.8278 25.3362 43.8615C25.1194 43.8808 25.0086 44.1843 24.9652 44.3963C24.9315 44.5649 25.1122 44.7143 25.1363 44.8853C25.1748 45.1696 25.3362 45.5261 25.1531 45.7453C24.8424 46.1187 24.3293 46.2874 23.8595 46.4223C23.6909 46.4705 23.5343 46.2488 23.3584 46.2585C23.1994 46.2657 23.0814 46.4319 22.9272 46.4705C21.8817 46.7282 20.8338 47.0004 19.7666 47.1474C19.5956 47.1715 19.4486 46.9788 19.2752 46.9763C19.0993 46.9763 18.9524 47.1522 18.7765 47.1402C17.4901 47.0607 16.2182 46.7764 14.9318 46.7041C14.7607 46.6945 14.6282 46.892 14.4572 46.8993C14.2862 46.9065 14.1392 46.7451 13.9682 46.7451C13.8718 46.7451 13.8116 46.9233 13.7201 46.8969C13.219 46.7499 12.8022 46.3765 12.2963 46.2512C12.1277 46.2103 11.9784 46.3934 11.8073 46.4223C11.6459 46.4512 11.4652 46.4849 11.3135 46.4223C11.1232 46.3428 11.0389 46.0682 10.8389 46.0248C10.6944 45.9935 10.5498 46.1308 10.4462 46.2344C10.1981 46.4825 9.84399 46.7186 9.79581 47.0679C9.75486 47.3714 10.0078 47.6677 10.2246 47.8845C10.3137 47.9737 10.4824 47.9038 10.6028 47.8677C10.6968 47.8412 10.7498 47.6894 10.8461 47.7039C11.3352 47.7737 11.7832 48.0363 12.2723 48.1062C12.3686 48.1206 12.4192 47.9399 12.5156 47.9423C12.7661 47.952 12.9925 48.1375 13.2455 48.1375C13.4984 48.1375 13.7225 47.9399 13.9754 47.9423C14.1464 47.9423 14.2814 48.1206 14.4524 48.1423C14.8499 48.1905 15.257 48.1905 15.6545 48.1423C15.905 48.1134 16.1242 47.9134 16.3772 47.9134C16.6301 47.9134 16.8469 48.1302 17.0999 48.1399C17.2709 48.1447 17.4106 47.9616 17.5817 47.9544C17.6756 47.9496 17.7262 48.0821 17.8153 48.1086C17.8972 48.1351 17.9888 48.1351 18.0683 48.1086C18.1574 48.0797 18.208 47.9496 18.302 47.9544C18.473 47.9616 18.6127 48.1423 18.7838 48.1399C18.9548 48.1399 19.0873 47.9496 19.2583 47.9448C19.4342 47.9399 19.5811 48.1206 19.757 48.1086C20.4893 48.0556 21.212 47.8918 21.9323 47.752C22.7225 47.6003 23.5126 47.4437 24.2907 47.2365C24.4738 47.1883 24.6135 47.0125 24.799 46.986C24.8954 46.9739 24.9508 47.1353 25.0471 47.1353C25.1411 47.1353 25.1917 47.0101 25.2808 46.9812C25.3627 46.9547 25.4615 46.945 25.541 46.9788C25.7674 47.0751 25.9866 47.2004 26.1745 47.357C26.2709 47.4389 26.2805 47.5979 26.3817 47.6774C26.7142 47.9375 27.0659 48.1784 27.4489 48.3543M10.6028 63.2828C10.4944 63.2563 10.2824 63.3189 10.2776 63.2081C10.2752 63.0973 10.4896 63.1021 10.598 63.1286M26.1818 45.1479C26.2878 45.119 26.3889 45.0636 26.4973 45.0612C26.5335 45.0612 26.5937 45.1214 26.5648 45.1407C26.4708 45.1985 26.3528 45.2202 26.2444 45.2202M25.7722 44.736C25.7722 44.6709 25.7361 44.5987 25.7698 44.5457C25.8252 44.4565 25.9144 44.3096 26.0131 44.3457C26.1167 44.3843 26.1504 44.5722 26.0926 44.6661M17.4179 42.262C17.4179 42.0957 17.4612 41.9247 17.4227 41.7633C17.3938 41.6356 17.3456 41.4598 17.2203 41.4284C15.9315 41.108 14.5849 41.0575 13.2961 40.7347C13.0239 40.6672 12.8167 40.4432 12.5951 40.2721C12.53 40.2215 12.4192 40.1565 12.4433 40.077C12.5951 39.5783 12.9492 39.1544 13.0913 38.6533C13.1443 38.4654 13.1323 38.2269 13.0118 38.0751C12.9275 37.9715 12.7203 37.9836 12.6119 38.0631C12.3662 38.2389 12.1807 38.4991 12.041 38.7665C11.9928 38.858 12.1325 38.9761 12.0916 39.07C12.0049 39.2724 11.7278 39.376 11.6845 39.5928C11.5857 40.0674 11.6387 40.566 11.6845 41.0478C11.6989 41.1972 11.7254 41.4019 11.8627 41.4646C12.3975 41.7127 12.995 41.8067 13.5731 41.9271C14.4163 42.1005 15.269 42.2355 16.1218 42.3414C16.4446 42.3824 16.7747 42.3872 17.0999 42.3679M41.4379 41.4044C41.4331 41.3393 41.3753 41.2502 41.4259 41.2092C41.4909 41.1562 41.621 41.149 41.6812 41.2092C41.7607 41.2887 41.8402 41.467 41.7535 41.5368M39.9925 41.361C39.8841 41.2598 39.7179 41.1948 39.6649 41.0575C39.6239 40.9539 39.6408 40.725 39.7516 40.7322C39.966 40.7491 40.2021 40.9009 40.2792 41.1032M42.4063 39.9228C42.2979 39.8963 42.0859 39.959 42.0811 39.8481C42.0787 39.7373 42.2931 39.7421 42.4015 39.7686M2.80733 36.9622C2.83142 36.8538 2.7712 36.6418 2.88201 36.637C2.99283 36.6345 2.98801 36.8514 2.96151 36.9574M2.88924 35.0952C2.84588 34.9121 2.78083 34.7314 2.76156 34.5435C2.73747 34.3051 2.73747 34.0617 2.76397 33.8233C2.77602 33.7124 2.80252 33.4282 2.8796 33.5077C3.0121 33.6426 2.98319 33.8738 3.00005 34.0617C3.02173 34.3002 3.02173 34.5435 2.99764 34.7844M29.8603 33.6619C29.8362 33.5559 29.776 33.4499 29.7904 33.3415C29.8025 33.2475 29.988 33.1777 29.935 33.1006C29.7182 32.785 29.2773 32.6597 29.0894 32.3249C29.0147 32.1924 29.2556 32.0478 29.2532 31.8961C29.246 31.6455 28.9593 31.3974 29.0605 31.1661C29.1376 30.9903 29.4315 31.0577 29.6218 31.0577C29.735 31.0577 29.8916 31.065 29.9446 31.1661C30.0024 31.277 29.9253 31.4215 29.8651 31.5299C29.7856 31.6696 29.5929 31.7371 29.5423 31.8888C29.5062 31.9972 29.5182 32.2237 29.6314 32.2165C30.1349 32.1851 30.6215 31.9924 31.0816 31.7901C31.2334 31.7226 31.349 31.5733 31.4237 31.4239C31.4623 31.3468 31.455 31.2264 31.3948 31.1661C31.1419 30.9084 30.848 30.6819 30.5276 30.5157C30.1903 30.3374 29.776 30.335 29.4459 30.1447C29.1135 29.9544 28.9304 29.5401 28.5763 29.3907C28.3041 29.2751 27.9837 29.357 27.6922 29.4004C27.5958 29.4148 27.5453 29.5883 27.4513 29.5642C27.1887 29.4967 26.9984 29.263 26.7503 29.1595C26.666 29.1257 26.5696 29.1426 26.4805 29.157C25.7626 29.2775 25.0616 29.4895 24.3365 29.569C24.2401 29.5786 24.1799 29.3859 24.0859 29.4148C23.8908 29.4774 23.7993 29.7376 23.6041 29.8002C23.515 29.8292 23.4596 29.6726 23.3705 29.6461C23.2886 29.6196 23.197 29.6196 23.1175 29.6461C22.9754 29.6942 22.8405 29.7737 22.7249 29.8677C22.5851 29.9809 22.5153 30.1833 22.3515 30.2604C22.284 30.2941 22.2358 30.1351 22.1612 30.1375C22.0672 30.1423 22.0142 30.282 21.9203 30.282C21.8263 30.282 21.7685 30.111 21.6794 30.1375C21.5372 30.1785 21.4192 30.3085 21.3566 30.4434C21.3132 30.5422 21.3445 30.6699 21.3927 30.7638C21.5324 31.0288 21.677 31.3131 21.913 31.4962C21.9998 31.5636 22.1804 31.513 22.231 31.4143C22.2768 31.33 22.1082 31.2625 22.0865 31.171C22.0793 31.1372 22.1178 31.0891 22.1515 31.0939C22.3226 31.118 22.4791 31.2962 22.6478 31.2529C23.1537 31.1252 23.5752 30.7614 24.0715 30.6048C24.3052 30.5326 24.5629 30.5543 24.8062 30.5759C24.917 30.5856 25.1363 30.5808 25.1194 30.6916C25.0905 30.8987 24.7581 30.971 24.7195 31.1758C24.6906 31.3372 25.0833 31.5179 24.9484 31.6094C24.2016 32.1081 23.2862 32.2887 22.4743 32.6718C22.4021 32.7055 22.3274 32.7753 22.3153 32.8548C22.2985 32.9632 22.2985 33.1222 22.3948 33.1752C22.4767 33.221 22.5442 33.0307 22.6381 33.0307C22.7321 33.0307 22.7851 33.1752 22.879 33.1752C22.973 33.1752 23.026 33.0355 23.1199 33.0307C23.197 33.0259 23.2428 33.1825 23.3127 33.1536C23.462 33.0909 23.4957 32.8452 23.6523 32.8115C23.8041 32.7778 23.9318 32.9608 24.0859 32.9801C24.4039 33.0187 24.7291 32.9897 25.0495 32.9825C25.2134 32.9777 25.3796 32.9897 25.5386 32.9464C25.6325 32.9199 25.6855 32.7681 25.7819 32.7802C26.348 32.85 26.8828 33.1102 27.4489 33.1825C27.5453 33.1945 27.6007 33.0283 27.6994 33.0283C27.7934 33.0283 27.8391 33.1849 27.9331 33.1825C28.1017 33.1801 28.2463 33.0187 28.4149 33.0162C28.5859 33.0162 28.7329 33.1608 28.9015 33.1704C28.9738 33.1752 29.0244 33.0066 29.0846 33.05C29.3086 33.2138 29.3954 33.5221 29.6122 33.6932M10.3643 31.9707C10.1764 31.9442 9.80545 32.084 9.79822 31.8937C9.79099 31.7058 10.1716 31.7877 10.3595 31.8118M27.5886 31.6576C27.6248 31.5516 27.6272 31.248 27.6994 31.3372C27.8175 31.4841 27.8078 31.7106 27.7813 31.8985C27.7741 31.9515 27.6512 31.9394 27.6175 31.8985M6.08838 29.9592C5.98238 29.9881 5.8812 30.0436 5.7728 30.046C5.73666 30.046 5.67644 29.9857 5.70535 29.9665C5.7993 29.9086 5.91734 29.887 6.02574 29.887M40.2334 29.0727C40.2045 28.9667 40.1491 28.8656 40.1467 28.7571C40.1467 28.721 40.2093 28.6608 40.2262 28.6897C40.284 28.7836 40.3057 28.9017 40.3057 29.0101M45.0514 28.5909C45.0225 28.4849 44.9671 28.3838 44.9647 28.2754C44.9647 28.2392 45.0273 28.179 45.0442 28.2079C45.102 28.3019 45.1237 28.4199 45.1237 28.5283M22.2286 27.119C22.443 26.9986 22.6309 26.7938 22.8742 26.7577C23.0477 26.7312 23.1898 26.9384 23.3632 26.9528C23.9269 26.9962 24.5051 27.0251 25.0616 26.9239C25.3266 26.8757 25.4952 26.5674 25.7578 26.5096C25.9264 26.4734 26.0806 26.6878 26.254 26.6686C26.3865 26.6541 26.4443 26.4782 26.56 26.4156C26.8442 26.2638 27.1237 26.0687 27.4441 26.0278C27.6994 25.994 27.9427 26.2518 28.1957 26.2012C28.7811 26.0856 29.2725 25.611 29.8651 25.5508C30.1373 25.5243 30.318 25.8736 30.5758 25.9627C30.7348 26.0157 30.913 25.9964 31.0768 25.9603C31.1684 25.941 31.2214 25.7724 31.3105 25.8037C31.5056 25.8688 31.6044 26.1 31.7851 26.1988C31.8622 26.2398 31.9682 26.2398 32.0452 26.2012C32.2982 26.0856 32.556 25.9555 32.7487 25.7555C32.8378 25.664 32.8836 25.5026 32.8378 25.387C32.7679 25.2063 32.6041 25.0642 32.4379 24.963C31.7706 24.5511 31.1346 23.9825 30.3614 23.8621C29.6001 23.744 28.8413 24.115 28.0897 24.2837C27.8705 24.3318 27.6777 24.5438 27.4561 24.5125C27.1863 24.4764 27.0056 24.1897 26.7455 24.103C26.5865 24.05 26.4082 24.0693 26.2444 24.1054C26.1529 24.1247 26.1047 24.2668 26.0107 24.262C25.8397 24.2547 25.7 24.0741 25.5289 24.0765C25.2736 24.0789 25.0447 24.3053 24.7918 24.2764C24.3798 24.2307 24.0281 23.9247 23.6162 23.8597C23.1344 23.785 22.6357 23.8139 22.1491 23.8645C22.0552 23.8741 22.0142 24.0138 21.9203 24.0331C21.6384 24.0909 21.2987 23.9295 21.0602 24.0885C20.8049 24.2596 20.7182 24.6065 20.6218 24.8979C20.5688 25.0569 20.5881 25.2352 20.6242 25.399C20.6435 25.4906 20.8097 25.5436 20.7808 25.6327C20.7182 25.8278 20.4291 25.9121 20.3954 26.1145C20.3616 26.3289 20.4556 26.5746 20.6074 26.7288C20.8242 26.948 21.1253 27.0829 21.424 27.1576C21.518 27.1817 21.5685 27.001 21.6673 26.9962M39.9877 25.4617C39.9467 25.3581 39.8696 25.2641 39.8696 25.1533C39.8696 25.0425 39.8696 24.8401 39.9829 24.8377C40.0937 24.8377 40.0937 25.0401 40.0961 25.1509M13.7225 25.3147C13.7249 25.3677 13.7827 25.4592 13.7321 25.4737C13.6261 25.5002 13.4189 25.5026 13.4117 25.3942M39.7492 24.5005C39.7203 24.3945 39.6649 24.2933 39.6625 24.1849C39.6625 24.1488 39.7251 24.0885 39.742 24.1174C39.7998 24.2114 39.8215 24.3294 39.8215 24.4378M50.3512 23.0623C50.2428 23.0358 50.0308 23.0984 50.026 22.9876C50.0235 22.8768 50.2379 22.8816 50.3463 22.9081M39.3059 23.0382C39.1807 22.8648 39.0024 22.7202 38.9325 22.5179C38.8964 22.4119 38.9036 22.1975 39.0169 22.1927C39.1662 22.1854 39.2963 22.3589 39.3445 22.501M3.08437 14.8284C3.05787 14.6549 2.98801 14.4839 3.00728 14.308C3.02655 14.137 3.18554 13.9973 3.19518 13.8262C3.2 13.7299 3.01451 13.6696 3.04582 13.5781C3.14459 13.2842 3.41922 13.077 3.54448 12.7952C3.94919 11.8942 4.15637 10.9041 4.62853 10.0369C5.17778 9.02993 5.90529 8.12897 6.58945 7.20873C6.94839 6.72453 7.30974 6.2355 7.75058 5.82597C7.80599 5.77539 7.87344 5.98256 7.94089 5.94883C8.16011 5.83802 8.27815 5.58508 8.48773 5.45499C8.74068 5.29841 9.06589 5.27191 9.31161 5.10087C9.47542 4.98524 9.50914 4.72988 9.67777 4.62148C9.74041 4.58053 9.79822 4.77084 9.86808 4.74434C10.1427 4.63834 10.3402 4.38781 10.6076 4.26495C10.9834 4.0915 11.3713 3.91805 11.7784 3.86024C12.3421 3.78074 12.9251 3.77351 13.4864 3.86506C13.6454 3.89156 13.7273 4.07705 13.8405 4.19027C13.9128 4.26254 14.0043 4.32999 14.0429 4.42394C14.0742 4.50103 14.079 4.60221 14.0429 4.67689C13.985 4.79734 13.8429 4.85997 13.7803 4.97801C13.5562 5.39717 13.4141 5.8597 13.1877 6.27886C13.1491 6.34872 13.0769 6.43063 12.9974 6.42822C12.9034 6.42822 12.8552 6.28609 12.7637 6.27164C12.518 6.23068 12.265 6.23309 12.0193 6.26682C11.2557 6.37522 10.492 6.49808 9.74763 6.69803C9.38147 6.7968 9.01289 6.9317 8.70936 7.15815C8.52387 7.29787 8.507 7.58935 8.34078 7.75317C8.16252 7.92902 7.90235 8.00129 7.70481 8.15547C7.541 8.28314 7.39405 8.4325 7.26878 8.59631C6.96284 8.9938 6.72194 9.43946 6.41359 9.83453C6.15824 10.1622 5.81375 10.4199 5.58249 10.7644C5.25728 11.2462 5.06215 11.8051 4.75621 12.2989M30.1108 10.7644C30.0024 10.7379 29.7904 10.8005 29.7856 10.6897C29.7832 10.5789 29.9976 10.5837 30.106 10.6102M27.4561 9.31419C27.4272 9.2082 27.3718 9.10702 27.3694 8.99861C27.3694 8.96248 27.432 8.90226 27.4489 8.93116C27.5067 9.02511 27.5284 9.14315 27.5284 9.25156M14.4428 9.08052C14.4403 9.02752 14.3825 8.93598 14.4331 8.92153C14.5391 8.89503 14.7463 8.89262 14.7535 9.00102M14.9318 8.35541C14.8234 8.32892 14.6114 8.39155 14.6066 8.28074C14.6042 8.16992 14.8186 8.17474 14.927 8.20124M38.7808 7.15333C38.6579 7.12683 38.523 7.13887 38.4146 7.07624C38.3231 7.02565 38.1376 6.90279 38.2171 6.83293C38.3568 6.70766 38.6146 6.65948 38.7784 6.75103M24.1462 7.30991C23.9607 7.33882 23.7704 7.44963 23.5897 7.39904C23.4452 7.3605 23.2043 7.1991 23.2837 7.07142C23.3825 6.91002 23.662 6.93893 23.845 6.98711M22.7658 7.07624C22.7032 7.01602 22.6622 6.91484 22.5779 6.89797C21.3855 6.64985 20.1352 6.65467 18.9741 6.28609C18.526 6.14396 19.9256 6.31982 20.3809 6.20178C20.6122 6.14155 20.7206 5.73202 20.9567 5.77539C21.624 5.89583 22.1973 6.32464 22.7995 6.64021C22.8718 6.67876 22.9296 6.74862 22.9585 6.8233C22.9874 6.90279 23.0067 7.00879 22.9561 7.07624M14.45 6.65708C14.4187 6.54867 14.3079 6.43545 14.3584 6.33427C14.7511 5.54894 15.1462 4.73711 15.734 4.08427C15.8785 3.92528 16.1676 4.05055 16.3772 4.09873C16.4254 4.11077 16.435 4.19509 16.4205 4.24327C16.329 4.52994 16.2615 4.84311 16.0688 5.07678M16.8614 4.01441C16.753 3.98791 16.541 4.05055 16.5362 3.93973C16.5338 3.82892 16.7482 3.83374 16.8566 3.86024M11.3159 3.5278C11.287 3.4218 11.2316 3.32062 11.2292 3.21222C11.2292 3.17608 11.2918 3.11586 11.3087 3.14477C11.3665 3.23872 11.3882 3.35676 11.3882 3.46516M17.825 3.29894C17.6443 3.2869 17.1914 3.42421 17.2805 3.26281C17.5094 2.84124 17.9695 2.5907 18.3622 2.31367C18.7139 2.06554 19.109 1.87523 19.5016 1.69937C19.533 1.68492 19.5859 1.7331 19.5787 1.76683C19.5546 1.91859 19.5402 2.10168 19.4245 2.20285M21.1976 3.05564C21.0097 3.02914 20.6387 3.16886 20.6315 2.97855C20.6242 2.79065 21.0048 2.87255 21.1927 2.89664M13.007 3.05323C12.8986 3.02673 12.6866 3.08936 12.6818 2.97855C12.6794 2.86773 12.8938 2.87255 13.0022 2.89905" fill="black"/>
</g>
</svg>
