<svg width="82" height="54" viewBox="0 0 82 54" fill="none" xmlns="http://www.w3.org/2000/svg">
<path d="M31.8197 36.0272C32.1774 36.0333 32.5474 35.9657 32.8943 36.0492C32.9998 36.0755 32.9683 36.2786 33.0688 36.3231C33.2426 36.4002 33.4616 36.3096 33.6355 36.3867C33.731 36.4291 33.7258 36.5794 33.8034 36.649C33.8772 36.7139 33.9738 36.7539 34.0682 36.7723C34.6896 36.9042 35.3346 36.9234 35.9427 37.1051C36.0461 37.1363 36.0181 37.338 36.1161 37.3815C36.29 37.4586 36.5089 37.368 36.6828 37.4451C36.7783 37.4875 36.7699 37.6451 36.8497 37.7098C36.9893 37.8245 37.164 37.8932 37.3305 37.9671C37.5778 38.0768 37.8246 38.2009 38.0888 38.2594C38.1905 38.2811 38.3015 38.1631 38.397 38.2055C38.4925 38.2479 38.4694 38.4253 38.5649 38.4677C38.7388 38.5448 38.9567 38.4567 39.1316 38.5314C39.2271 38.5737 39.2158 38.7447 39.3113 38.787C39.4068 38.8294 39.5281 38.7013 39.6214 38.7486C39.7909 38.8355 39.8406 39.1069 40.0275 39.1546C40.4048 39.2486 40.8153 39.0699 41.1943 39.1471C41.2995 39.1674 41.2817 39.353 41.3663 39.4199C41.5059 39.5346 41.6817 39.6009 41.8471 39.6772C43.9659 40.6288 46.0638 41.6209 48.2152 42.4989C48.3913 42.5711 48.6097 42.4422 48.7903 42.5106C48.9675 42.5803 49.044 42.8108 49.2179 42.8879C49.3134 42.9303 49.4224 42.8232 49.525 42.8364C49.6202 42.8464 49.7133 42.8877 49.7821 42.9505C49.8597 43.0201 49.8524 43.1753 49.9501 43.2127C50.1297 43.2836 50.3413 43.1897 50.5246 43.2388C50.7007 43.2846 50.8645 43.3778 51.0052 43.4901C51.0874 43.5559 51.0765 43.7124 51.1721 43.7547C51.2676 43.7971 51.3837 43.6609 51.4792 43.7033C51.653 43.7804 51.7328 44.0035 51.9067 44.0806C52.0022 44.123 52.1113 44.0159 52.2138 44.0291C52.309 44.0391 52.4032 44.0779 52.471 44.1432C52.5474 44.2152 52.5418 44.3535 52.6286 44.4155C52.8482 44.5745 53.0939 44.7011 53.354 44.7754C53.5387 44.828 53.7411 44.7418 53.9302 44.7846C54.1944 44.8431 54.4412 44.9672 54.6885 45.0769C55.0166 45.2225 55.3562 45.3555 55.6591 45.5515C55.7481 45.6085 55.7305 45.7738 55.826 45.8161C55.9215 45.8585 56.0376 45.7223 56.1331 45.7646C56.3069 45.8418 56.3878 46.0624 56.5606 46.142C56.6561 46.1844 56.7752 46.0612 56.8707 46.1036C56.9662 46.1459 56.9538 46.3193 57.0504 46.3592C57.1459 46.4016 57.2549 46.2945 57.3575 46.3078C57.4527 46.3177 57.5469 46.3565 57.6146 46.4218C57.6911 46.4939 57.6901 46.6283 57.7723 46.6941C57.9119 46.8088 58.0876 46.8751 58.2531 46.9514C59.1474 47.3598 60.0277 47.8001 60.9479 48.1438C61.1286 48.2122 61.3442 48.1025 61.5225 48.1698C61.6201 48.2073 61.6066 48.3832 61.7021 48.4255C61.7976 48.4679 61.9178 48.3423 62.0122 48.3871C62.1077 48.4295 62.1016 48.5822 62.1802 48.6493C62.2515 48.7132 62.3446 48.7545 62.4373 48.7634C62.541 48.7741 62.6511 48.6646 62.7444 48.7119C62.915 48.7963 62.9734 49.0481 63.1505 49.1178C63.412 49.2221 63.7207 49.1273 63.9884 49.2109C64.3315 49.3161 64.6583 49.4845 64.9587 49.6794C65.0477 49.7365 65.0301 49.9017 65.1256 49.9441C65.2211 49.9864 65.3342 49.8636 65.4338 49.8901C65.8381 49.9961 66.1943 50.2832 66.6071 50.3372C66.8038 50.3629 66.9614 50.1131 67.1616 50.111C67.2468 50.1106 67.2153 50.2873 67.2893 50.3319C67.5933 50.5254 67.9293 50.6597 68.2575 50.8053C68.424 50.8792 68.5897 50.9615 68.7709 50.989C68.8748 51.0058 68.9836 50.8927 69.0791 50.9351C69.1746 50.9775 69.1515 51.155 69.2471 51.1973C69.4209 51.2744 69.6388 51.1863 69.8138 51.261C69.9093 51.3033 69.8979 51.4743 69.9934 51.5166C70.0889 51.559 70.2091 51.4334 70.3035 51.4782C70.399 51.5206 70.3928 51.6733 70.4715 51.7404C70.5428 51.8043 70.6356 51.8396 70.7286 51.8545C70.9182 51.8829 71.1209 51.8026 71.3037 51.8661C72.0609 52.1345 72.7969 52.464 73.5052 52.8427C73.6786 52.9342 73.7271 53.208 73.9157 53.2652C74.3608 53.3981 74.8455 53.2964 75.3004 53.3808C75.4843 53.4155 75.6609 53.4997 75.8101 53.6127C75.8982 53.6783 75.8779 53.8628 75.9835 53.8891C76.4133 54.0035 76.8668 54.0052 77.3108 54.0086C77.3924 54.0096 77.4865 53.9692 77.5349 53.8997C77.6445 53.7518 77.7494 53.5813 77.7578 53.3973C77.7645 53.2302 77.7176 53.0187 77.578 52.9304C77.3421 52.7818 77.0075 52.8886 76.7572 52.7658C76.6848 52.7307 76.676 52.5391 76.7568 52.5222C77.1776 52.439 77.6173 52.5842 78.0398 52.5105C78.386 52.45 78.7435 52.3446 79.0214 52.1276C79.444 51.7959 79.8073 51.3734 80.075 50.9085C80.4809 50.2115 80.7746 49.4501 81.0213 48.6826C81.0485 48.5949 80.8784 48.5488 80.8599 48.4585C80.6906 47.5122 80.6605 46.5427 80.4661 45.6001C80.3873 45.2161 80.2196 44.8542 80.044 44.5035C79.9315 44.2747 79.589 44.1287 79.6074 43.8758C79.6934 42.7437 80.3428 41.6825 80.3483 40.5469C80.3534 39.7162 79.9937 38.9084 79.6332 38.1619C79.1747 37.2135 78.1232 36.5448 77.9092 35.5142C77.8274 35.1172 78.6204 35.1199 78.9451 34.8767C79.0205 34.8192 79.0506 34.7182 79.0897 34.63C79.3452 34.054 79.6676 33.499 79.8268 32.8891C79.9188 32.5428 79.898 32.1669 79.829 31.8137C79.7576 31.433 79.6168 31.0567 79.4099 30.7302C78.9052 29.9256 78.342 29.1537 77.7133 28.4437C77.0783 27.7279 76.1436 27.2782 75.6315 26.4703C75.3871 26.0832 75.5765 25.5571 75.5951 25.099C75.6145 24.6589 75.753 24.2276 75.7495 23.7861C75.7448 23.4731 75.7117 23.1446 75.5718 22.8654C75.3948 22.5112 75.0951 22.2287 74.8238 21.9353C74.4049 21.4856 73.8917 21.123 73.5074 20.6416C73.3356 20.4276 73.376 20.0789 73.1847 19.8825C72.9933 19.6862 72.7014 19.6242 72.4378 19.5512C72.3564 19.5298 72.2488 19.6668 72.1883 19.6048C72.0136 19.4306 72.0279 19.1142 71.8406 18.9549C71.6322 18.7774 71.3438 18.714 71.0747 18.6533C70.974 18.6292 70.8631 18.7472 70.7665 18.7073C70.6699 18.6674 70.6835 18.4915 70.5869 18.4516C70.4914 18.4092 70.3782 18.5321 70.2787 18.5055C69.9628 18.4182 69.4987 18.4206 69.3756 18.1167C69.0692 17.3473 69.3147 16.4501 69.1348 15.64C68.9896 14.9831 68.7431 14.3429 68.4128 13.7594C68.3475 13.6424 68.1169 13.7659 68.0178 13.6721C67.802 13.4649 67.7491 13.1218 67.5332 12.9146C66.6466 12.0725 65.7389 11.2446 64.7332 10.5521C64.2104 10.1912 63.5977 9.96049 62.9896 9.77875C62.3619 9.58832 61.703 9.50136 61.049 9.44297C60.6997 9.41122 60.3395 9.43037 59.9986 9.50503C59.6007 9.58955 59.2545 9.86128 58.8516 9.91723C58.6715 9.94 58.4993 9.81961 58.3428 9.72967C58.2209 9.66094 58.0993 9.57178 58.0301 9.45018C57.7913 9.03044 57.6872 8.53842 57.4297 8.12795C57.1577 7.69055 56.7441 7.35456 56.4512 6.93133C56.3393 6.76732 56.3571 6.52885 56.2254 6.37656C55.7793 5.85605 55.2171 5.44536 54.7514 4.94256C54.5103 4.68015 54.3744 4.33242 54.1161 4.08881C53.9795 3.96075 53.7874 3.90487 53.6056 3.86532C53.5039 3.84365 53.393 3.96163 53.2974 3.91927C53.2019 3.8769 53.2182 3.70812 53.1306 3.65459C52.8209 3.46737 52.4876 3.31366 52.1388 3.21467C52.0368 3.18702 51.9348 3.29137 51.83 3.28304C51.6796 3.27204 51.5405 3.14289 51.389 3.16074C51.1885 3.18327 51.0186 3.48041 50.8339 3.40139C50.5683 3.28653 50.5893 2.8031 50.3197 2.70403C50.0525 2.60604 49.7727 2.88669 49.4892 2.90467C48.6962 2.95476 47.8879 2.77513 47.1045 2.90279C46.6151 2.98196 46.1386 3.21055 45.7497 3.51908C45.626 3.61965 45.8244 3.86604 45.7344 3.99624C45.6387 4.13271 45.4412 4.1947 45.2767 4.18916C45.0917 4.18336 44.9004 4.09264 44.7662 3.96567C44.1035 3.35202 43.601 2.56891 42.904 1.99286C42.0925 1.32492 41.1679 0.80627 40.2718 0.256284C40.1151 0.160363 39.9398 0.0796989 39.7568 0.0630128C39.2018 0.019221 38.6376 0.00946425 38.0845 0.0867961C37.7627 0.131769 37.4913 0.360422 37.1742 0.427982C36.6693 0.535477 36.1532 0.582283 35.6377 0.614663C34.8951 0.663611 34.1243 0.491842 33.401 0.675505C33.0169 0.77498 32.7557 1.14597 32.4759 1.42662C31.979 1.91898 31.5726 2.49836 31.072 2.9861C30.9686 3.08692 30.7434 3.03979 30.6762 3.17133C30.546 3.41861 30.6362 3.73725 30.5452 4.00192C30.5039 4.12145 30.4166 4.25873 30.2929 4.28009C30.1775 4.30225 30.0692 4.18968 29.9876 4.10947C29.5042 3.63989 29.1011 3.08858 28.6017 2.63535C28.1385 2.21285 27.6989 1.70404 27.1085 1.48907C26.2827 1.19024 25.3733 1.21215 24.4973 1.15208C24.318 1.14002 24.1527 1.27493 23.9739 1.27484C23.2473 1.28104 22.5233 1.1359 21.7981 1.17203C21.4031 1.19041 21.0392 1.41616 20.6453 1.43208C20.5615 1.43598 20.5753 1.26611 20.5048 1.22019C20.464 1.19328 20.4017 1.22139 20.3571 1.24266C19.7375 1.54272 19.0561 1.75083 18.5155 2.17683C18.3662 2.29539 18.5361 2.57312 18.4515 2.74387C18.3684 2.91816 18.1461 2.9897 18.0431 3.14931C17.9433 3.30157 17.8819 3.47965 17.8553 3.6585C17.841 3.76358 17.9512 3.86527 17.9235 3.96737C17.8841 4.10242 17.7919 4.23752 17.669 4.30325C17.5238 4.37961 17.341 4.39531 17.1813 4.36554C16.2775 4.19636 15.4149 3.80203 14.5024 3.70526C14.2843 3.6818 14.1438 3.99198 13.928 4.02241C13.8459 4.03583 13.8654 3.85971 13.8017 3.80506C13.7293 3.74362 13.6376 3.67948 13.5446 3.69101C13.331 3.71654 13.1265 3.80767 12.9342 3.90422C12.6212 4.0616 12.362 4.32209 12.0367 4.44763C11.7609 4.55407 11.4336 4.47928 11.1592 4.58926C10.9084 4.69214 10.6663 4.85461 10.5024 5.07226C10.4344 5.15943 10.6255 5.32337 10.5463 5.40266C9.91708 6.0152 9.18795 6.51597 8.48141 7.0385C8.36311 7.12681 8.19309 7.13352 8.07615 7.22537C8.00191 7.28043 7.97039 7.3779 7.93234 7.46368C7.85951 7.62789 7.77116 7.79402 7.74458 7.97288C7.73021 8.07796 7.85375 8.18262 7.81271 8.28174C7.73798 8.45683 7.50026 8.5303 7.43532 8.70975C7.37771 8.86604 7.42675 9.04618 7.46899 9.20864C7.52567 9.42443 7.71971 9.60142 7.72879 9.82543C7.73949 10.0326 7.52437 10.207 7.53017 10.4119C7.5357 10.6109 7.88945 10.8177 7.75349 10.9656C7.43726 11.3152 6.93103 11.4455 6.47868 11.5734C6.39816 11.5963 6.41115 11.4085 6.34067 11.3626C6.29985 11.3357 6.23866 11.3613 6.19296 11.385C6.03712 11.4655 5.90904 11.6023 5.74638 11.665C5.40339 11.7974 4.99314 11.7709 4.68065 11.9666C3.6197 12.6341 2.65023 13.4389 1.67502 14.2235C1.34189 14.4922 0.841962 14.7075 0.758083 15.1279C0.512956 16.3478 0.71372 17.613 0.745542 18.8561C0.750256 19.0635 0.787621 19.2766 0.862518 19.4711C0.939861 19.6667 1.07596 19.8356 1.19546 20.0089C1.47176 20.4101 1.701 20.8579 2.05236 21.1956C2.90203 22.0153 3.8012 22.7896 4.77241 23.4609C4.93351 23.5734 5.17473 23.4194 5.36111 23.4815C5.78746 23.6237 6.24347 23.7585 6.57631 24.0587C6.84655 24.3017 6.84783 24.7481 7.07674 25.0315C7.13009 25.0962 7.2519 24.9538 7.32564 24.9923C7.41788 25.042 7.40707 25.1986 7.49252 25.257C7.7143 25.4111 7.95891 25.5401 8.21793 25.6169C8.40159 25.672 8.61863 25.5659 8.7925 25.643C8.96637 25.7201 9.03121 25.9571 9.19747 26.0514C9.66305 26.3166 10.1566 26.5384 10.6643 26.702C10.9334 26.7891 11.2432 26.6919 11.5069 26.7913C12.6774 27.2313 13.7971 27.7925 14.9364 28.3095C15.1029 28.3834 15.2751 28.451 15.4172 28.5668C15.4994 28.6326 15.4864 28.794 15.5841 28.8315C15.7612 28.9012 15.9869 28.7755 16.1575 28.86C16.4103 28.9838 16.5418 29.2886 16.7889 29.4187C17.5748 29.8406 18.4144 30.1544 19.2367 30.5074C19.4032 30.5812 19.57 30.6611 19.7501 30.6911C19.9376 30.7244 20.1413 30.6417 20.3263 30.7003C20.7537 30.84 21.1589 31.0432 21.5415 31.2775C21.6316 31.3321 21.6139 31.4973 21.7084 31.5421C21.8028 31.5869 21.923 31.4613 22.0185 31.5037C22.114 31.5461 22.1026 31.717 22.1981 31.7594C22.2936 31.8017 22.4127 31.6786 22.5082 31.7209C22.6038 31.7633 22.5913 31.9367 22.6879 31.9766C22.7845 32.0165 22.8946 31.907 22.9961 31.9227C23.1738 31.9516 23.3563 32.0091 23.5049 32.1102C23.6633 32.2157 23.7355 32.4295 23.8985 32.5312C24.28 32.7679 24.7025 32.9318 25.1139 33.1143C25.2804 33.1882 25.4483 33.2656 25.6274 33.2981C25.8148 33.3313 26.024 33.2364 26.1989 33.3111C26.3739 33.3857 26.4311 33.6399 26.605 33.717C26.7813 33.7952 26.9981 33.6831 27.1795 33.7431C27.6886 33.9103 28.1811 34.1346 28.6499 34.3924C28.9748 34.5717 29.2019 34.9188 29.5507 35.0442C30.1373 35.2545 30.813 35.1319 31.3879 35.3752M9.63035 25.5248C9.70376 25.4254 9.7382 25.1825 9.85302 25.2276C9.96676 25.2751 9.8651 25.4911 9.78924 25.5894M26.5563 32.5252C26.457 32.4518 26.2143 32.4175 26.2594 32.3025C26.307 32.1887 26.5228 32.2903 26.621 32.3661M36.5681 36.3823C36.4687 36.309 36.2261 36.2746 36.2712 36.1597C36.3187 36.0459 36.5345 36.1475 36.6327 36.2233M35.5382 35.8434C35.6589 35.8618 35.7868 35.851 35.8981 35.8974C35.9348 35.9137 35.9678 36.0046 35.9308 36.0087C35.8092 36.0252 35.6794 35.994 35.5692 35.9452M63.3105 47.8719C63.3839 47.7724 63.4183 47.5296 63.5331 47.5747C63.6469 47.6222 63.5452 47.8381 63.4694 47.9365M37.8803 36.7209C37.7067 36.597 37.4428 36.5445 37.3594 36.3491C37.311 36.2338 37.613 36.3325 37.7324 36.3738C37.9041 36.4294 38.0848 36.4978 38.2119 36.6275C38.2535 36.6724 38.1959 36.7759 38.1379 36.7942M67.2592 49.1247C67.0809 49.031 66.6048 49.0076 66.722 48.8425C66.9034 48.5856 67.3212 48.6478 67.6286 48.6023C67.7668 48.5815 67.9105 48.6012 68.0411 48.6503C68.1472 48.6886 68.4027 48.7931 68.3094 48.8515M21.7116 28.9185C21.6123 28.8451 21.3696 28.8108 21.4147 28.6959C21.4622 28.582 21.678 28.6836 21.7763 28.7594M26.1313 30.5035C26.0249 30.4064 25.9476 30.2636 25.8135 30.2158C25.6342 30.151 25.4117 30.2693 25.2375 30.1862C25.0193 30.0836 24.803 29.9172 24.7087 29.6936C24.5527 29.3252 24.7288 28.8489 24.5235 28.5056C24.426 28.3422 24.1307 28.5191 23.9593 28.4431C23.8613 28.3996 23.8786 28.202 23.7731 28.1757C23.3217 28.0635 22.8345 28.1642 22.3842 28.0495C22.2787 28.0232 22.2922 27.8473 22.2108 27.7731C22.142 27.7103 22.0465 27.668 21.9537 27.6591C21.8501 27.6483 21.7432 27.7505 21.6466 27.7106C21.5511 27.6682 21.5635 27.4948 21.4669 27.4549C21.3703 27.415 21.2602 27.5245 21.1587 27.5088C20.9811 27.4799 20.7996 27.4199 20.6499 27.3213C20.4867 27.2137 20.4259 26.9608 20.2395 26.8987C19.6366 26.6987 18.9704 26.7405 18.3634 26.5563C18.2551 26.523 18.2833 26.3008 18.1742 26.2759C17.8009 26.1925 17.4032 26.3358 17.0313 26.2559C16.9271 26.2331 16.9455 26.033 16.8476 25.9896C16.7521 25.9472 16.6441 26.0518 16.5405 26.0411C16.4428 26.03 16.3416 25.9939 16.2713 25.9276C15.5902 25.3028 14.8973 24.6845 14.2955 23.9864C14.1575 23.8284 14.1052 23.6028 14.0871 23.3925C14.0754 23.2406 14.2143 23.1057 14.2085 22.9536C14.1954 22.6925 13.8535 22.3796 14.0319 22.1889C14.6777 21.4928 15.661 21.1986 16.3974 20.5955C16.4796 20.5293 16.2983 20.3697 16.3592 20.2852C16.418 20.2057 16.5608 20.2866 16.6489 20.2465C16.8875 20.1382 17.1529 20.0419 17.3237 19.8419C17.393 19.7583 17.2455 19.6283 17.2683 19.524C17.3055 19.3411 17.3775 19.1589 17.4931 19.0107C17.8183 18.5948 18.1451 18.1619 18.5737 17.8563C18.8386 17.6688 19.2363 17.7631 19.504 17.5826C19.6168 17.5066 19.5961 17.3155 19.5848 17.1756C19.5706 16.9963 19.4062 16.8383 19.4317 16.6619C19.445 16.5593 19.645 16.5776 19.6874 16.482C19.7298 16.3864 19.582 16.2505 19.6492 16.1717C19.7549 16.0456 19.9467 15.9371 20.1058 15.9813C20.3755 16.0539 20.5103 16.4041 20.7788 16.4792C20.9404 16.5245 21.1262 16.4163 21.2456 16.2991C21.4109 16.1378 21.3629 15.7704 21.5813 15.6942C22.208 15.4706 22.8973 15.4626 23.5611 15.4725C23.6656 15.4748 23.6442 15.6883 23.7408 15.7282C23.8374 15.7681 23.9483 15.6501 24.049 15.6742C24.3678 15.7482 24.6452 16.0149 24.9724 16.0105C25.217 16.0075 25.3801 15.7191 25.6173 15.6601C25.9043 15.5879 26.2487 15.7759 26.5033 15.6249C26.716 15.5022 26.7608 15.1964 26.8254 14.9582C26.8743 14.7687 26.7844 14.5617 26.8357 14.3733C26.9102 14.113 27.0355 13.8635 27.1959 13.6472C27.2954 13.5154 27.4431 13.4137 27.5987 13.3536C27.8897 13.2393 28.1957 13.1375 28.5094 13.1241C29.3423 13.0829 30.1759 13.133 31.0073 13.1879C31.1036 13.1954 31.1994 13.2438 31.2707 13.3077C31.391 13.4197 31.4979 13.5551 31.5649 13.708C31.6948 14.0032 31.6694 14.3644 31.8496 14.6321C31.9076 14.7194 32.0925 14.514 32.1597 14.5937C32.3824 14.8713 32.4076 15.2638 32.6 15.5633C32.6504 15.6414 32.7669 15.6959 32.8572 15.6773C33.1436 15.6196 33.4444 15.536 33.6674 15.3504C33.7471 15.2831 33.6075 15.142 33.6292 15.0402C33.639 14.9917 33.7051 14.9682 33.7538 14.9576C34.1637 14.8461 34.6006 14.8257 34.9977 14.6705C35.4125 14.5083 35.7886 14.2616 36.1601 14.0187C36.5433 13.7693 36.8255 13.3313 37.2621 13.1994C37.7909 13.038 38.4019 12.9951 38.9202 13.181C39.4469 13.3678 39.7388 13.9519 40.2107 14.2491C40.3021 14.3073 40.4304 14.1501 40.5319 14.1922C40.7058 14.2693 40.7677 14.5725 40.9595 14.5696C41.4486 14.5636 41.9281 14.3745 42.372 14.1666C42.4471 14.1295 42.2735 13.9792 42.333 13.9176C42.4488 13.8018 42.6297 13.7178 42.7916 13.7426C42.8762 13.7567 42.7808 13.9256 42.8331 13.9927C43.0957 14.3322 43.3714 14.6686 43.7122 14.9312C43.9299 15.1011 44.1949 15.2304 44.471 15.2619C44.6351 15.2819 44.8404 15.2087 44.9288 15.069C45.0117 14.9415 44.976 14.738 44.8875 14.6137C44.5268 14.0988 44.1009 13.6253 43.6274 13.2129C43.3775 12.9965 42.9836 12.986 42.7474 12.7522C42.5903 12.5975 42.6895 12.2748 42.5243 12.1253C42.2815 11.9062 41.9371 11.8238 41.6212 11.7365C41.5192 11.7088 41.4096 11.8303 41.313 11.7904C41.2164 11.7505 41.2378 11.5371 41.1334 11.5347C40.5106 11.5313 39.9008 11.7829 39.2779 11.7734C39.1699 11.7725 39.1847 11.5738 39.1058 11.5006C39.0345 11.4367 38.9382 11.3764 38.8424 11.3809C37.9183 11.4226 37.0076 11.6258 36.0832 11.6352C35.1433 11.6465 34.1968 11.5934 33.2667 11.4506C33.1568 11.4341 33.1866 11.1951 33.0767 11.1786C32.7154 11.121 32.3427 11.1815 31.9836 11.2511C31.7649 11.2948 31.5909 11.5286 31.367 11.5114C31.1118 11.492 30.6025 11.3981 30.6887 11.1577C30.793 10.8696 31.3277 11.0979 31.5798 10.9194C31.6983 10.8371 31.6613 10.63 31.6321 10.4909C31.5803 10.2509 31.4703 10.0232 31.3443 9.81183C31.3157 9.76395 31.2406 9.72184 31.19 9.7434C30.8315 9.90409 30.5446 10.2139 30.1725 10.3392C30.0934 10.3657 30.1039 10.1768 30.0345 10.1284C30.001 10.1047 29.9227 10.1228 29.9162 10.1639C29.8956 10.3689 30.17 10.7281 29.9709 10.7806C29.3722 10.9345 28.7414 10.599 28.1261 10.6252C27.6892 10.6455 27.2542 10.7606 26.844 10.9189C26.488 11.0542 26.2104 11.3564 25.8568 11.4929C25.5987 11.5925 25.2942 11.519 25.0336 11.6176C24.7967 11.709 24.6625 12.0513 24.4106 12.051C23.5387 12.0543 22.6928 11.7612 21.8314 11.6285C21.7408 11.6147 21.6475 11.5938 21.561 11.6171C21.3679 11.6693 21.2034 11.8749 21.0042 11.8482C20.8353 11.8261 20.7922 11.5664 20.6398 11.4871C20.5157 11.4233 20.3601 11.4041 20.2263 11.4415C19.7016 11.5872 19.197 11.8062 18.7023 12.0297C18.1852 12.2638 17.6633 12.4957 17.1933 12.8152C16.756 13.1139 16.4232 13.5471 16.0039 13.8714C15.9296 13.9265 15.8035 13.9995 15.7324 13.9416C15.5514 13.788 15.4151 13.5604 15.366 13.3274C15.3491 13.2466 15.5259 13.2576 15.5743 13.1881C15.5958 13.1595 15.5718 13.0814 15.5348 13.0855C15.3079 13.1081 15.0983 13.2703 14.8711 13.2604C14.7881 13.2559 14.8163 13.0601 14.7306 13.0485C14.5448 13.0248 14.3705 13.1733 14.1855 13.1675C14.1303 13.1665 14.1468 13.0301 14.093 13.0326C13.8645 13.0456 13.6583 13.2328 13.4293 13.2075C13.3232 13.1956 13.3516 12.9531 13.2444 12.9436C12.9011 12.9116 12.5687 13.0927 12.2235 13.0979C11.5967 13.1103 10.8362 13.3977 10.348 13.0052C9.90961 12.6523 10.0984 11.9031 10.0475 11.3437C10.0382 11.2458 10.0787 11.1083 10.1698 11.0812C10.3415 11.0312 10.5262 11.1895 10.7009 11.1525C10.9277 11.1036 11.0846 10.8359 11.3161 10.8359C11.4361 10.8363 11.3799 11.1282 11.4996 11.149C11.9817 11.225 12.4855 11.1991 12.9618 11.0966C13.0426 11.0796 12.8845 10.9274 12.9108 10.8481C12.9475 10.7324 13.044 10.4819 13.1351 10.5605C13.3311 10.7266 13.2366 11.0982 13.42 11.2793C13.5229 11.3777 13.7108 11.2118 13.8482 11.2522C13.9869 11.2961 14.0531 11.4839 14.1962 11.518C14.7107 11.6465 15.2401 11.7083 15.7704 11.7352C15.9135 11.743 16.0453 11.5844 16.1849 11.6199C16.288 11.6451 16.2674 11.8237 16.3542 11.8857C16.5031 11.9928 16.6876 12.1714 16.8563 12.1084C17.0543 12.0319 17.1768 11.7754 17.1923 11.5623C17.2074 11.3431 16.7187 10.9914 16.9376 10.9536C17.6947 10.826 18.4563 11.1902 19.2251 11.2145C19.3812 11.2192 19.5382 11.1363 19.6646 11.0428C19.7332 10.994 19.7742 10.8949 19.7679 10.81C19.7578 10.694 19.7292 10.5405 19.6249 10.4914C19.4176 10.3906 18.9969 10.6322 18.9375 10.4094C18.7862 9.83192 19.1062 9.22297 19.1364 8.6263C19.1426 8.5264 18.9616 8.3992 19.0454 8.3425C19.2929 8.16777 19.7932 8.35452 19.9172 8.07512C20.0541 7.76631 19.452 7.42588 19.5889 7.11708C19.7107 6.84258 20.2318 7.06197 20.4515 6.85733C20.715 6.61344 20.8125 6.22846 20.9203 5.88621C20.9779 5.70351 20.8315 5.46549 20.9467 5.31131C21.0821 5.12499 21.3844 5.15053 21.565 5.00772C21.683 4.91342 21.6829 4.7022 21.8124 4.62177C21.9652 4.52825 22.1622 4.53349 22.342 4.53112C23.3787 4.5129 24.4231 4.42471 25.4525 4.56165C25.9028 4.62351 26.3498 4.82474 26.6979 5.11699C26.9099 5.29315 26.8663 5.64922 27.0206 5.87607C27.2226 6.17391 27.4599 6.4581 27.7525 6.66412C27.8417 6.72718 27.9693 6.60483 28.0756 6.62268C28.1143 6.62809 28.1374 6.68822 28.1246 6.72362C28.0891 6.83689 28.032 6.95235 27.9458 7.03437C27.7584 7.21231 27.377 7.23965 27.3178 7.49204C27.2638 7.72618 27.497 7.97335 27.6998 8.10434C27.8432 8.19728 28.0564 8.13935 28.2066 8.06516C28.6194 7.86113 29.0146 7.61113 29.3442 7.29096C29.444 7.19151 29.436 7.01785 29.4248 6.87796C29.398 6.50236 29.1968 6.14328 29.2336 5.76953C29.245 5.65138 29.4343 5.62097 29.5538 5.60942C29.6373 5.59953 29.7505 5.63507 29.7864 5.71261C29.9933 6.17104 29.85 6.83778 30.2446 7.15067C30.5061 7.36053 30.8655 6.85415 31.1982 6.83747C31.3024 6.83383 31.2886 7.03009 31.3662 7.09969C31.4375 7.16358 31.5314 7.22282 31.6233 7.21374C31.7882 7.19887 31.9745 7.1554 32.0901 7.03361C32.185 6.93199 32.2012 6.76322 32.171 6.62661C32.0772 6.20372 31.8238 5.83026 31.7325 5.40846C31.7126 5.31457 31.7811 5.21297 31.846 5.13914C32.087 4.87351 32.3151 4.56407 32.6393 4.41457C33.873 3.85312 35.1618 3.41872 36.4636 3.03413C36.5441 3.01118 36.5176 3.24285 36.6016 3.24494C36.831 3.24987 37.0344 3.08199 37.2634 3.05453C37.3565 3.043 37.4441 3.09654 37.5298 3.13455C38.3502 3.49844 39.2273 3.76727 39.9803 4.25671C40.5082 4.59939 41.0342 5.03217 41.3169 5.59749C41.511 5.98571 41.2226 6.47078 41.3057 6.89776C41.3559 7.15466 41.52 7.38585 41.698 7.5792C41.8015 7.6896 41.9601 7.80103 42.1075 7.77257C42.3668 7.72331 42.6831 7.61138 42.7883 7.36766C43.0166 6.85298 42.9712 6.25503 43.0221 5.691C43.0465 5.43783 43.0561 5.17815 43.0111 4.92942C42.9757 4.73184 42.7705 4.57337 42.7805 4.37248C42.7856 4.27503 42.9504 4.26016 43.0476 4.25924C43.1303 4.25779 43.2337 4.28899 43.2778 4.36135C43.5857 4.84988 43.9178 5.34329 44.0788 5.89867C44.2273 6.41622 44.0344 6.99646 44.1877 7.51619C44.2292 7.66068 44.4539 7.66943 44.6024 7.69132C44.7063 7.70809 44.8121 7.58196 44.9076 7.62432C45.0826 7.69899 45.1624 7.92211 45.3352 8.00168C45.4307 8.04404 45.5509 7.91844 45.6453 7.96325C45.7408 8.00561 45.7357 8.15587 45.8132 8.22547C45.8845 8.28936 45.9784 8.3486 46.0704 8.33952C46.2352 8.32465 46.4014 8.26051 46.5371 8.15939C46.6124 8.10188 46.6758 7.99212 46.6513 7.90205C46.5698 7.5902 46.2362 7.35129 46.2347 7.03093C46.2329 6.70457 46.384 6.3375 46.6448 6.13935C47.267 5.66155 47.9861 5.25606 48.7551 5.10147C49.473 4.95647 50.2239 5.13996 50.9449 5.27204C51.2134 5.32076 51.4955 5.43125 51.6787 5.63276C52.2154 6.21986 52.6415 6.90452 53.0517 7.58512C53.2584 7.93195 53.2882 8.37341 53.5275 8.69952C53.5901 8.78302 53.7369 8.63697 53.8376 8.66109C53.8909 8.67301 53.9157 8.74267 53.9277 8.79491C53.9896 9.07167 53.9777 9.36266 54.0562 9.63504C54.1505 9.96429 54.2222 10.3246 54.4429 10.5868C54.6002 10.7739 54.8666 10.8539 55.1046 10.892C55.2521 10.9164 55.4071 10.6859 55.5331 10.7653C55.6824 10.8579 55.5811 11.1327 55.6976 11.2665C56.181 11.8153 56.6948 12.3482 57.2935 12.7692C57.4497 12.8796 57.6888 12.7304 57.867 12.7978C57.9646 12.8352 57.9623 12.9925 58.0466 13.0534C58.0864 13.0828 58.1484 13.0487 58.1943 13.031C58.3015 12.9876 58.4473 12.976 58.5063 12.876C58.5585 12.7848 58.4257 12.6614 58.4681 12.5658C58.5105 12.4702 58.6764 12.4793 58.7237 12.3859C58.7623 12.3121 58.611 12.1775 58.6847 12.1369C59.0467 11.9484 59.4545 11.8418 59.8587 11.7894C60.2795 11.7326 60.7113 11.8626 61.1327 11.8178C61.3332 11.7952 61.4882 11.5912 61.6895 11.5866C61.7746 11.5863 61.7521 11.7493 61.8182 11.8051C61.8882 11.8654 61.9823 11.9042 62.0754 11.9191C62.265 11.9475 62.4668 11.8757 62.6505 11.9308C62.996 12.0371 63.3421 12.1818 63.6317 12.4012C63.9672 12.6556 64.4396 12.9121 64.4912 13.3309C64.525 13.5982 63.9806 13.5503 63.7966 13.7473C63.7027 13.8465 63.7009 14.0158 63.7157 14.1543C63.7293 14.2689 63.7694 14.4098 63.8714 14.4639C64.0115 14.5378 64.2443 14.3565 64.3423 14.4792C64.5421 14.7291 64.4617 15.1217 64.6197 15.4C64.694 15.5297 64.9236 15.5143 65.0003 15.6451C65.1033 15.8227 65.0895 16.0454 65.1181 16.2517C65.1525 16.5045 65.2987 16.7894 65.1832 17.0168C65.0432 17.2861 64.6455 17.3238 64.4462 17.5551C64.289 17.7376 64.1305 17.9694 64.144 18.21C64.1607 18.4697 64.3284 18.7259 64.5289 18.8882C64.8117 19.1163 65.1681 19.2773 65.5292 19.3289C65.7574 19.3627 65.9611 19.148 66.1904 19.1266C66.2848 19.1186 66.3798 19.1754 66.4475 19.2406C66.524 19.3127 66.5287 19.4409 66.6027 19.5118C66.7143 19.6171 66.8974 19.6337 66.9894 19.7567C67.1059 19.9169 66.9986 20.3503 67.195 20.3172C67.5857 20.2558 67.7974 19.7983 68.1218 19.5756C68.1928 19.5279 68.2902 19.4801 68.3674 19.5173C68.4643 19.5632 68.4478 19.7524 68.5537 19.7847C69.1702 19.9673 69.8315 19.9497 70.4459 20.1371C70.5152 20.1591 70.4108 20.2888 70.3515 20.33C70.2028 20.4341 70.0042 20.4457 69.8579 20.5509C69.7836 20.606 69.7423 20.6991 69.7165 20.7903C69.6782 20.9229 69.6464 21.0672 69.6707 21.2041C69.7024 21.3971 69.7074 21.6633 69.8804 21.7488C70.0633 21.8387 70.2705 21.5963 70.4756 21.5963C70.6244 21.5978 70.7594 21.6899 70.893 21.7521C71.0595 21.826 71.2524 21.8734 71.3713 22.0083C71.4802 22.1329 71.5616 22.3127 71.5356 22.4771C71.5188 22.5811 71.3245 22.5566 71.2699 22.6467C71.0826 22.9567 70.8515 23.2794 70.8296 23.6393C70.8118 23.9306 70.9868 24.2165 71.1583 24.4509C71.2032 24.5148 71.3892 24.3334 71.3879 24.409C71.3858 25.1736 71.3252 25.9445 71.1506 26.6883C71.1052 26.8765 70.8615 26.9502 70.756 27.1087C70.6538 27.2599 70.4914 27.4343 70.5356 27.6122C70.565 27.7309 70.8454 27.5678 70.8985 27.6794C70.9791 27.8412 70.7798 28.0461 70.8332 28.2165C70.9863 28.7038 71.2305 29.1641 71.5 29.6004C71.5493 29.6809 71.6698 29.7461 71.7572 29.7145C72.0724 29.605 72.3158 29.3404 72.6228 29.2097C72.9628 29.0643 73.3148 28.8919 73.6864 28.8866C73.925 28.8839 74.1813 29.0064 74.3348 29.1889C74.5667 29.459 74.5642 29.8743 74.774 30.161C74.8238 30.2271 74.9859 30.0467 75.0229 30.1218C75.2849 30.6809 75.5289 31.2672 75.5846 31.8815C75.6082 32.1588 75.4189 32.4269 75.2466 32.6437C74.8249 33.1782 74.3523 33.6754 73.8239 34.1069C73.7638 34.1565 73.765 33.9488 73.6984 33.9075C73.6576 33.8806 73.5966 33.9122 73.5507 33.9299C73.2041 34.0637 72.7213 34.0489 72.5233 34.363C72.314 34.6895 72.4573 35.1461 72.5369 35.5217C72.6271 35.9459 72.8137 36.3513 73.0265 36.7302C73.0747 36.8132 73.1936 36.8425 73.2913 36.8535C73.648 36.8886 74.0076 36.8838 74.3651 36.8576C74.7081 36.8308 75.0437 36.6424 75.383 36.6902C75.7475 36.7405 76.1007 36.9089 76.3894 37.1367C76.6768 37.3609 76.9482 37.6543 77.0566 38.0045C77.2522 38.6339 77.2843 39.3081 77.2737 39.9663C77.273 40.1067 77.146 40.241 77.0206 40.3057C76.512 40.567 75.9647 40.7436 75.4223 40.9225C75.316 40.9574 75.1859 40.8939 75.0861 40.9405C74.8008 41.075 74.5961 41.3714 74.293 41.4599C73.9095 41.5713 73.4739 41.384 73.0974 41.5191C72.656 41.6753 72.2793 41.9892 71.9313 42.2982C71.8402 42.3781 71.8204 42.5218 71.8259 42.6416C71.8376 42.8726 71.8715 43.1135 71.9815 43.3148C72.0221 43.3885 72.1453 43.3816 72.2288 43.3717C72.4592 43.3478 72.704 43.3244 72.9116 43.2199C73.0136 43.1684 72.9991 42.983 73.1011 42.9315C73.2838 42.8366 73.5015 42.8481 73.7049 42.8122C73.9965 42.7626 74.2849 42.694 74.5803 42.6755C75.1102 42.6436 75.6416 42.6945 76.1701 42.6591C76.3244 42.6483 76.5049 42.4263 76.6143 42.5364C76.7928 42.7154 76.8822 43.0424 76.7825 43.2739C76.7042 43.4504 76.4167 43.4577 76.2257 43.4258C76.1168 43.4069 76.1475 43.1594 76.0357 43.1538C75.6749 43.1346 75.2538 43.1326 74.9726 43.3569C74.6903 43.5837 74.5482 43.9899 74.5323 44.3495C74.521 44.6524 74.6414 45.0285 74.9048 45.1747C75.2999 45.3939 75.8137 45.1936 76.2529 45.3004C76.3767 45.3318 76.398 45.5613 76.5267 45.5685C76.7383 45.5802 76.9505 45.472 77.1262 45.3534C77.2401 45.2749 77.3192 45.1428 77.3599 45.0112C77.3901 44.9102 77.2633 44.7865 77.3217 44.701C77.3701 44.6315 77.5342 44.6251 77.5736 44.7013C77.6978 44.9499 77.5122 45.3486 77.7334 45.5171C77.9473 45.6824 78.2712 45.4213 78.5408 45.4412C78.5974 45.4457 78.6216 45.5298 78.635 45.5856C78.6955 45.8588 78.6611 46.1545 78.7618 46.4162C78.8558 46.6603 79.0869 46.8331 79.2056 47.0676C79.3019 47.26 79.4217 47.4656 79.4063 47.6788C79.3979 47.7836 79.198 47.7653 79.1507 47.8587C79.1121 47.9325 79.2634 48.0671 79.1897 48.1077C78.8266 48.2986 78.4221 48.4242 78.0122 48.4565C77.2078 48.5191 76.3915 48.2979 75.5872 48.3869C75.3342 48.4155 75.2002 48.7901 74.945 48.7972C74.7941 48.8006 74.8614 48.4111 74.7115 48.412C74.4381 48.4139 74.2617 48.7786 73.9894 48.8045C73.846 48.8171 73.7934 48.5856 73.6701 48.5133C73.5137 48.4233 73.3406 48.3378 73.1613 48.3257C73.0158 48.3169 72.8902 48.4548 72.7427 48.4568C72.1279 48.4686 71.5182 48.3565 70.902 48.3648C70.7486 48.3671 70.5787 48.5851 70.4568 48.4899C70.2426 48.3187 70.2756 47.9667 70.1237 47.7409C69.9373 47.4676 69.5988 47.3057 69.446 47.0092C69.2892 46.702 69.3989 46.2961 69.2269 45.9968C69.1566 45.8777 68.9569 45.8918 68.8201 45.9162C68.5179 45.9698 68.2609 46.199 67.956 46.2192C67.8316 46.2286 67.6431 46.1185 67.6566 45.9955C67.6791 45.806 67.9544 45.7404 68.0316 45.5664C68.074 45.4708 67.9237 45.3338 67.9934 45.2561C68.1511 45.0856 68.5284 45.1532 68.6108 44.9346C68.7488 44.5705 68.5296 44.1595 68.5526 43.7708C68.5869 43.2111 68.6245 42.6441 68.7845 42.105C68.8418 41.9163 69.15 41.8623 69.1806 41.6677C69.2539 41.1722 69.0377 40.6686 69.0712 40.1702C69.0769 40.0847 69.3073 40.1136 69.289 40.0293C69.2435 39.795 69.1014 39.5735 68.9226 39.415C68.8575 39.3569 68.7398 39.4307 68.6664 39.4774C68.4219 39.6388 68.2522 39.9155 67.9816 40.0301C67.9087 40.0623 67.9328 39.8295 67.8523 39.8261C67.6888 39.8181 67.5008 39.8784 67.3926 40.0035C67.3254 40.0822 67.4757 40.2192 67.4308 40.3137C67.3884 40.4093 67.2358 40.4032 67.1686 40.4819C67.1047 40.5533 67.0634 40.6464 67.0545 40.7393C67.0437 40.843 67.1408 40.9477 67.1058 41.0465C67.0781 41.1222 66.8898 41.0974 66.8996 41.1809C66.9234 41.3851 67.2224 41.5236 67.1836 41.7234C67.1475 41.9039 66.8425 41.8977 66.7281 42.0434C66.6125 42.1916 66.5506 42.3841 66.5267 42.57C66.4831 42.9261 66.4925 43.2881 66.5245 43.6455C66.5318 43.7279 66.57 43.827 66.6437 43.8655C66.7126 43.9019 66.8637 43.7461 66.8757 43.8248C66.9393 44.2166 66.8908 44.6233 66.8273 45.0175C66.7974 45.2038 66.7309 45.4001 66.5979 45.5347C66.2678 45.8693 65.8971 46.1829 65.4723 46.3875C65.2117 46.5125 64.8951 46.5392 64.6111 46.4924C64.5047 46.4745 64.5236 46.2864 64.4401 46.2171C64.3005 46.1024 64.1247 46.0362 63.9593 45.9599C63.229 45.6242 62.5093 45.258 61.7542 44.9847C61.5749 44.9198 61.3568 45.0284 61.1797 44.9586C61.082 44.9212 61.0925 44.7586 61.0128 44.6939C60.8721 44.5817 60.6974 44.513 60.5309 44.4391C60.3644 44.3653 60.1987 44.283 60.0185 44.2529C59.9146 44.2362 59.8069 44.3468 59.7104 44.3069C59.6138 44.267 59.6273 44.0911 59.5307 44.0512C59.4352 44.0088 59.3261 44.1159 59.2236 44.1027C59.1284 44.0927 59.0353 44.0515 58.9664 43.9886C58.8889 43.919 58.8962 43.7639 58.7985 43.7264C58.6189 43.6556 58.401 43.7701 58.2239 43.7003C56.8118 43.1444 55.4439 42.4819 54.0587 41.8587C53.7305 41.7131 53.391 41.5801 53.0881 41.3842C52.9991 41.3271 53.0156 41.1643 52.9212 41.1195C52.8268 41.0747 52.7066 41.2003 52.6111 41.1579C52.5156 41.1155 52.5281 40.9421 52.4315 40.9022C52.336 40.8599 52.2269 40.967 52.1244 40.9537C52.0291 40.9438 51.9361 40.9025 51.8672 40.8397C51.7897 40.7701 51.7948 40.6198 51.6993 40.5775C51.6037 40.5351 51.4947 40.6422 51.3921 40.6289C51.2969 40.619 51.2039 40.5777 51.135 40.5149C51.0575 40.4453 51.0615 40.2975 50.967 40.2527C50.8715 40.2103 50.7514 40.3359 50.6569 40.2911C50.5625 40.2463 50.5766 40.0824 50.4901 40.0264C50.1872 39.8305 49.8501 39.6986 49.5195 39.5519C49.2721 39.4422 49.0254 39.3181 48.7612 39.2596C48.6594 39.2379 48.5485 39.3559 48.453 39.3135C48.3575 39.2711 48.3805 39.0936 48.285 39.0513C48.1111 38.9742 47.8922 39.0648 47.7183 38.9876C47.6228 38.9453 47.629 38.7926 47.5504 38.7254C47.4791 38.6615 47.386 38.6202 47.2932 38.6114C47.1885 38.603 47.0822 38.7172 46.9856 38.6773C46.8106 38.6026 46.7319 38.377 46.558 38.2999C46.4625 38.2576 46.3535 38.3646 46.2509 38.3514C46.1557 38.3414 46.0673 38.2963 45.9938 38.2374C45.8444 38.1183 45.7722 37.9044 45.5994 37.8249C45.4255 37.7477 45.2042 37.8636 45.0259 37.7963C44.9283 37.7589 44.9429 37.5806 44.8463 37.5406C44.7459 37.4961 44.6145 37.6402 44.5231 37.5821C43.9783 37.2378 43.5521 36.7319 43.0141 36.3789C42.7172 36.1827 42.3798 36.0448 42.037 35.9455C41.8523 35.8929 41.6478 35.984 41.4608 35.9363C41.195 35.8683 40.9243 35.7717 40.7055 35.6042C40.416 35.3849 40.2999 34.9462 39.9668 34.7985C39.8028 34.7257 39.6664 35.1257 39.4958 35.0676C39.3252 35.0095 39.3955 34.7122 39.2869 34.5673C39.2333 34.4966 39.0959 34.5354 39.0387 34.466C38.929 34.3235 38.9657 34.0758 38.8182 33.9722C38.3781 33.6626 37.881 33.4157 37.3581 33.2864C36.0187 32.9563 34.6209 32.9229 33.281 32.6072C33.093 32.5619 33.0235 32.3023 32.8483 32.2217C32.7528 32.1793 32.6326 32.3049 32.5382 32.2601C32.4378 32.2156 32.4564 32.0215 32.352 31.9927C31.8222 31.8458 31.2504 31.906 30.7207 31.759C30.6162 31.7302 30.6349 31.5361 30.5345 31.4916C30.439 31.4492 30.3199 31.5724 30.2244 31.53C30.1264 31.4866 30.147 31.2816 30.0406 31.2637C29.3866 31.1526 28.7074 31.2766 28.0544 31.1629C27.9431 31.1429 27.9721 30.9123 27.8641 30.8849C27.4152 30.7738 26.9324 30.8647 26.4794 30.7693M6.59265 20.9628C6.57465 20.858 6.47041 20.7296 6.53621 20.6474C6.64198 20.5212 6.84759 20.4012 6.99942 20.4686C7.11206 20.5186 7.01339 20.7212 6.97563 20.8393C6.91994 21.0111 6.85146 21.1919 6.7193 21.3181C6.67443 21.3598 6.57212 21.2997 6.55278 21.2442M8.30104 21.5182C8.19927 21.4437 7.99686 21.4243 7.99463 21.2972C7.98774 21.0947 8.08904 20.6879 8.27596 20.762C8.49609 20.8538 8.39804 21.2268 8.40658 21.4653M4.22658 19.4586C4.13514 19.3741 3.82768 19.2348 3.9509 19.2014C4.15355 19.1476 4.37938 19.2595 4.55844 19.3712C4.60905 19.4024 4.54136 19.522 4.48451 19.5378M75.8633 50.9027C75.2853 50.6464 74.659 50.4859 74.1287 50.1421C73.9902 50.0514 73.9444 49.8375 73.9644 49.6733C73.9747 49.584 74.1105 49.5621 74.1986 49.5484C74.5332 49.4945 74.8806 49.5371 75.2147 49.4711C75.4108 49.432 75.569 49.247 75.7714 49.24C75.8552 49.2361 75.8395 49.4961 75.9119 49.4519C76.0367 49.3753 75.9346 49.0572 76.0817 49.0492C76.2708 49.0392 76.3365 49.347 76.5079 49.423C76.6034 49.4654 76.7144 49.3474 76.8161 49.3691C76.9954 49.4075 77.1899 49.4645 77.3171 49.5942C77.3674 49.6458 77.2861 49.7564 77.2241 49.7905C76.8436 49.9942 76.3572 50.0073 76.0257 50.2855C75.8802 50.4087 76.0109 50.6691 75.9631 50.8561M72.6806 49.4822C72.6267 49.3791 72.5385 49.2872 72.5199 49.1704C72.5107 49.0989 72.5286 48.966 72.5996 48.9711C72.7223 48.9786 72.8812 49.0696 72.9 49.1924M70.9637 48.926C70.9088 48.9046 70.7896 48.9221 70.7978 48.8641C70.8187 48.7443 70.9097 48.5325 71.0232 48.574M5.33632 19.6194C5.23699 19.546 4.99432 19.5117 5.03943 19.3968C5.08699 19.283 5.30275 19.3846 5.40099 19.4604M7.88853 20.6577C7.83357 20.6362 7.71442 20.6537 7.72255 20.5958C7.74345 20.476 7.8345 20.2641 7.94796 20.3056M6.77491 19.6797C6.59668 19.586 6.16495 19.5881 6.23777 19.3975C6.32119 19.1764 6.69802 19.2585 6.93415 19.2547C7.03127 19.2538 7.15178 19.2926 7.19535 19.3793C7.22829 19.4438 7.16033 19.531 7.10104 19.5722M7.52953 19.6302C7.49793 19.5165 7.42933 19.4069 7.43227 19.2879C7.43171 19.2495 7.49997 19.2212 7.5367 19.2375C7.64935 19.2874 7.81831 19.336 7.83713 19.4587C7.85351 19.5803 7.717 19.6899 7.61175 19.7488M4.30377 18.0029C4.20308 17.926 4.01699 17.8962 4.00388 17.7672C3.99186 17.6621 4.22065 17.6815 4.2606 17.5848C4.303 17.4893 4.19848 17.3813 4.20932 17.2776C4.21826 17.1848 4.26066 17.0892 4.32347 17.0202C4.37948 16.96 4.45971 16.9047 4.54051 16.9141C5.42905 17.012 6.29941 17.2368 7.18821 17.3406C7.67057 17.3962 8.16972 17.295 8.64883 17.3843C8.75412 17.4046 8.73571 17.6047 8.83258 17.6506C8.92808 17.693 9.0423 17.594 9.14514 17.6133C9.18269 17.6211 9.21808 17.6867 9.19416 17.7142C9.07534 17.8697 8.95517 18.0745 8.76395 18.1158C8.63338 18.1459 8.56906 17.8681 8.43413 17.8816C8.0367 17.9252 7.6954 18.1991 7.30179 18.2739C6.91416 18.3483 6.51291 18.361 6.11898 18.3241M44.2079 35.3129C44.2988 35.2799 44.3877 35.2049 44.4829 35.2149C45.2346 35.2843 45.9727 35.4768 46.7269 35.5473C47.2642 35.598 47.8134 35.4896 48.3453 35.5789C48.4541 35.5978 48.4253 35.8344 48.5353 35.8509C49.1868 35.961 49.8599 35.8841 50.5199 35.9422C50.6632 35.9559 50.8039 36.121 50.9369 36.0656C51.2535 35.9332 51.5715 35.7252 51.7414 35.4281C51.8246 35.2802 51.6705 35.0857 51.573 34.9487C51.5167 34.8709 51.406 34.8364 51.3097 34.8289C50.5348 34.7521 49.7514 34.7742 48.9763 34.6914C47.5431 34.5397 46.1248 34.2684 44.6895 34.1215C44.6027 34.1124 44.5154 34.1704 44.4558 34.232C44.3906 34.2999 44.3506 34.3965 44.3417 34.4894C44.3333 34.5942 44.4158 34.6923 44.4049 34.7961C44.396 34.8889 44.3816 35.0468 44.2883 35.0523C44.1665 35.0628 44.119 34.813 43.995 34.8283C43.8745 34.8423 43.7532 34.9968 43.7696 35.1184C43.7873 35.2436 43.9552 35.2946 44.0714 35.3432M31.6502 29.7955C32.2912 29.8305 32.9405 29.7871 33.5695 29.9019C33.6759 29.9197 33.6616 30.104 33.744 30.1758C33.8153 30.2397 33.9103 30.2965 34.0074 30.2955C34.5088 30.295 35.0038 30.1304 35.5036 30.1731C35.6108 30.1825 35.5829 30.4107 35.6884 30.437C35.8256 30.4714 35.9596 30.3079 36.0994 30.323C36.973 30.4084 37.8254 30.634 38.696 30.7327C39.1784 30.7883 39.6661 30.8316 40.1474 30.784C40.4172 30.7571 40.6475 30.5483 40.9196 30.5165C41.0686 30.4975 41.2086 30.671 41.3557 30.6366C41.8413 30.5264 42.3333 30.3751 42.7527 30.1036C43.2757 29.7636 43.7113 29.2969 44.1254 28.8324C44.2486 28.6934 44.3407 28.5055 44.3491 28.3215C44.3558 28.1544 44.2875 27.9715 44.168 27.8511C44.0384 27.7203 43.8452 27.6669 43.666 27.6284C43.5884 27.6116 43.4889 27.6378 43.4339 27.6956C43.016 28.1555 42.7891 28.8057 42.2738 29.1549C41.8141 29.4643 41.2162 29.5042 40.6672 29.5657C40.0168 29.638 39.356 29.6147 38.7042 29.5514C36.6706 29.3592 34.6334 29.1419 32.6183 28.8024C32.2581 28.7423 31.8984 28.5886 31.6189 28.3532C31.4417 28.2042 31.4862 27.8925 31.3261 27.7248C31.2012 27.5901 30.9808 27.4132 30.8231 27.5045C30.6397 27.6139 30.7601 27.9371 30.6571 28.1231C30.6049 28.2144 30.4569 28.2044 30.3848 28.281C30.322 28.3499 30.2881 28.4463 30.2707 28.5383C30.2612 28.5928 30.268 28.6633 30.307 28.7011M8.02585 19.2579C8.7431 18.9689 9.41121 18.2886 10.1787 18.3885C10.5577 18.4392 10.4258 19.3047 10.1221 19.5336C9.7057 19.8446 9.07964 19.6637 8.56681 19.5976M75.5305 48.9836C75.549 48.8627 75.4847 48.6905 75.5848 48.6234C75.6871 48.5515 75.8636 48.6093 75.9515 48.6952C76.003 48.7444 75.9179 48.8504 75.8597 48.8891M77.4649 49.2609C77.3656 49.1875 77.1229 49.1532 77.168 49.0382C77.2156 48.9244 77.4313 49.026 77.5296 49.1018M13.6077 20.106C13.726 19.9121 13.8872 19.7401 13.9589 19.5256C13.9916 19.4256 13.8405 19.2971 13.9077 19.2183C14.0134 19.0922 14.218 18.9747 14.3673 19.0409C14.48 19.0909 14.3862 19.2957 14.3436 19.4117C14.2175 19.7488 14.132 20.1332 13.8698 20.3806M79.1231 48.8261C78.944 48.7144 78.5049 48.6868 78.5824 48.4924C78.6598 48.298 79.0098 48.5529 79.1899 48.6622M47.7788 34.9199C47.6795 34.8466 47.4369 34.8122 47.482 34.6973C47.5295 34.5835 47.7453 34.6851 47.8435 34.7609M67.586 43.122C67.4867 43.0486 67.244 43.0143 67.2891 42.8994C67.3367 42.7856 67.5525 42.8872 67.6507 42.963M9.52193 22.0626C9.4226 21.9892 9.17993 21.9549 9.22504 21.84C9.2726 21.7262 9.48838 21.8278 9.58662 21.9036M11.4828 18.2894C11.5176 18.211 11.5116 18.1056 11.5787 18.0533C11.6715 17.983 11.8197 17.8933 11.9139 17.9585C12.0477 18.0531 12.1572 18.2688 12.0909 18.4183C12.0246 18.5678 11.7923 18.629 11.6312 18.5957M7.09472 16.2961C6.92276 16.2345 6.73777 16.2023 6.57777 16.1137C6.46947 16.0539 6.19355 15.8963 6.30915 15.8538C6.50607 15.7798 6.7311 15.9001 6.92456 15.9859C7.03966 16.037 7.13301 16.1371 7.19209 16.2483M10.4381 17.4535C10.3226 17.238 10.2891 16.9504 10.0893 16.806C9.93176 16.6922 9.69513 16.816 9.50359 16.7721C9.46115 16.7621 9.41024 16.672 9.44914 16.657C9.79974 16.5339 10.1904 16.5517 10.5331 16.4134C10.665 16.3604 10.7583 16.2229 10.8233 16.0962C10.991 15.7776 11.2245 15.4559 11.2284 15.0969C11.2302 14.7955 10.7252 14.5598 10.8421 14.2831C10.9448 14.0383 11.36 14.1726 11.6258 14.1615C12.3273 14.1324 13.0298 14.2006 13.7322 14.1631C14.1079 14.142 14.4712 13.9571 14.8467 13.9828C14.9514 13.9912 14.9227 14.2013 15.0146 14.2451C15.1667 14.3184 15.4074 14.1788 15.5177 14.3069C15.6747 14.488 15.6852 14.7683 15.6709 15.0054C15.659 15.1908 15.5818 15.3912 15.4447 15.5152C15.1394 15.7874 14.7893 16.0545 14.3892 16.144C13.9559 16.2421 13.5007 15.9933 13.0608 16.0533C12.6805 16.1046 12.3277 16.2855 11.9894 16.4668M7.44153 16.1683C7.66022 16.0981 7.86801 15.9733 8.09869 15.9553C8.25647 15.9432 8.39609 16.0843 8.55442 16.0841C8.70322 16.0856 8.85793 15.8756 8.98283 15.9574C9.12869 16.0514 9.29885 16.388 9.13756 16.4543C8.76792 16.6071 8.33286 16.4581 7.94 16.3924M14.662 19.0572C14.6695 18.9345 14.6311 18.803 14.6811 18.6903C14.7311 18.5775 14.8225 18.3717 14.9386 18.4203C15.0513 18.4702 14.96 18.6761 14.9124 18.7899M7.07216 15.6994C6.97283 15.6261 6.73016 15.5917 6.77527 15.4768C6.82283 15.363 7.03859 15.4646 7.13683 15.5404M7.4013 14.9773C7.28591 14.8938 7.15122 14.8341 7.05867 14.7256C6.99662 14.654 6.87195 14.4726 6.96253 14.46C7.55256 14.3785 8.15679 14.4236 8.74987 14.4873C8.87284 14.5008 8.9885 14.5902 9.06716 14.6837C9.16868 14.805 9.34938 14.979 9.26919 15.1136C9.1735 15.2765 8.90909 15.2912 8.72409 15.259C8.61526 15.24 8.64536 15.007 8.53518 14.9845M67.7421 41.6338C67.6871 41.6124 67.568 41.6299 67.5761 41.5719C67.597 41.4521 67.688 41.2403 67.8015 41.2818M75.9254 44.7767C75.9468 44.7217 75.9294 44.6025 75.9873 44.6106C76.107 44.6315 76.3212 44.7235 76.2771 44.836M13.1042 13.9667C13.1227 13.8458 13.0584 13.6736 13.1585 13.6065C13.2632 13.5356 13.4373 13.5923 13.5252 13.6783C13.5767 13.7275 13.4916 13.8335 13.4334 13.8722M11.8814 10.7904C11.7821 10.717 11.5394 10.6827 11.5845 10.5678C11.632 10.4539 11.8478 10.5555 11.9461 10.6314M10.8967 10.3477C10.7916 10.0958 10.5483 9.86469 10.5778 9.59329C10.5919 9.45582 10.8468 9.52197 10.9861 9.52509C11.4461 9.53849 11.9173 9.53337 12.3638 9.64342C12.4693 9.66971 12.4474 9.87116 12.55 9.91079C12.7306 9.9792 12.942 9.87935 13.1245 9.93687C13.3144 9.99764 13.8325 10.2304 13.632 10.2529C12.9756 10.3254 12.3163 10.0741 11.6564 10.0952M14.8468 11.1877C14.8011 11.053 14.6111 10.8866 14.7106 10.7812C14.9097 10.5703 15.235 10.4448 15.5239 10.4673C15.649 10.4759 15.5463 10.7471 15.4628 10.8362M16.7193 11.7631C16.6199 11.6897 16.3773 11.6554 16.4224 11.5405C16.4699 11.4266 16.6857 11.5282 16.7839 11.6041M14.2693 10.6793C14.17 10.6059 13.9249 10.5705 13.9724 10.4567C14.0374 10.3037 14.3039 10.1784 14.4356 10.2779M23.1917 14.3495C23.0198 14.2879 22.8359 14.2533 22.6769 14.1623C22.5697 14.1 22.3238 13.9939 22.4083 13.9023C22.6074 13.6914 22.9332 13.6043 23.2216 13.5885C23.3269 13.5824 23.3058 13.8018 23.4013 13.8441C23.4968 13.8865 23.6488 13.7222 23.7138 13.8068C23.7879 13.9042 23.736 14.0806 23.6525 14.1697M24.2805 14.5245C24.299 14.4036 24.2464 14.2513 24.3323 14.1633C24.4493 14.045 24.6503 13.9289 24.7996 13.9951C24.9515 14.0625 24.9739 14.2894 24.9897 14.4519C24.9987 14.5439 24.9675 14.7002 24.8731 14.7082C24.7512 14.7186 24.6989 14.5195 24.5822 14.4853M25.8504 14.9363C25.8718 14.8813 25.8544 14.7621 25.9123 14.7703C26.032 14.7911 26.2437 14.8821 26.2022 14.9956M14.1363 9.53216C14.0272 9.37522 13.9447 9.19784 13.8102 9.06487C13.7449 9.00071 13.6453 8.97414 13.5556 8.95191C13.4198 8.92102 13.278 8.89041 13.1409 8.90879C12.9584 8.93048 12.7768 9.15495 12.6168 9.06639C12.3213 8.90011 12.1217 8.57696 11.991 8.2638C11.9545 8.17429 12.1082 8.09873 12.1985 8.05372C12.4142 7.94408 12.647 7.76283 12.8831 7.81185C13.1557 7.87118 13.2799 8.22544 13.5371 8.33949C13.6962 8.4101 13.9054 8.42077 14.0613 8.34032C14.4807 8.12158 14.8701 7.82503 15.1888 7.47657C15.2595 7.39647 15.1047 7.26326 15.1334 7.15871C15.1663 7.03837 15.2334 6.85403 15.3607 6.8577C15.6358 6.86531 15.9201 6.9973 16.1172 7.18735C16.8084 7.84888 17.3896 8.61995 17.983 9.37003C18.0352 9.43721 18.1057 9.56235 18.041 9.61576C17.7615 9.84959 17.4223 10.013 17.076 10.1263C17.0181 10.1446 17.0455 9.95731 16.9848 9.96853C16.811 9.99702 16.6735 10.2938 16.5176 10.2159C16.305 10.107 16.4254 9.67051 16.2074 9.57384C15.9283 9.45001 15.6006 9.70648 15.3002 9.67005C15.211 9.6598 15.2403 9.46161 15.1532 9.44645C15.0093 9.42074 14.8769 9.59372 14.7329 9.56801C14.6483 9.55395 14.6896 9.35521 14.6066 9.35067M19.0855 11.0469C19.1039 10.9261 19.0932 10.7982 19.1397 10.6868C19.156 10.65 19.2469 10.617 19.251 10.654C19.2673 10.7757 19.2337 10.9044 19.1872 11.0158M77.9655 34.231C77.9839 34.1102 77.9733 33.9822 78.0198 33.8709C78.0361 33.8341 78.1269 33.8011 78.131 33.8381C78.1474 33.9597 78.1161 34.0896 78.0672 34.1999M63.5157 27.4491C63.7428 27.3534 64.0179 27.3346 64.196 27.1643C64.3684 27.0002 64.55 26.7493 64.4974 26.5178C64.3241 25.7721 63.9353 25.0893 63.5593 24.4239C63.485 24.2942 63.2532 24.3146 63.18 24.1824C63.0232 23.9016 63.1449 23.4687 62.9059 23.2542C62.5042 22.8912 61.9467 22.7144 61.4181 22.5913C61.1866 22.5385 60.9216 22.6204 60.7198 22.745C60.6475 22.7892 60.7985 22.9178 60.7588 22.994C60.7091 23.0864 60.5502 23.0746 60.4967 23.1623C60.432 23.2685 60.3379 23.4409 60.4236 23.5317C60.6114 23.7294 60.9061 23.7985 61.1705 23.863C61.2737 23.8882 61.3745 23.7863 61.4782 23.7971C61.5745 23.8046 61.6874 23.8341 61.7437 23.9119C62.0051 24.2478 62.1453 24.6649 62.4091 25.0019C62.5008 25.1189 62.7176 25.1124 62.7884 25.2435C62.9327 25.5128 62.9818 25.825 63.0149 26.1271C63.0542 26.4613 62.9798 26.8008 63.0096 27.1366C63.0159 27.2215 63.048 27.3209 63.1185 27.3668M79.2453 33.341C79.146 33.2676 78.9033 33.2333 78.9484 33.1184C78.996 33.0046 79.2118 33.1061 79.31 33.182M77.5822 31.1309C77.5283 31.0278 77.4401 30.9359 77.4216 30.8191C77.4123 30.7476 77.4302 30.6147 77.5023 30.6174C77.625 30.6249 77.7839 30.7159 77.8027 30.8386M19.5718 3.34343C19.5902 3.22256 19.5262 3.05632 19.6236 2.98218C19.8578 2.80447 20.1545 2.65745 20.4469 2.67865C20.5686 2.68859 20.483 2.96741 20.3856 3.04154M49.2798 16.2804C49.4039 16.2914 49.5712 16.4096 49.6544 16.3145C49.7548 16.2007 49.5123 15.9083 49.654 15.8597C50.1629 15.6836 50.7304 15.7124 51.2688 15.7606C51.376 15.77 51.3475 16.0126 51.4536 16.0244C51.6802 16.0487 51.8907 15.8253 52.1173 15.8495C52.221 15.8603 52.2077 16.0422 52.2853 16.1118C52.3566 16.1757 52.4496 16.2169 52.5424 16.2258C52.6471 16.2341 52.7491 16.1298 52.8511 16.1574C53.2024 16.2575 53.5561 16.3851 53.8514 16.5982C54.1428 16.8066 54.3546 17.1088 54.574 17.3939C54.6633 17.5097 54.6239 17.7768 54.7708 17.7891C55.0611 17.8152 55.3625 17.6644 55.5931 17.4881C55.7391 17.3769 55.7798 17.1661 55.8159 16.9856C55.8314 16.9045 55.8017 16.8063 55.7462 16.7465C55.3665 16.3669 54.9907 15.9655 54.5294 15.6905C53.9104 15.3221 53.2334 15.0511 52.5451 14.8455C52.1182 14.7178 51.6628 14.7269 51.2202 14.7007C50.6788 14.6659 50.1319 14.5905 49.5952 14.6575C49.4891 14.672 49.5115 14.8726 49.4218 14.9296C49.2352 15.0463 48.9547 14.9981 48.7951 15.1532C48.6241 15.3208 48.492 15.5789 48.5195 15.8141C48.5359 15.9357 48.7763 15.8165 48.8825 15.8812M20.7427 2.6925C20.7611 2.57163 20.6968 2.3994 20.7969 2.33234C20.9016 2.26146 21.0758 2.31816 21.1637 2.40409C21.2151 2.4533 21.13 2.55926 21.0718 2.59798M67.2716 18.0633C67.1698 17.9889 66.978 17.9654 66.9638 17.8388C66.9422 17.6562 67.0782 17.4819 67.1878 17.334C67.2487 17.2495 67.4209 17.2643 67.4535 17.1644C67.4809 17.0827 67.3204 17.035 67.3165 16.9511C67.2891 16.4579 67.4127 15.9613 67.3638 15.4704C67.3416 15.2494 67.0926 15.0773 67.104 14.8536C67.1126 14.6755 67.2882 14.2929 67.4115 14.418C67.7386 14.7508 67.8079 15.2685 67.9471 15.7145C68.0414 16.0173 68.0813 16.3371 68.1053 16.6528C68.1313 17.0104 68.2749 17.4202 68.0911 17.7288M46.1872 8.11566C46.0855 8.04118 45.901 8.02096 45.8808 7.89468C45.8609 7.77439 45.9835 7.59707 46.1062 7.60457C46.2205 7.61125 46.2448 7.80095 46.2609 7.91661M57.3671 11.3148C57.2678 11.2414 57.0251 11.2071 57.0702 11.0922C57.1178 10.9784 57.3336 11.08 57.4318 11.1558M54.9419 8.18007C54.9603 8.0592 54.9497 7.93129 54.9961 7.81991C55.0124 7.78315 55.1033 7.75011 55.1074 7.78713C55.1238 7.90878 55.0925 8.03865 55.0436 8.14894M40.9826 1.99703C40.8833 1.92364 40.6406 1.88932 40.6857 1.77441C40.7333 1.66058 40.949 1.76216 41.0473 1.838M40.2469 1.67361C40.1475 1.60022 39.9049 1.5659 39.95 1.45099C39.9975 1.33716 40.2133 1.43874 40.3115 1.51458M37.5664 37.4352C37.5848 37.3144 37.5742 37.1864 37.6206 37.0751C37.6369 37.0383 37.7278 37.0053 37.7319 37.0423C37.7482 37.1639 37.717 37.2938 37.6681 37.4041M53.4405 6.93336C53.4589 6.81249 53.4483 6.68457 53.4947 6.5732C53.511 6.53643 53.6019 6.5034 53.606 6.54042C53.6224 6.66207 53.5911 6.79194 53.5422 6.90223" fill="black"/>
</svg>
