<svg width="177" height="164" viewBox="0 0 177 164" fill="none" xmlns="http://www.w3.org/2000/svg">
<mask id="mask0_168_321" style="mask-type:alpha" maskUnits="userSpaceOnUse" x="0" y="0" width="177" height="164">
<rect width="177" height="164" fill="#D9D9D9"/>
</mask>
<g mask="url(#mask0_168_321)">
<g opacity="0.08">
<path d="M105.461 6.25902C90.0582 6.93223 72.474 18.5849 66.0263 33.1751C60.4878 45.7091 68.7064 54.0569 80.3182 56.6151C96.179 60.1097 114.28 57.7228 129.606 52.7472C139.162 49.6443 153.484 43.8976 152.366 31.2963C150.465 9.85765 121.399 6.46098 105.467 6.25902C102.912 6.22842 102.906 10.3167 105.467 10.3534C114.72 10.4758 124.216 11.3938 132.91 14.8761C140.743 18.0158 152.919 27.3305 147.315 37.4776C140.951 49.0078 119.349 51.8537 108.029 53.1879C98.1817 54.3446 74.5599 57.0986 68.9679 45.4766C64.8615 36.9329 74.1617 27.0123 79.8131 22.0366C86.9502 15.7513 95.9414 10.7696 105.467 10.3534C108.017 10.2432 108.029 6.14886 105.467 6.25902H105.461Z" fill="#50231B"/>
<path d="M70.1267 48.4996C57.0233 53.4446 42.3926 59.3199 31.7969 68.8672C21.3439 78.2861 26.5912 85.6179 38.2625 88.4148C58.8179 93.3353 81.2513 92.3623 102.187 91.9094C119.248 91.5422 147.904 94.7613 160.627 80.4954C175.465 63.861 145.889 51.0822 134.265 47.1164C131.829 46.2902 130.789 50.2376 133.207 51.0639C141.165 53.7751 157.893 59.6626 160.324 68.7693C164.168 83.1515 139.156 85.9851 130.991 86.5971C111.053 88.0904 90.8843 88.3964 70.9112 87.6988C61.1712 87.356 51.2531 86.9153 41.6676 84.9691C35.1545 83.6472 26.1039 81.8357 32.3377 73.953C40.8653 63.1755 58.8774 57.0922 71.1845 52.4531C73.5675 51.5535 72.5394 47.5999 70.1267 48.5057V48.4996Z" fill="#50231B"/>
<path d="M69.9901 88.1461C57.9326 92.9198 42.3808 99.5295 34.7148 110.772C24.452 125.815 43.6585 133.533 55.0861 135.754C68.76 138.41 82.8737 138.704 96.7437 138.894C111.119 139.09 125.797 139.475 140.089 137.578C154.06 135.718 167.704 130.105 168.857 113.722C170.04 96.8917 152.539 88.4582 138.74 86.4508C136.238 86.0836 135.157 90.0311 137.682 90.3983C151.82 92.4607 170.48 102.045 163.545 119.86C155.831 139.677 119.938 134.928 103.875 134.861C89.2501 134.8 74.4055 134.72 59.9115 132.468C52.7804 131.36 35.5409 129.053 35.7132 118.667C35.9272 105.705 61.2664 95.9614 71.042 92.0997C73.4071 91.1633 72.379 87.2036 69.9842 88.1522L69.9901 88.1461Z" fill="#50231B"/>
<path d="M53.0418 131.39C38.0961 136.158 19.0085 144.842 11.4792 159.873C3.55775 175.687 15.9659 185.914 29.6933 190.015C42.9572 193.974 57.2135 194.813 70.9291 195.419C89.2026 196.22 107.708 196.404 125.928 194.556C140.832 193.038 163.853 190.529 171.002 174.237C179.049 155.907 161.768 139.389 146.757 132.822C144.427 131.806 142.401 135.326 144.748 136.354C159.605 142.853 179.328 163.233 162.968 178.674C155.522 185.7 144.053 187.879 134.426 189.384C116.776 192.15 98.6691 192.04 80.871 191.643C65.4916 191.294 49.6902 190.755 34.6554 187.108C26.7636 185.192 14.914 181.863 13.0837 172.248C9.37553 152.755 40.1047 139.799 54.0877 135.338C56.5241 134.561 55.4842 130.607 53.0299 131.39H53.0418Z" fill="#50231B"/>
<path d="M30.0319 158.906C26.3416 162.664 26.9418 168.57 30.0438 172.542C34.0908 177.713 41.2278 177.995 47.1467 178.001C49.702 178.001 49.7079 173.913 47.1467 173.907C42.9987 173.907 38.2149 173.998 34.6672 171.422C31.8029 169.341 30.02 164.671 32.8368 161.801C34.6553 159.947 31.8444 157.052 30.026 158.906H30.0319Z" fill="#50231B"/>
<path d="M146.763 105.606C149.621 108.22 151.475 111.482 152.301 115.325C152.854 117.895 156.681 116.806 156.134 114.236C155.177 109.762 152.901 105.759 149.573 102.712C147.666 100.967 144.849 103.85 146.763 105.606Z" fill="#50231B"/>
<path d="M88.5012 24.6374C83.545 27.269 81.0848 33.2545 82.5586 38.7687C83.236 41.3024 87.069 40.2313 86.3915 37.6793C85.3753 33.8603 87.1166 29.9741 90.5098 28.1687C92.7858 26.963 90.7772 23.4256 88.5012 24.6374Z" fill="#50231B"/>
</g>
</g>
</svg>
