<svg width="275" height="167" viewBox="0 0 275 167" fill="none" xmlns="http://www.w3.org/2000/svg">
<mask id="mask0_168_364" style="mask-type:alpha" maskUnits="userSpaceOnUse" x="0" y="0" width="275" height="167">
<rect width="275" height="167" transform="matrix(-1 0 0 1 275 0)" fill="#D9D9D9"/>
</mask>
<g mask="url(#mask0_168_364)">
<g opacity="0.05">
<path d="M18.2296 88.9366C22.7414 87.7537 50.9866 76.816 14.4874 74.1747C11.3445 73.9479 3.26065 77.4966 2.29672 79.9758C0.7901 83.8486 3.58456 90.4355 6.17661 93.1092C10.5102 97.5896 20.3114 99.1127 25.6818 95.6208C33.8306 90.3058 31.522 78.8982 27.0426 72.0439C20.1008 61.4059 3.23633 56.1639 -8.25778 62.6374C-17.8564 68.0496 -18.31 80.3808 -15.3211 89.9088C-9.54568 108.341 13.1023 111.112 29.1487 115.827C75.5544 129.447 122.389 141.648 169.176 153.866C176.758 155.843 184.347 157.82 191.929 159.781C193.841 160.275 196.157 160.51 197.956 161.336C200.548 162.527 200.912 161.012 197.964 162.633C202.176 160.307 206.258 154.109 209.563 150.706C217.477 142.54 225.375 134.357 233.232 126.141C241.364 117.642 249.472 109.119 257.443 100.466C260.205 97.468 262.967 94.4784 265.632 91.3996C266.507 90.3869 267.544 88.4829 268.67 87.8347C272.339 85.7444 267.641 87.2999 271.383 88.5963C258.901 84.2698 244.467 81.3045 231.312 77.9341C190.479 67.4906 149.573 57.3062 108.66 47.1868C105.274 46.3523 106.708 41.1265 110.101 41.961C151.015 52.0805 191.921 62.2647 232.754 72.7082C242.62 75.2279 252.486 77.7477 262.311 80.4051C264.919 81.11 272.323 81.7501 274.226 83.9863C279.864 90.5975 252.972 113.21 248.922 117.488C233.345 133.976 217.574 150.293 201.722 166.522C201.042 167.218 200.021 167.461 199.09 167.218C137.294 151.338 75.1736 135.847 14.212 116.994C5.43146 114.28 -5.2283 112.133 -12.0891 105.562C-23.4131 94.7133 -27.8277 70.1317 -13.7335 59.6315C1.82687 48.0375 26.0301 56.5204 33.7738 73.1863C41.7363 90.3059 29.0758 108.892 9.60306 101.641C-3.51108 96.7551 -10.5421 70.8448 7.39163 67.4824C20.8217 64.9627 36.1066 89.8521 19.6553 94.1624C16.2775 95.0455 14.8438 89.8197 18.2135 88.9366H18.2296Z" fill="#50231B"/>
<path d="M34.5029 85.3962C31.1089 88.0699 27.5529 90.4357 23.7134 92.4207C20.6192 94.0168 17.8732 89.3419 20.9756 87.7458C24.3857 85.9877 27.6502 83.9541 30.6715 81.5721C33.377 79.4331 37.2407 83.2411 34.5029 85.4043V85.3962Z" fill="#50231B"/>
<path d="M19.8901 65.2053C14.4306 67.7736 9.0683 70.5121 3.78701 73.437C0.733257 75.1303 -1.99649 70.4473 1.04916 68.7621C6.32235 65.8373 11.6927 63.0988 17.1522 60.5305C20.287 59.0559 23.041 63.7226 19.8901 65.2053Z" fill="#50231B"/>
<path d="M14.8682 81.4181C13.0862 85.0397 15.5081 88.5155 19.2099 89.1394C22.6362 89.7146 21.1863 94.9404 17.768 94.3651C10.3726 93.1174 6.99484 85.1612 10.1863 78.6796C11.7253 75.5522 16.3991 78.2907 14.8601 81.4181H14.8682Z" fill="#50231B"/>
<path d="M19.4449 80.405C18.0354 81.3124 16.4964 81.9848 14.8845 82.4142C11.5148 83.3217 10.0731 78.0959 13.4427 77.1885C14.6578 76.8644 15.654 76.4026 16.707 75.7221C19.6474 73.8262 22.3609 78.5172 19.4449 80.3968V80.405Z" fill="#50231B"/>
<path d="M24.5397 96.1639C50.3468 78.8985 77.3607 63.6586 102.69 45.6396C115.091 36.8165 109.308 19.0164 98.6398 10.8009C88.9925 3.37947 81.832 5.6561 71.9255 10.3553C42.3843 24.3637 15.1031 44.7646 -10.9875 64.3148C-13.782 66.4051 -16.4794 61.7059 -13.7253 59.6399C0.595718 48.9128 15.265 38.6151 30.1936 28.7631C41.5176 21.2849 53.0279 13.9121 65.1133 7.72211C71.3504 4.52991 79.2156 -0.0720623 86.4977 0.000855934C104.844 0.179101 122.163 26.1461 113.131 43.0226C110.62 47.7137 105.792 50.0958 101.515 53.0287C92.8239 58.9918 84.1001 64.9305 75.3033 70.7316C59.5161 81.1265 42.9837 90.3547 27.2776 100.863C24.3696 102.807 21.6561 98.1164 24.5397 96.1881V96.1639Z" fill="#50231B"/>
<path d="M259.922 80.7052C260.788 86.49 261.663 92.2749 262.53 98.0598C263.04 101.471 257.824 102.945 257.305 99.502C256.439 93.7171 255.564 87.9322 254.697 82.1474C254.187 78.7364 259.403 77.2618 259.922 80.7052Z" fill="#50231B"/>
<path d="M253.207 81.394C253.126 90.5169 253.919 99.5101 255.669 108.471C256.333 111.874 251.109 113.332 250.444 109.913C248.606 100.482 247.707 91.003 247.788 81.394C247.82 77.9101 253.239 77.902 253.207 81.394Z" fill="#50231B"/>
<path d="M240.449 77.1887C242.749 89.3093 244.199 101.503 244.807 113.834C244.977 117.318 239.558 117.31 239.388 113.834C238.813 101.989 237.436 90.2816 235.224 78.6309C234.576 75.2199 239.801 73.7615 240.449 77.1887Z" fill="#50231B"/>
<path d="M99.1096 21.4716L102.844 31.8179C104.026 35.0992 98.7937 36.5171 97.6192 33.2601L93.885 22.9138C92.7024 19.6324 97.9351 18.2146 99.1096 21.4716Z" fill="#50231B"/>
<path d="M92.0787 28.4714C92.4919 30.0108 92.8969 31.5501 93.31 33.0895C94.2091 36.4599 88.9845 37.9021 88.0854 34.5317C87.6723 32.9923 87.2673 31.453 86.8542 29.9136C85.9551 26.5431 91.1796 25.1009 92.0787 28.4714Z" fill="#50231B"/>
<path d="M81.2732 38.8743C77.7902 38.8743 77.7821 33.4541 81.2732 33.4541C84.7644 33.4541 84.7644 38.8743 81.2732 38.8743Z" fill="#50231B"/>
</g>
</g>
</svg>
