<svg width="310" height="472" viewBox="0 0 310 472" fill="none" xmlns="http://www.w3.org/2000/svg">
<mask id="mask0_168_365" style="mask-type:alpha" maskUnits="userSpaceOnUse" x="0" y="0" width="310" height="472">
<rect width="310" height="472" fill="#D9D9D9"/>
</mask>
<g mask="url(#mask0_168_365)">
<g opacity="0.08">
<mask id="mask1_168_365" style="mask-type:alpha" maskUnits="userSpaceOnUse" x="12" y="-97" width="395" height="559">
<rect x="12" y="-97" width="394.152" height="558.529" fill="#D9D9D9"/>
</mask>
<g mask="url(#mask1_168_365)">
<path d="M295.661 595.563C298.436 594.06 301.406 592.858 304.021 591.073C306.496 589.376 308.829 587.397 310.862 585.17C312.223 583.685 312.099 579.832 314.096 580.079C316.429 580.38 316.04 584.534 317.826 586.071C318.515 586.655 319.646 585.276 320.495 585.594C321.926 586.142 322.545 588.44 324.083 588.457C325.885 588.493 327.405 586.902 328.784 585.735C329.544 585.099 329.579 583.827 330.357 583.208C332.567 581.44 335.289 580.398 337.569 578.701C338.329 578.135 338.735 575.837 339.371 576.527C341.634 579.001 341.934 582.766 343.826 585.523C345.098 587.397 346.6 589.43 348.721 590.26C350.966 591.144 353.564 590.702 355.951 590.296C359.592 589.677 363.162 588.581 366.609 587.22C370.214 585.806 373.307 583.137 377.019 581.988C377.655 581.794 377.585 583.226 378.08 583.685C379.37 584.852 380.731 585.965 382.269 586.725C382.834 587.008 383.63 587.008 384.177 586.69C385.132 586.16 386.051 585.382 386.493 584.375C386.811 583.65 386.528 582.748 386.228 582.024C385.521 580.362 383.824 579.125 383.506 577.358C383.276 576.103 384.584 575.024 384.761 573.77C385.008 571.984 385.291 570.093 384.761 568.379C384.443 567.318 383.382 566.576 382.428 566.046C381.88 565.745 381.014 565.621 380.554 566.046C377.708 568.767 376.206 572.85 372.972 575.113C367.828 578.701 361.801 580.928 355.968 583.208C354.819 583.65 353.246 583.95 352.292 583.173C349.782 581.158 347.749 578.453 346.424 575.537C345.964 574.512 347.696 573.398 347.396 572.32C347.095 571.189 344.833 571.012 344.868 569.828C344.939 568.432 347.166 568.007 347.626 566.7C348.156 565.232 348.439 563.377 347.714 561.998C346.901 560.46 345.027 559.789 343.525 558.923C343.189 558.728 342.641 558.657 342.376 558.923C340.591 560.725 338.735 562.581 337.657 564.861C337.356 565.48 338.576 565.957 338.717 566.629C338.77 566.912 338.399 567.088 338.187 567.283C333.627 571.348 329.88 576.633 324.436 579.372C323.022 580.079 322.386 576.951 321.643 575.555C321.343 575.007 321.431 574.317 321.431 573.681C321.431 572.479 321.378 571.277 321.661 570.111C321.962 568.874 322.969 567.866 323.146 566.611C323.393 564.844 323.482 562.952 322.916 561.273C322.563 560.23 321.537 559.47 320.583 558.94C320.035 558.64 319.257 558.622 318.727 558.94C317.543 559.63 316.341 560.531 315.722 561.75C313.849 565.339 313.336 569.563 311.357 573.098C310.296 575.007 308.14 576.067 306.796 577.764C305.789 579.037 305.471 580.804 304.304 581.918C302.342 583.827 300.062 585.435 297.623 586.655C296.739 587.096 295.502 587.291 294.689 586.743C293.275 585.788 291.932 584.286 291.631 582.607C290.801 577.941 291.101 573.115 291.419 568.379C291.508 567.124 292.745 566.099 292.798 564.844C292.833 564.137 291.543 563.712 291.684 563.023C292.197 560.566 294.106 558.534 294.618 556.077C294.76 555.37 293.293 554.928 293.505 554.256C293.964 552.825 295.856 552.153 296.333 550.721C296.545 550.067 295.272 549.643 295.272 548.954C295.272 548.265 296.81 547.681 296.333 547.169C295.537 546.32 293.929 545.914 292.922 546.479C291.419 547.292 290.447 549.025 289.935 550.668C289.722 551.34 291.296 551.835 291.03 552.489C290.412 553.956 288.397 554.486 287.743 555.918C286.187 559.258 284.933 562.846 284.544 566.505C283.784 573.593 283.43 580.822 284.349 587.909C284.597 589.783 286.311 591.321 287.884 592.364M108.395 595.74C109.279 595.457 110.286 595.421 111.064 594.909C112.319 594.06 113.061 592.576 114.316 591.727C116.737 590.083 119.583 589.129 122.005 587.485C122.977 586.814 123.366 584.233 124.391 584.834C126.936 586.319 127.13 590.384 129.623 591.957C130.718 592.646 132.557 591.568 133.211 590.437C134.253 588.652 134.218 586.354 134.059 584.286C133.918 582.43 132.574 580.822 132.344 578.966C131.991 576.05 131.991 573.062 132.344 570.146C132.486 568.891 133.564 567.884 133.829 566.646C134.077 565.462 134.271 564.137 133.829 563.023C133.423 561.998 132.574 560.92 131.496 560.69C130.276 560.443 129.163 561.804 127.908 561.821C127.219 561.821 126.812 560.92 126.141 560.761C125.893 560.708 125.557 561.044 125.61 561.273C125.787 561.963 126.883 562.404 126.706 563.094C126.211 565.02 124.285 566.364 123.79 568.29C123.613 568.98 125.151 569.457 124.886 570.111C123.914 572.55 122.199 574.689 120.449 576.633C118.682 578.595 116.26 579.867 114.404 581.723C113.273 582.854 112.973 584.922 111.506 585.576C107.794 587.255 103.693 588.404 99.6281 588.404C97.242 588.404 95.1386 586.725 93.0353 585.576C92.3107 585.188 91.5506 584.622 91.2855 583.844C89.9776 579.973 88.811 575.979 88.4045 571.914C88.2984 570.871 89.571 570.128 89.8185 569.103C91.8334 560.655 93.7777 552.171 95.1563 543.598C95.2977 542.697 94.8028 541.76 94.3256 540.982C93.9191 540.328 93.3358 539.657 92.5935 539.445C91.4269 539.109 90.1543 539.18 88.9701 539.445C88.4398 539.568 87.9449 540.01 87.7152 540.505C86.5486 543.192 85.3467 545.931 84.8872 548.83C84.7634 549.572 86.1598 549.997 86.0714 550.739C85.5411 555.476 83.6322 560.001 83.102 564.738C83.0313 565.462 84.0741 565.851 84.3039 566.523C84.4983 567.106 84.463 567.778 84.3039 568.379C83.9681 569.598 82.9252 570.606 82.8369 571.878C82.501 576.598 81.8647 581.493 83.0666 586.054C83.756 588.652 86.1421 590.525 88.1924 592.275C89.9245 593.742 92.0455 594.785 94.2019 595.492C95.3684 595.881 96.694 595.757 97.8783 595.474C98.5499 595.315 98.9034 594.467 99.5574 594.237C100.141 594.043 100.83 594.043 101.413 594.237C102.067 594.467 102.403 595.315 103.092 595.474M217.944 591.904C218.863 591.692 220.012 591.939 220.684 591.285C222.151 589.854 223.318 588.033 223.901 586.071C224.095 585.4 222.734 585.011 222.717 584.304C222.717 583.049 223.848 581.971 223.848 580.716C223.848 579.991 222.611 579.585 222.734 578.878C223.318 575.237 224.466 571.666 225.845 568.255C226.163 567.477 226.941 566.894 227.701 566.54C228.231 566.293 228.938 566.859 229.468 566.576C230.511 566.01 231.006 564.614 232.12 564.19C233.251 563.765 234.612 563.783 235.743 564.19C236.362 564.419 236.238 565.445 236.715 565.922C238.235 567.424 240.339 568.343 241.629 570.058C242.23 570.853 241.487 572.214 242.088 573.009C242.919 574.141 244.298 574.812 245.588 575.396C250.413 577.605 255.327 579.655 260.364 581.352C261.513 581.741 262.786 581.688 263.988 581.564C264.907 581.476 265.826 581.193 266.604 580.716C267.258 580.309 268.053 579.761 268.124 578.984C268.212 577.888 267.982 576.403 267.028 575.855C262.362 573.151 256.971 571.949 252.092 569.669C251.209 569.262 250.784 568.078 249.848 567.813C249.335 567.672 248.876 569.086 248.522 568.697C247.073 567.141 246.702 564.826 245.464 563.094C244.581 561.857 243.485 560.725 242.212 559.877C239.596 558.127 237.069 555.37 233.94 555.37C230.246 555.37 227.1 558.233 223.83 559.948C222.946 560.407 222.504 561.963 221.515 561.857C218.457 561.574 215.823 559.435 212.801 558.905C212.094 558.781 211.687 560.018 210.963 560.018C210.256 560.018 209.832 558.728 209.142 558.923C207.304 559.417 205.448 560.407 204.229 561.857C202.231 564.225 200.87 567.124 199.792 570.04C199.598 570.553 201.153 571.083 200.711 571.383C198.52 572.833 195.939 573.61 193.394 574.282C192.21 574.583 190.849 574.706 189.7 574.247C188.675 573.84 187.755 572.939 187.349 571.896C186.907 570.765 187.084 569.457 187.349 568.273C187.508 567.566 188.692 567.194 188.551 566.487C188.109 564.154 187.084 561.91 185.758 559.965C184.503 558.127 182.948 556.289 180.951 555.317C179.342 554.539 177.38 555.052 175.595 555.052C174.393 555.052 173.085 554.804 172.007 555.317C169.639 556.448 167.323 557.862 165.573 559.806C161.049 564.861 159.811 578.224 153.36 576.12C146.255 573.805 149.631 561.627 148.482 554.239C148.358 553.514 149.913 553.037 149.648 552.347C146.909 545.224 143.674 538.26 139.803 531.668C139.238 530.696 137.824 530.466 136.71 530.36C135.897 530.289 134.766 530.448 134.412 531.173C134.112 531.791 135.438 532.251 135.473 532.94C135.508 533.488 134.342 533.842 134.572 534.337C135.102 535.521 137.011 535.821 137.364 537.076C137.647 538.119 135.879 539.02 136.145 540.063C137.099 543.775 139.768 546.868 140.828 550.562C141.023 551.269 139.627 551.711 139.68 552.436C139.75 553.549 140.864 554.345 141.147 555.423C142.437 560.213 143.798 565.038 144.416 569.952C144.558 571.083 143.109 572.126 143.391 573.239C143.692 574.388 145.477 574.636 145.901 575.731C146.113 576.262 145.017 576.544 144.911 577.092C144.664 578.294 144.469 579.62 144.894 580.769C146.202 584.427 147.58 588.157 149.949 591.232C150.497 591.939 151.716 590.631 152.6 590.737C153.289 590.826 153.714 592.01 154.367 591.798C155.817 591.303 156.435 588.899 157.973 588.917C161.031 588.952 163.629 591.356 166.634 591.922C169.02 592.364 171.53 592.399 173.916 591.922C176.196 591.444 178.547 590.631 180.332 589.111C183.337 586.566 184.415 581.865 187.897 580.062C190.036 578.948 192.581 581.564 195.002 581.529C196.893 581.493 198.661 579.09 200.393 579.832C203.433 581.14 205.183 584.41 207.375 586.884C207.87 587.432 207.852 588.351 208.382 588.864C209.619 590.066 210.892 591.497 212.571 591.904C213.808 592.204 214.94 590.755 216.195 590.737M457.175 587.803C457.847 586.001 458.96 584.321 459.19 582.413C459.561 579.479 459.349 576.474 458.96 573.54C458.872 572.85 457.811 572.515 457.811 571.825C457.811 571.136 458.73 570.765 458.943 570.111C459.137 569.51 459.261 568.768 458.96 568.202C458.2 566.664 457.334 565.02 455.92 564.066C455.107 563.518 453.923 563.889 452.986 564.137C452.314 564.313 451.961 565.268 451.272 565.285C450.582 565.303 450.194 564.225 449.504 564.225C448.815 564.225 448.426 565.285 447.737 565.285C447.03 565.285 446.605 564.048 445.916 564.172C443.601 564.596 441.48 565.763 439.394 566.841C437.361 567.901 435.647 569.527 433.597 570.588C433.367 570.694 433.049 570.358 433.031 570.093C432.925 569.333 432.996 568.52 433.226 567.795C434.516 563.942 435.947 560.124 437.591 556.395C439.235 552.648 441.568 549.201 443.088 545.401C443.459 544.482 443.724 543.245 443.159 542.414C442.187 541 440.684 539.445 438.97 539.427C437.538 539.409 436.672 541.195 435.771 542.308C434.463 543.899 433.172 545.578 432.359 547.487C430.963 550.739 430.627 554.398 429.231 557.65C427.976 560.584 426.262 563.341 424.423 565.957C423.398 567.389 422.143 568.679 420.694 569.669C418.131 571.454 415.427 573.098 412.51 574.211C411.362 574.653 409.965 574.653 408.834 574.194C407.438 573.61 406.748 571.861 405.352 571.277C404.84 571.065 404.415 572.497 403.956 572.179C402.665 571.242 400.916 569.846 401.216 568.273C401.711 565.586 403.744 563.218 405.918 561.574C409.541 558.852 414.508 558.322 418.096 555.547C418.803 554.999 417.477 553.726 416.752 553.178C414.95 551.799 412.864 550.81 410.761 549.961C410.142 549.714 409.347 549.625 408.781 549.961C405.865 551.782 403.196 554.009 400.598 556.271C398.901 557.756 396.85 559.099 395.914 561.15C395.454 562.175 397.204 563.288 396.886 564.366C396.444 565.922 394.447 566.682 393.899 568.202C393.475 569.351 393.634 570.747 394.128 571.861C394.871 573.557 396.055 575.113 397.487 576.315C399.855 578.294 402.383 580.292 405.317 581.264C406.501 581.67 407.65 580.133 408.905 580.133C409.594 580.133 409.965 581.052 410.619 581.264C411.238 581.458 411.945 581.546 412.546 581.299C417.3 579.337 421.525 576.032 426.491 574.724C428.294 574.247 430.044 576.014 431.9 576.209C434.268 576.456 436.778 576.721 439.058 575.997C442.204 574.989 444.679 572.515 447.701 571.189C448.532 570.835 449.911 570.27 450.406 571.03C452.191 573.787 453.534 577.057 453.605 580.345C453.64 581.812 450.741 582.147 450.653 583.614C450.565 584.958 452.544 585.594 453.163 586.796C453.393 587.238 452.597 588.192 453.074 588.316M172.131 585.011C169.02 584.021 164.654 584.71 162.781 582.041C161.455 580.133 164.159 577.499 165.609 575.696C166.669 574.353 168.702 574.123 169.974 572.992C171.017 572.09 171.282 570.411 172.449 569.687C172.909 569.404 173.297 570.606 173.845 570.588C174.535 570.553 174.923 569.545 175.613 569.545C176.161 569.545 176.673 570.075 176.938 570.553C178.087 572.638 179.837 574.742 179.766 577.128C179.696 579.178 177.804 580.751 176.55 582.395C175.825 583.349 174.923 584.215 173.898 584.834M215.116 584.198C214.462 584.021 213.596 584.162 213.137 583.667C211.9 582.324 210.061 580.769 210.326 578.966C210.627 577.039 212.589 575.343 214.462 574.812C215.523 574.512 216.477 576.103 216.813 577.145C217.025 577.799 215.753 578.224 215.753 578.913C215.753 579.602 216.902 579.991 216.813 580.68M176.832 566.558C177.221 566.54 177.893 566.116 177.999 566.487C178.193 567.265 178.211 568.803 177.416 568.838M178.618 564.844C178.794 564.048 178.352 562.493 179.165 562.458C179.979 562.44 179.943 564.013 179.749 564.808M383.029 536.564C383.417 535.768 383.364 534.549 384.177 534.195C384.814 533.912 385.291 535.097 385.98 535.256C386.228 535.309 386.493 535.008 386.546 534.779C386.705 534.178 386.758 533.506 386.564 532.923C386.21 531.88 385.627 530.89 384.938 530.042C384.107 529.016 382.622 528.504 382.056 527.302C381.809 526.807 382.87 526.454 382.958 525.906C383.011 525.552 382.657 525.234 382.392 525.004C381.12 523.997 378.804 523.838 378.362 522.282C378.044 521.169 381.155 521.151 380.961 520.002C380.607 517.864 379.299 514.629 377.143 514.77C374.792 514.912 374.103 518.429 372.972 520.497C372.653 521.08 372.724 521.858 372.972 522.477C374.262 525.87 375.711 529.246 377.514 532.41C378.521 534.178 379.706 535.927 381.332 537.165M104.33 533.135C105.92 531.332 108.13 529.936 109.102 527.726C109.667 526.436 109.721 524.28 108.536 523.537C106.751 522.424 104.011 522.3 102.226 523.396C100.3 524.58 98.6029 527.178 99.0802 529.388M124.921 527.709C124.585 527.249 124.408 526.63 123.913 526.348C121.846 525.199 119.76 523.325 117.409 523.555C115.589 523.714 113.909 525.552 113.432 527.32C113.114 528.504 115.147 529.158 115.606 530.289C115.748 530.625 114.793 530.961 115.041 531.226C115.606 531.809 116.525 531.986 117.338 532.074C118.523 532.198 119.884 532.445 120.909 531.844M221.603 462.912C222.575 462.364 223.689 462.028 224.502 461.268C225.704 460.137 226.287 458.44 227.507 457.327C230.052 455.011 232.756 452.837 235.708 451.07C236.556 450.557 237.97 451.335 238.659 450.61C240.639 448.578 241.47 445.661 243.202 443.399C244.368 441.861 245.712 440.43 247.285 439.298C247.744 438.98 248.469 439.033 248.964 439.298C250.007 439.864 250.449 441.437 251.615 441.667C252.729 441.897 254.09 441.366 254.814 440.5C257.024 437.902 258.42 434.72 260.046 431.733C261.937 428.269 263.758 424.752 265.349 421.128C266.975 417.434 267.929 413.457 269.644 409.799C270.633 407.695 272.648 406.14 273.391 403.948C273.621 403.277 272.118 402.817 272.277 402.128C273.267 398.063 275.088 394.227 276.714 390.356C277.262 389.048 277.827 387.687 278.764 386.609C279.771 385.46 281.592 385.142 282.405 383.852C282.918 383.021 282.582 381.855 282.317 380.918C282.122 380.229 280.92 379.822 281.115 379.133C282.988 372.469 286.17 366.248 288.273 359.655C290.677 352.143 293.028 344.578 294.654 336.854C294.813 336.13 293.328 335.688 293.47 334.945C295.75 323.121 299.373 311.579 301.777 299.772C302.148 297.987 302.042 296.113 301.741 294.311C301.635 293.621 300.593 293.285 300.593 292.596C300.593 291.907 301.512 291.536 301.724 290.882C301.918 290.281 301.953 289.574 301.759 288.955C300.946 286.551 298.701 284.519 298.737 281.991C298.772 278.863 301.512 276.247 301.953 273.154C302.13 271.899 300.681 270.909 300.504 269.672C300.098 266.738 300.239 263.751 300.239 260.781C300.239 259.579 300.168 258.342 300.504 257.193C300.699 256.521 301.724 256.221 301.724 255.514C301.741 254.259 300.61 253.181 300.593 251.926C300.593 251.237 301.671 250.848 301.653 250.158C301.653 249.434 300.451 249.027 300.522 248.32C301.087 243.601 303.049 239.094 303.527 234.357C303.65 233.067 302.024 231.918 302.289 230.645C303.65 224.3 306.054 218.22 308.263 212.122C308.829 210.531 310.155 206.024 310.579 207.65C311.781 212.246 311.074 217.142 310.809 221.878C310.738 223.01 309.306 223.946 309.571 225.06C309.854 226.227 312.205 226.333 312.17 227.517C312.117 229.408 309.819 230.61 309.377 232.448C309.2 233.173 310.632 233.597 310.544 234.339C310.013 238.493 308.122 242.417 307.592 246.57C307.503 247.277 308.705 247.684 308.723 248.409C308.723 249.098 307.645 249.487 307.663 250.176C307.663 250.901 308.882 251.307 308.794 252.014C308.175 256.787 306.089 261.311 305.595 266.084C305.471 267.356 307.221 268.399 306.991 269.672C306.655 271.634 304.569 272.941 304.075 274.868C303.898 275.557 305.188 275.982 305.17 276.689C305.17 277.378 304.039 277.714 304.039 278.403C304.039 279.658 305.153 280.736 305.17 281.991C305.17 282.68 303.915 283.105 304.11 283.759C304.428 284.801 305.453 286.551 306.408 286.056C308.493 284.943 309.872 282.574 310.579 280.33C310.968 279.092 309.306 277.926 309.377 276.636C309.448 275.098 310.632 273.79 310.95 272.288C312.824 263.238 314.821 254.171 315.917 244.997C316.076 243.707 314.573 242.576 314.68 241.286C315.174 234.216 317.119 227.287 317.649 220.217C317.702 219.492 316.518 219.139 316.429 218.414C316.076 215.692 315.669 212.829 316.341 210.16C316.871 208.11 318.161 206.112 319.894 204.875C323.694 202.118 328.431 200.898 332.478 198.495C334.281 197.416 336.543 196.427 337.339 194.482C339.972 188.031 341.934 181.155 342.429 174.191C342.659 171.116 339.831 168.482 339.442 165.407C339.283 164.117 340.732 163.092 340.891 161.801C341.245 158.867 341.192 155.898 340.909 152.964C340.679 150.525 339.212 148.227 339.389 145.788C339.725 140.803 341.21 135.943 342.411 131.1C343.384 127.158 345.222 123.447 345.929 119.452C346.053 118.745 344.815 118.339 344.815 117.614C344.815 116.924 345.84 116.536 345.876 115.846C345.893 115.298 344.745 114.945 344.974 114.45C345.522 113.266 347.184 112.859 347.802 111.71C348.191 111.003 348.068 110.031 347.785 109.289C347.467 108.494 345.805 108.158 346.106 107.362C346.636 105.948 349.287 105.984 349.623 104.517C350.595 100.151 350.082 95.5731 349.747 91.119C349.658 89.8641 348.421 88.839 348.368 87.5841C348.333 86.8771 349.658 86.4529 349.464 85.7635C348.951 83.8546 347.254 82.4406 346.494 80.6201C346.141 79.8071 346.989 78.34 346.194 77.9689C342.093 76.113 337.533 75.459 333.114 74.5576C331.895 74.3102 330.587 74.3102 329.367 74.5576C325.815 75.2823 322.28 76.2191 318.868 77.4386C316.04 78.4284 313.672 81.3978 310.685 81.168C308.723 81.0266 307.733 78.3577 306.973 76.5372C304.958 71.7119 304.393 66.3918 302.484 61.5312C301.671 59.4278 299.567 57.9785 298.86 55.8398C298.648 55.1682 299.815 54.744 300.045 54.0723C300.239 53.489 300.31 52.7644 300.045 52.2164C299.62 51.3327 298.578 50.8731 298.118 50.0071C297.04 48.0628 296.598 45.8004 295.467 43.9092C294.813 42.8134 293.47 42.2654 292.816 41.1696C291.684 39.2784 291.331 36.963 290.164 35.0717C289.21 33.534 287.283 32.7033 286.541 31.0595C286.258 30.4232 287.92 29.893 287.601 29.292C285.869 26.0398 283.342 23.2825 280.92 20.5075C278.852 18.1037 276.59 15.8767 274.186 13.8087C272.967 12.7659 270.969 12.5715 270.121 11.2105C269.697 10.5212 271.659 9.70814 271.199 9.03649C268.937 5.74895 265.19 3.69865 262.768 0.517159C261.319 -1.39174 261.16 -4.09601 259.728 -6.00491C257.554 -8.88593 254.443 -10.9362 252.11 -13.6758C250.979 -14.9838 250.502 -16.7866 249.37 -18.0946C248.275 -19.3495 246.931 -20.41 245.482 -21.2584C235.337 -27.2149 225.209 -33.242 214.657 -38.4385C214.021 -38.7566 213.455 -37.0068 212.836 -37.3426C212.112 -37.7138 212.147 -38.8804 212.235 -39.6934C212.359 -40.7362 213.808 -41.5846 213.473 -42.5744C213.101 -43.6703 211.652 -44.0591 210.574 -44.5363C196.116 -50.9524 181.711 -57.5274 166.952 -63.2011C166.263 -63.4662 165.75 -61.7694 165.079 -62.0522C161.72 -63.4839 157.832 -64.8626 155.852 -67.9203C155.021 -69.1929 158.344 -69.7055 159.723 -70.3418C160.306 -70.6069 160.978 -70.5539 161.597 -70.5539C162.781 -70.5539 164.018 -70.6246 165.167 -70.3241C165.839 -70.1474 166.192 -69.1222 166.881 -69.1752C167.96 -69.2636 168.949 -69.9883 169.762 -70.713C171.371 -72.1623 171.848 -75.5382 174.022 -75.5913C179.307 -75.715 184.327 -73.0814 189.276 -71.1902C195.939 -68.6273 202.443 -65.6049 208.753 -62.2467C212.5 -60.2494 215.929 -57.6865 219.358 -55.1767C220.419 -54.4166 221.073 -53.1794 222.169 -52.4547C223.936 -51.2882 226.039 -50.7049 227.807 -49.5384C231.006 -47.4704 234.082 -45.1903 237.033 -42.7865C238.712 -41.4255 239.932 -39.5343 241.664 -38.2441C244.828 -35.911 247.815 -32.7471 251.686 -31.9871C253.065 -31.722 252.587 -34.6914 252.587 -36.0877C252.587 -37.0245 252.393 -38.138 251.686 -38.7566C248.045 -41.9028 243.679 -44.0945 239.897 -47.0815C235.266 -50.7403 231.254 -55.1413 226.499 -58.6233C224.555 -60.0373 222.01 -60.4085 219.977 -61.6634C218.616 -62.5118 217.838 -64.2086 216.389 -64.8979C215.894 -65.1277 215.47 -63.7137 214.993 -63.9965C213.738 -64.8095 213.384 -66.5947 212.253 -67.5668C211.139 -68.5213 209.69 -69.0162 208.365 -69.6878C203.84 -71.9325 199.35 -74.2656 194.719 -76.2629C192.157 -77.3764 189.329 -77.836 186.766 -78.9849C186.271 -79.2146 185.299 -80.063 185.794 -80.2928C187.596 -81.0882 189.664 -81.2473 191.626 -81.1412C192.899 -81.0705 193.906 -79.8156 195.161 -79.7626C195.851 -79.7272 196.204 -80.8231 196.876 -80.9114C199.262 -81.2296 201.719 -81.2826 204.105 -80.9291C206.65 -80.5579 209.001 -79.2853 211.511 -78.7374C221.798 -76.528 232.42 -75.715 242.495 -72.6926C247.002 -71.3316 250.749 -68.1501 254.779 -65.711C261.319 -61.7341 267.894 -57.8102 274.151 -53.3915C277.916 -50.7403 281.345 -47.6648 284.756 -44.5717C288.202 -41.4255 291.189 -37.7845 294.689 -34.7091C295.926 -33.6309 297.676 -33.2597 298.896 -32.1815C302.996 -28.5228 306.496 -24.2278 310.597 -20.5691C311.993 -19.3318 313.884 -18.7662 315.298 -17.582C317.56 -15.6908 319.346 -13.3047 321.555 -11.3604C322.103 -10.8655 323.004 -10.8655 323.535 -10.3529C327.317 -6.53515 331.064 -2.66434 334.405 1.55998C336.738 4.5117 338.152 8.09972 340.467 11.0691C342.305 13.4376 345.169 14.9576 346.777 17.4851C349.375 21.5504 350.577 26.358 352.893 30.5823C355.173 34.7359 358.301 38.3946 360.511 42.5836C362.137 45.6767 363.374 48.9819 364.328 52.3402C367.917 65.0485 370.426 78.0396 374.138 90.7125C374.916 93.3638 377.054 95.5025 377.779 98.1714C377.974 98.8784 376.453 99.3379 376.63 100.045C377.107 101.971 379.034 103.315 379.547 105.241C379.723 105.931 378.433 106.355 378.451 107.062C378.451 107.751 379.476 108.105 379.6 108.776C380.024 110.915 379.317 113.248 380.042 115.281C380.483 116.518 382.339 116.818 382.87 118.02C383.099 118.533 381.968 118.833 381.88 119.381C381.562 121.131 381.403 122.952 381.65 124.719C381.827 126.009 383.205 127.035 383.099 128.343C382.622 135.324 381.615 142.288 379.989 149.093C377.655 158.779 373.785 168.023 371.257 177.656C370.851 179.211 370.656 180.961 371.204 182.463C371.664 183.701 373.997 183.895 374.05 185.203C374.085 186.582 371.787 187.059 371.381 188.367C371.169 189.056 372.636 189.498 372.494 190.187C371.982 192.644 370.055 194.677 369.56 197.134C369.419 197.858 370.957 198.318 370.727 199.025C369.101 203.903 365.919 208.18 364.275 213.059C364.046 213.73 365.495 214.19 365.371 214.879C365.195 215.816 363.904 216.205 363.551 217.089C361.748 221.525 360.016 226.05 358.955 230.716C358.796 231.405 360.193 231.847 360.069 232.536C359.892 233.491 358.602 233.897 358.213 234.799C356.728 238.21 355.597 241.781 354.484 245.316C352.875 250.406 351.267 255.514 350.065 260.71C349.782 261.912 349.835 263.203 350.1 264.404C350.242 265.076 351.39 265.447 351.249 266.137C351.108 266.791 349.994 266.685 349.535 267.179C348.828 267.939 348.227 268.841 347.82 269.813C345.947 274.249 343.949 278.668 342.694 283.317C340.591 291.058 339.796 299.118 337.763 306.877C336.968 309.9 334.935 312.533 334.246 315.574C334.087 316.263 335.483 316.705 335.359 317.394C335.2 318.331 333.822 318.702 333.539 319.621C331.064 327.592 328.802 335.652 327.176 343.853C327.034 344.56 328.148 344.949 328.378 345.639C328.572 346.24 328.625 346.947 328.413 347.565C327.6 349.934 326.044 352.019 325.355 354.423C325.019 355.607 325.108 356.915 325.373 358.117C325.532 358.824 326.698 359.195 326.575 359.902C326.08 362.925 324.153 365.594 323.623 368.616C323.499 369.323 324.737 369.73 324.737 370.454C324.737 371.144 323.658 371.532 323.676 372.222C323.676 372.911 324.613 373.282 324.807 373.936C325.002 374.52 325.002 375.209 324.807 375.792C324.577 376.446 323.817 376.817 323.605 377.454C323.393 378.055 323.393 378.762 323.57 379.38C324.949 384.082 326.592 388.713 328.236 393.343C329.261 396.207 330.304 399.07 331.594 401.827C333.804 406.582 335.96 411.39 338.717 415.844C340.22 418.283 342.005 420.669 344.285 422.401C345.063 423.002 346.335 422.737 347.219 422.313C348.209 421.835 349.305 421.005 349.464 419.927C349.641 418.672 348.244 417.646 348.085 416.392C347.855 414.624 347.802 412.751 348.333 411.054C348.527 410.417 349.605 410.576 350.065 410.082C351.231 408.809 352.698 407.572 353.105 405.893C353.405 404.655 351.956 403.524 351.956 402.269C351.956 401.58 352.893 401.209 353.087 400.555C353.282 399.971 353.405 399.229 353.087 398.699C352.539 397.762 351.797 396.613 350.719 396.454C349.464 396.26 348.439 397.78 347.184 397.815C346.106 397.833 344.568 397.603 344.161 396.596C342.429 392.283 341.917 387.564 341.227 382.968C340.874 380.6 340.75 378.178 341.033 375.792C341.174 374.502 342.571 373.477 342.482 372.186C342.093 366.354 339.76 360.733 339.601 354.883C339.566 353.645 341.404 353.097 341.917 351.984C342.129 351.524 341.457 350.994 341.581 350.499C342.836 345.939 345.151 341.679 346.053 337.031C346.3 335.776 344.745 334.662 344.886 333.39C344.992 332.453 346.388 332.117 346.671 331.216C347.961 327.204 348.138 322.873 349.535 318.896C352.044 311.791 355.844 305.198 358.354 298.111C358.549 297.563 357.17 297.174 357.4 296.644C357.912 295.442 359.839 295.159 360.193 293.904C360.475 292.861 358.761 291.977 358.973 290.935C359.98 286.109 362.596 281.744 363.728 276.954C364.275 274.621 364.081 272.164 363.94 269.778C363.887 268.947 363.887 267.78 363.127 267.409C362.296 267.003 361.094 267.427 360.405 268.046C359.079 269.212 359.114 271.863 357.453 272.429C356.392 272.8 355.014 270.803 355.42 269.76C357.258 264.811 360.599 260.516 363.515 256.115C364.523 254.613 366.414 253.746 367.139 252.085C367.422 251.449 365.849 250.971 366.078 250.318C366.573 248.886 368.606 248.303 368.977 246.836C369.277 245.616 367.528 244.467 367.846 243.248C368.058 242.452 369.331 242.364 370.144 242.434C371.77 242.576 373.237 244.255 374.827 243.884C375.994 243.619 376.383 242.01 376.842 240.897C379.14 235.311 381.509 229.709 383.082 223.858C383.276 223.151 381.668 222.674 381.95 221.985C383.789 217.495 387.677 213.942 389.056 209.294C391.389 201.393 391.424 192.98 392.944 184.867C394.164 178.38 396.426 172.088 397.257 165.548C397.416 164.258 395.896 163.233 395.808 161.943C395.489 157.223 395.454 152.451 396.055 147.767C396.143 147.113 397.328 147.29 397.787 146.795C398.901 145.593 400.138 144.356 400.668 142.818C401.128 141.493 400.827 140.008 400.58 138.629C400.474 138.064 399.625 137.763 399.661 137.198C399.714 136.508 400.721 136.173 400.81 135.483C401.198 132.549 401.322 129.562 401.039 126.61C400.916 125.355 399.378 124.313 399.661 123.075C399.979 121.591 402.012 120.99 402.577 119.593C403.037 118.48 402.825 117.154 402.577 115.97C402.436 115.298 401.428 114.945 401.428 114.256C401.428 113.549 402.701 113.124 402.542 112.435C401.87 109.466 400.014 106.885 399.113 103.986C397.84 99.8505 396.603 95.6615 396.055 91.3665C395.967 90.6241 397.381 90.2 397.239 89.4576C396.356 84.9858 394.623 80.7085 393.121 76.4135C392.361 74.2571 391.654 72.0654 390.47 70.1035C387.907 65.8085 384.248 62.2028 381.933 57.7664C381.597 57.1301 383.011 56.7059 383.117 55.9989C383.417 54.2314 383.806 52.2695 383.117 50.608C381.632 46.967 379.122 43.8032 376.825 40.604C374.35 37.1574 371.027 34.3294 368.8 30.7237C366.273 26.6231 365.018 21.8332 362.685 17.6265C362.031 16.46 360.687 15.8237 359.91 14.7455C357.418 11.3342 354.978 7.86995 352.91 4.21123C351.196 1.17113 350.312 -2.31083 348.562 -5.33325C347.891 -6.4998 346.565 -7.1361 345.77 -8.21427C343.985 -10.6534 342.836 -13.5698 340.838 -15.8499C338.664 -18.3244 335.642 -19.9328 333.397 -22.3542C332.125 -23.7152 331.594 -25.6241 330.41 -27.0558C328.643 -29.1768 326.363 -30.8559 324.56 -32.9592C322.916 -34.8858 321.891 -37.3073 320.106 -39.0924C318.798 -40.4004 316.818 -40.8776 315.404 -42.0795C312.665 -44.4303 310.685 -47.6471 307.716 -49.7151C304.852 -51.7124 301.14 -52.2073 298.171 -54.0631C296.368 -55.1943 295.272 -57.227 293.593 -58.5349C289.599 -61.6634 285.693 -65.0393 281.203 -67.3901C271.058 -72.6926 260.488 -77.1643 249.848 -81.371C243.997 -83.6864 237.882 -85.3125 231.819 -86.9739C227.153 -88.2465 222.434 -89.3247 217.679 -90.1731C210.839 -91.3927 203.963 -92.6653 197.035 -93.1602C195.762 -93.2486 194.684 -92.1174 193.429 -91.8876C192.227 -91.6755 190.919 -91.4811 189.753 -91.8699C186.129 -93.1072 183.001 -95.5817 179.342 -96.6952C177.61 -97.2254 175.683 -96.9603 173.898 -96.6775C173.209 -96.5715 172.873 -95.5286 172.184 -95.5286C171.495 -95.5286 171.141 -96.5361 170.469 -96.6775C169.267 -96.9426 167.96 -97.031 166.775 -96.7129C160.571 -95.0514 154.279 -93.4607 148.429 -90.7741C143.197 -88.3703 138.566 -84.8353 133.847 -81.5301C132.327 -80.4696 131.549 -78.3486 129.817 -77.7476C127.537 -76.9876 124.939 -77.1467 122.606 -77.7299C121.086 -78.1188 119.795 -79.303 118.805 -80.5226C118.54 -80.8407 119.848 -81.2649 119.53 -81.5301C117.321 -83.3859 114.758 -84.7646 112.195 -86.0902C111.629 -86.373 110.958 -86.3023 110.321 -86.3023C107.352 -86.3023 104.312 -86.6735 101.378 -86.0902C95.0679 -84.8529 88.7403 -83.3506 82.7838 -80.9114C81.3522 -80.3282 81.2991 -77.9597 79.9028 -77.3057C79.2312 -76.9876 78.8777 -79.0556 78.1883 -78.7551C76.9334 -78.2072 76.7744 -76.3159 75.7139 -75.4675C73.4868 -73.6824 70.7118 -72.6749 68.4671 -70.9251C66.6112 -69.4757 64.9498 -67.7613 63.4474 -65.9407C62.2632 -64.5091 61.6799 -62.6355 60.4604 -61.2392C59.8064 -60.4968 58.6045 -60.4261 57.9505 -59.6838C55.0165 -56.2725 52.701 -52.3487 49.8554 -48.8667C48.4944 -47.1876 46.6562 -45.9327 45.3129 -44.2359C39.8337 -37.3073 34.3898 -30.308 29.4054 -23.0082C26.7365 -19.1197 24.5802 -14.8954 22.4061 -10.7064C21.3103 -8.60312 20.0554 -6.4998 19.6135 -4.18438C19.4721 -3.47738 20.7977 -3.12388 20.7977 -2.39921C20.7977 -1.16196 19.5958 -0.119133 19.5781 1.13579C19.5781 2.40839 21.0275 3.5219 20.7447 4.75916C19.7902 9.0365 17.1213 12.7659 16.0608 17.0079C15.8841 17.6972 17.4041 18.1568 17.1743 18.8461C16.7148 20.2778 14.8236 20.9494 14.3464 22.3811C14.1343 23.0351 15.4245 23.4593 15.4069 24.1486C15.4069 24.8379 14.4701 25.2091 14.2757 25.8631C14.0812 26.4463 14.0812 27.1357 14.2757 27.7189C14.4878 28.3729 15.4069 28.7441 15.4069 29.4334C15.4069 30.1227 14.4701 30.4939 14.2757 31.1479C14.0812 31.7311 14.1166 32.4028 14.2757 33.0037C14.5938 34.2233 15.8487 35.2308 15.7073 36.4857C15.2301 40.6924 12.9854 44.5632 12.4728 48.7522C12.3137 50.0071 13.7454 51.0853 13.7277 52.3578C13.6747 54.7793 12.4198 57.0594 12.243 59.4809C11.9249 63.5991 11.9072 67.7351 12.2607 71.8533C12.3668 73.1259 13.5687 74.1334 13.6394 75.3883C13.6747 76.0777 12.5789 76.4665 12.5789 77.1558C12.5789 77.8452 13.6394 78.234 13.6394 78.9233C13.6394 79.6127 12.5789 80.0015 12.5789 80.6908C12.5789 81.3802 13.6747 81.769 13.6394 82.4583C13.5687 83.7132 12.2607 84.7384 12.2784 85.9933C12.2784 87.2482 13.4449 88.2557 13.7277 89.4753C14.0105 90.6418 14.1519 91.8614 13.9575 93.0456C13.7454 94.3006 12.6496 95.3257 12.5789 96.5806C12.5435 97.2699 13.6394 97.6588 13.6394 98.3481C13.6394 99.0374 12.5789 99.4263 12.5789 100.116C12.5789 100.805 13.6394 101.194 13.6394 101.883C13.6394 102.572 12.5789 102.961 12.5789 103.651C12.5789 104.34 13.657 104.729 13.6394 105.418C13.6217 106.107 12.6142 106.461 12.4905 107.133C12.1547 108.882 12.0133 110.703 12.2607 112.47C13.0207 117.808 14.8766 122.969 15.4776 128.325C15.5659 129.067 14.2226 129.491 14.2757 130.234C14.9827 140.627 16.2906 150.967 17.7399 161.271C17.952 162.756 19.2246 164.011 19.2423 165.513C19.2423 166.803 17.6339 167.828 17.8283 169.119C18.7828 175.658 21.6815 181.827 22.6006 188.384C22.8657 190.258 21.1512 192.025 21.3103 193.899C21.7345 198.636 23.7848 203.125 24.315 207.862C24.4034 208.569 23.3429 208.976 23.1131 209.647C22.901 210.266 22.9541 210.955 23.0778 211.574C26.3123 228.648 31.8799 245.386 33.1879 262.725C33.7004 269.353 29.5645 275.54 28.4333 282.097C28.3096 282.804 29.5645 283.211 29.5468 283.935C29.5468 284.625 28.5217 284.978 28.398 285.65C28.0621 287.4 27.9384 289.22 28.1682 290.988C28.3273 292.243 29.5468 293.268 29.5468 294.523C29.5468 295.778 28.2212 296.803 28.1682 298.058C27.7617 308.062 27.691 318.083 28.1682 328.087C28.2742 330.12 29.5292 331.941 29.9003 333.938C31.1906 340.76 32.5339 347.618 33.1525 354.529C33.2232 355.254 32.092 355.625 31.9329 356.332C31.6678 357.534 31.7032 358.806 31.8976 360.026C33.1348 367.503 34.5135 374.961 36.2633 382.332C37.8541 389.048 39.4095 395.818 41.9193 402.234C46.5855 414.147 51.835 425.83 57.7207 437.177C58.4631 438.609 60.1952 439.281 61.5915 440.111C61.8743 440.288 62.3162 440.288 62.5813 440.076C62.8818 439.846 63.0939 439.369 62.9879 438.998C61.7153 433.837 60.425 428.64 58.5515 423.674C55.423 415.384 51.7466 407.307 48.0172 399.282C47.6637 398.54 45.8255 398.116 46.3381 397.462C47.8581 395.517 51.7996 395.783 52.5773 393.432C53.3197 391.187 50.8982 388.995 49.7847 386.91C49.3251 386.044 48.1055 385.619 47.9288 384.665C47.8051 383.976 49.1837 383.534 49.0246 382.844C47.9111 378.055 45.2599 373.689 44.2701 368.864C44.0226 367.609 45.419 366.495 45.4366 365.223C45.4366 364.533 44.3585 364.144 44.3761 363.455C44.3761 362.73 45.578 362.324 45.5073 361.617C44.924 355.148 42.9975 348.838 42.4849 342.351C42.3789 341.061 43.9166 339.93 43.7222 338.639C43.3156 336.129 40.5583 334.15 40.7528 331.622C41.283 324.27 44.4999 317.341 45.8078 310.077C47.2571 302.034 48.5297 293.922 49.0423 285.756C49.1307 284.466 47.7344 283.423 47.5753 282.132C47.2395 279.216 47.2395 276.229 47.5753 273.313C47.7167 272.058 48.8832 271.033 48.9539 269.778C48.9893 269.088 47.7344 268.664 47.8934 268.01C48.0348 267.427 49.1484 266.95 49.5549 267.374C51.4991 269.424 52.3299 272.323 54.0974 274.515C54.716 275.275 55.9356 275.381 56.6072 276.088C58.357 277.943 60.9022 279.623 61.3264 282.15C61.5562 283.546 58.8519 283.706 58.0742 284.89C56.3421 287.523 54.8574 290.369 53.9736 293.391C51.9233 300.338 51.0573 307.602 49.2721 314.619C49.007 315.644 47.9288 316.404 47.8581 317.447C47.8051 318.154 49.1837 318.596 48.9539 319.268C48.459 320.699 46.6032 321.353 46.0376 322.75C45.578 323.863 45.4543 325.33 46.0376 326.373C46.4618 327.08 47.646 327.098 48.459 326.921C49.4665 326.726 50.5624 326.214 51.1456 325.348C52.8778 322.82 53.9206 319.886 55.1579 317.094C56.13 314.92 57.4203 312.816 57.8268 310.465C57.9505 309.741 56.5542 309.299 56.6602 308.574C57.1375 304.969 58.3924 301.504 59.4706 298.04C60.0361 296.237 60.7432 294.47 61.6092 292.808C61.9804 292.119 63.0939 291.818 63.1469 291.023C63.2353 289.768 62.2102 288.672 62.0158 287.435C61.9804 287.188 62.2455 286.869 62.493 286.869C63.3944 286.869 64.4019 286.94 65.1619 287.453C66.735 288.548 68.1666 289.945 69.2271 291.536C72.3733 296.237 74.4413 301.61 77.6935 306.241C78.6479 307.602 80.5214 308.026 81.635 309.246C83.9504 311.791 86.1244 314.495 87.8919 317.447C88.4222 318.331 87.9449 319.568 88.3691 320.522C88.705 321.318 90.278 321.636 90.0836 322.484C89.7655 323.81 87.6798 324.128 87.2379 325.401C86.9198 326.302 88.1924 327.151 88.104 328.105C88.0156 329.36 86.8137 330.385 86.743 331.64C86.7077 332.329 87.9273 332.736 87.8035 333.408C87.6268 334.309 86.4072 336.342 86.0184 335.511C84.1802 331.569 84.3569 326.956 82.9076 322.873C82.6955 322.255 81.4405 322.52 81.1931 321.919C79.7261 318.366 79.2842 314.442 77.9409 310.854C77.7642 310.359 77.1985 310.006 76.686 309.918C76.3325 309.864 75.9967 310.2 75.8022 310.483C74.618 312.145 73.151 313.735 72.5854 315.697C72.3733 316.404 73.805 316.846 73.7519 317.588C73.1687 326.408 70.7295 335.087 70.7295 343.906C70.7295 352.231 73.1863 360.38 73.7519 368.687C73.805 369.429 72.391 369.871 72.55 370.596C75.325 383.092 78.8777 395.411 82.4303 407.713C83.208 410.417 84.1625 413.086 85.5058 415.543C88.864 421.729 92.399 427.863 96.4996 433.589C99.1332 437.283 102.103 440.783 105.585 443.682C106.345 444.318 107.653 444.018 108.536 443.593C109.526 443.134 111.011 442.268 110.781 441.207C110.374 439.422 108.183 438.609 107.105 437.124C104.595 433.695 102.315 430.107 100.035 426.502C98.2141 423.638 96.3582 420.757 94.8028 417.735C92.5051 413.298 90.0659 408.88 88.4752 404.125C88.2454 403.453 89.4827 403.047 89.6771 402.358C89.9952 401.209 89.9422 399.971 89.9422 398.77C89.9422 395.8 90.0659 392.831 89.6771 389.879C89.5887 389.19 88.4398 388.836 88.5282 388.147C88.5989 387.564 89.6948 387.687 90.0129 387.193C91.2678 385.301 92.6111 383.357 93.1767 381.148C93.3535 380.458 92.2046 380.052 91.9925 379.362C91.7981 378.779 91.692 378.037 91.9925 377.507C92.7172 376.181 94.414 375.456 94.8912 374.025C95.121 373.335 93.6716 372.893 93.76 372.186C94.9619 363.879 97.6485 355.819 98.7443 347.495C99.2569 343.624 99.3806 339.594 98.5853 335.758C98.2318 334.062 95.9517 333.266 95.4921 331.605C95.3154 330.933 96.8885 332.188 97.5424 331.976C98.3908 331.711 98.7267 330.173 99.6104 330.279C100.848 330.42 101.731 331.64 102.58 332.559C104.312 334.433 106.61 336.147 107.317 338.604C107.829 340.407 105.744 342.174 105.885 344.03C105.991 345.374 108.006 346.134 108.006 347.495C108.006 348.855 106.256 349.651 105.867 350.959C105.514 352.125 105.514 353.469 105.867 354.635C106.256 355.943 108.006 356.739 108.006 358.099C108.006 359.46 106.38 360.309 105.867 361.564C105.638 362.129 105.814 362.801 105.832 363.402C105.885 364.604 105.761 365.823 106.097 366.972C106.292 367.644 107.281 367.962 107.317 368.651C107.37 369.747 105.956 370.79 106.345 371.815C106.839 373.088 109.296 372.999 109.561 374.343C109.897 376.04 108.183 377.56 107.847 379.256C107.617 380.441 107.087 381.961 107.865 382.88C108.501 383.622 110.374 381.925 110.816 382.791C111.382 383.905 109.774 385.089 109.614 386.326C109.367 388.129 109.013 390.056 109.597 391.77C110.304 393.927 112.266 395.464 113.326 397.462C114.97 400.555 116.013 403.931 117.674 407.006C117.957 407.519 118.505 408.279 119.071 408.102C120.113 407.784 121.245 406.918 121.457 405.857C122.234 402.004 120.679 397.815 121.899 394.086C122.553 392.071 125.54 391.7 126.671 389.897C127.024 389.314 125.522 388.819 125.61 388.129C125.681 387.581 126.741 387.705 127.007 387.21C128.332 384.7 129.658 382.137 130.259 379.362C130.418 378.638 128.969 378.196 129.075 377.471C129.676 373.848 131.531 370.525 132.291 366.919C132.539 365.753 132.362 364.498 132.062 363.349C131.885 362.677 130.93 362.324 130.913 361.634C130.895 360.945 131.973 360.556 131.973 359.867C131.973 359.178 130.648 358.736 130.913 358.099C131.531 356.615 132.557 354.529 134.165 354.529C135.738 354.529 137.276 356.491 137.311 358.064C137.346 359.602 134.943 360.185 134.359 361.599C133.9 362.713 134.094 364.038 134.359 365.223C134.518 365.912 135.72 366.301 135.544 366.99C135.049 368.917 132.963 370.207 132.574 372.151C132.327 373.424 133.988 374.555 133.776 375.845C133.299 378.921 131.249 381.59 130.595 384.63C130.418 385.443 130.648 386.609 131.372 386.998C132.433 387.581 133.882 387.458 134.996 386.998C136.021 386.592 136.763 385.602 137.329 384.665C137.665 384.117 137.841 383.339 137.541 382.756C136.763 381.201 135.208 380.158 134.289 378.673C134.094 378.355 134.059 377.825 134.289 377.542C134.713 377.012 135.579 377.012 136.039 376.517C137.205 375.244 138.478 373.936 139.096 372.328C139.538 371.179 139.326 369.853 139.096 368.651C138.99 368.104 137.93 367.821 138.106 367.29C138.619 365.788 140.457 364.94 140.899 363.402C141.094 362.713 139.733 362.324 139.733 361.617C139.733 360.927 140.758 360.574 140.881 359.902C141.27 357.87 139.521 354.865 141.235 353.716C146.025 350.535 152.406 350.87 157.726 348.714C160.96 347.406 163.47 344.613 166.722 343.359C167.412 343.093 167.871 344.649 168.596 344.507C170.911 344.066 173.156 343.058 175.118 341.768C178.618 339.47 181.18 335.847 184.857 333.832C188.286 331.958 192.404 331.746 196.027 330.314C199.191 329.077 202.284 327.592 205.165 325.807C206.703 324.853 207.534 322.909 209.178 322.184C209.814 321.901 210.273 323.386 210.945 323.244C211.935 323.032 212.394 321.777 213.278 321.318C216.371 319.692 219.853 318.826 222.823 316.97C224.625 315.839 225.721 313.806 227.4 312.498C230.299 310.218 233.569 308.468 236.485 306.223C238.306 304.809 240.392 303.519 241.593 301.557C242.071 300.78 241.434 299.684 240.993 298.888C240.621 298.217 240.038 297.28 239.278 297.368C235.001 297.828 230.67 298.729 226.711 300.444C218.793 303.873 211.776 309.14 203.928 312.693C203.274 312.975 202.744 311.279 202.108 311.597C199.704 312.781 198.237 315.361 195.886 316.652C191.255 319.215 186.112 320.682 181.375 323.05C176.974 325.242 173.05 328.406 168.525 330.314C167.889 330.58 167.465 329.395 166.811 329.183C166.21 328.989 165.503 328.953 164.902 329.166C163.611 329.59 162.569 330.58 161.278 331.021C156.135 332.771 151.009 334.769 145.654 335.741C144.399 335.97 143.321 334.503 142.066 334.486C140.811 334.486 139.768 335.546 138.531 335.723C136.728 335.97 134.819 336.253 133.087 335.741C129.499 334.68 126.6 331.552 122.906 331.092C121.315 330.898 120.608 333.549 119.053 333.955C118.417 334.132 119.954 332.365 119.406 332.011C114.404 328.777 107.953 327.84 103.464 323.898C100.282 321.106 99.8048 316.21 97.4541 312.693C96.9061 311.862 95.5275 311.897 94.9266 311.102C91.3739 306.542 88.9171 301.168 85.1169 296.803C82.448 293.745 78.5595 291.96 75.6962 289.096C74.3882 287.788 73.8933 285.827 72.7091 284.395C70.4821 281.708 67.4066 279.711 65.4977 276.777C65.1265 276.194 66.8233 275.646 66.5582 275.009C64.6316 270.467 61.2911 266.596 59.2761 262.089C56.8723 256.734 55.7411 250.865 53.3373 245.492C51.3224 240.985 47.9641 237.132 46.0553 232.572C45.7901 231.936 46.9743 231.511 47.1864 230.857C47.3809 230.256 47.4162 229.549 47.2041 228.948C45.8255 224.813 43.351 221.012 42.4496 216.735C42.1844 215.462 43.7752 214.42 43.8989 213.129C44.1817 210.178 44.058 207.191 43.6691 204.257C43.5808 203.567 42.5379 203.231 42.5203 202.542C42.5026 201.853 43.6161 201.464 43.5808 200.775C43.5101 199.52 42.2021 198.495 42.2198 197.24C42.2198 195.985 43.5984 195.013 43.6515 193.758C43.7045 192.503 42.5026 191.424 42.5203 190.17C42.5203 189.127 43.8989 188.261 43.6868 187.236C43.404 185.91 41.7779 185.256 41.23 184.019C41.0356 183.595 41.7602 183.17 41.7072 182.711C40.8942 175.164 39.1443 167.705 38.6494 160.122C38.5611 158.867 39.9751 157.842 40.0281 156.587C40.0634 155.862 38.8262 155.456 38.8969 154.749C39.5509 147.838 40.8411 140.98 42.1491 134.158C42.4142 132.761 43.8636 131.542 43.6161 130.145C43.3333 128.625 41.4951 127.883 40.7351 126.54C40.6114 126.328 40.9649 125.956 41.23 125.956C42.1314 125.956 43.1035 126.098 43.8989 126.54C44.9417 127.123 45.4897 128.36 46.5325 128.908C47.0804 129.191 47.9641 129.332 48.406 128.908C48.9893 128.325 49.0953 127.317 48.9539 126.504C48.8479 125.833 47.8581 125.515 47.752 124.825C47.6283 124.03 47.5399 122.386 48.353 122.474C49.8554 122.651 50.3856 125.32 51.9057 125.302C53.4257 125.285 53.956 122.863 55.3876 122.386C57.1021 121.82 59.1171 121.714 60.7785 122.386C61.5562 122.722 61.5562 124.048 61.3618 124.861C60.7608 127.406 59.8948 129.969 58.4808 132.16C58.198 132.602 57.6324 131.029 57.1905 131.294C55.5114 132.284 53.1429 133.433 53.0192 135.377C52.8955 137.145 55.0165 138.594 56.6779 139.195C58.0212 139.69 59.4352 138.064 60.8492 138.241C65.0028 138.771 68.8913 140.715 73.0449 141.245C73.7519 141.334 74.1408 140.273 74.8301 140.043C75.4487 139.831 76.1204 139.884 76.7567 139.99C84.4276 141.44 91.9218 143.914 99.6634 144.763C100.459 144.851 98.9918 143.207 99.0802 142.412C99.1685 141.723 100.194 141.334 100.141 140.644C100.052 139.637 99.5044 138.576 98.6736 137.993C96.7117 136.597 92.5934 137.304 92.0985 134.953C91.5683 132.319 95.5982 130.782 96.694 128.343C97.1889 127.247 96.9415 125.903 96.694 124.719C96.5526 124.048 95.2093 123.606 95.5452 122.987C95.934 122.262 97.1889 122.033 97.9313 122.368C100.512 123.517 102.103 126.999 104.913 127.176C106.839 127.3 108.819 124.967 108.996 123.04C109.137 121.555 106.574 121.29 105.532 120.212C104.383 119.01 103.764 117.349 102.527 116.253C101.431 115.281 99.9639 114.804 98.656 114.15C96.7471 113.177 94.9089 112.011 92.8586 111.357C88.7403 110.031 84.4983 109.024 80.2563 108.193C79.0368 107.963 77.7111 107.857 76.5092 108.193C74.1054 108.882 72.0551 110.562 69.6513 111.251C68.4671 111.587 67.1592 111.498 65.9749 111.233C65.2679 111.074 64.8968 109.908 64.1898 110.031C61.185 110.508 58.3217 111.746 55.5114 112.912C53.0545 113.92 50.9689 115.793 48.406 116.5C47.699 116.695 47.2395 115.175 46.5325 115.351C44.6059 115.846 43.3156 117.914 41.3714 118.321C40.1341 118.568 38.9853 116.871 37.7303 117.154C36.2633 117.49 35.6977 119.806 34.1953 119.982C33.4 120.071 33.5237 118.445 33.5944 117.632C33.6474 117.084 34.7963 116.783 34.5665 116.271C34.0893 115.175 31.9153 114.998 31.9683 113.814C32.039 111.922 34.0539 110.65 34.8316 108.935C35.0968 108.37 35.1498 107.68 35.0261 107.062C34.6549 105.241 33.6474 103.58 33.3469 101.759C33.1525 100.575 33.2762 99.3379 33.5767 98.189C33.7535 97.5174 34.6726 97.1639 34.7256 96.4746C34.7609 95.9266 33.4883 95.5024 33.8242 95.0782C35.3442 93.2224 37.2531 91.4902 39.4978 90.6242C40.4876 90.253 41.4067 92.0912 42.4319 91.7907C43.6868 91.4372 43.8989 88.7152 45.1715 88.998C47.3455 89.493 48.2469 92.2503 50.0675 93.5229C50.5624 93.8764 51.2694 93.7526 51.888 93.7526C53.6732 93.7526 55.476 93.8587 57.2258 93.5229C58.4631 93.2754 59.4529 92.1265 60.7255 92.0381C66.6466 91.6846 72.6207 91.4195 78.4888 92.2503C80.4507 92.5331 81.7057 94.7247 83.5969 95.2903C85.7002 95.909 88.0863 94.9899 90.1543 95.7145C91.3916 96.1564 91.692 98.0123 92.8939 98.5425C93.4065 98.7723 93.707 97.7295 94.2549 97.5704C94.8382 97.3937 95.5275 97.3583 96.1108 97.5704C96.7647 97.8002 97.1182 98.6486 97.7899 98.8077C98.9741 99.0728 100.3 99.2672 101.413 98.8077C102.704 98.2774 103.145 95.9973 104.542 96.0504C106.15 96.1034 106.839 98.5249 108.36 99.0198C109.261 99.3203 110.304 98.7546 111.064 98.189C112.937 96.7927 114.245 94.7247 116.066 93.2577C117.338 92.2326 119.053 91.8084 120.272 90.7302C122.005 89.1925 124.391 87.7608 124.815 85.4807C125.098 83.89 123.295 82.4583 121.934 81.5746C121.121 81.0443 119.937 81.3978 119 81.6453C118.328 81.822 117.816 83.2183 117.268 82.7941C116.366 82.1048 117.091 80.302 116.26 79.5243C114.616 77.9866 112.531 76.6609 110.304 76.3251C108.466 76.0423 106.769 77.7745 104.895 77.7921C103.64 77.7921 102.615 76.4842 101.36 76.4312C100.671 76.3958 100.335 77.5624 99.6458 77.5624C98.3908 77.5624 97.3127 76.4312 96.0577 76.4312C95.3684 76.4312 94.9972 77.3679 94.3433 77.5624C93.7423 77.7568 93.0707 77.7568 92.4874 77.5624C91.8334 77.3326 91.4623 76.5726 90.826 76.3605C90.225 76.1484 89.4827 76.0423 88.9171 76.3428C85.8593 77.8982 83.4732 80.8499 80.1679 81.7867C78.8777 82.1578 77.9762 80.0368 76.6506 79.8601C75.9436 79.7717 75.6255 80.9736 74.9185 81.115C73.1687 81.4862 71.3481 81.3801 69.563 81.3801C68.3611 81.3801 67.1415 81.4332 65.9749 81.115C65.3033 80.9383 64.9498 79.9838 64.2605 79.9662C63.5711 79.9485 63.1823 81.0443 62.493 81.0266C61.8036 81.0266 61.4325 80.0899 60.7785 79.8954C60.1776 79.701 59.5059 79.701 58.9226 79.8954C58.2687 80.1075 57.8975 81.0266 57.2082 81.0266C56.5188 81.0266 56.1653 80.0015 55.4937 79.8778C53.7439 79.5419 51.835 79.0647 50.1558 79.648C46.9743 80.7262 44.5529 83.5011 41.4067 84.6854C39.922 85.251 37.8717 85.7635 36.6522 84.7384C33.7004 82.2816 31.7739 78.7112 30.1301 75.2469C29.812 74.593 31.4557 74.0804 31.279 73.3734C30.7841 71.4291 27.9561 70.0858 28.3273 68.1062C29.8296 60.1348 34.3367 52.9941 36.5815 45.1995C36.7759 44.5101 35.3265 44.0683 35.4679 43.3613C35.5917 42.7073 36.7229 42.8134 37.1647 42.3361C37.9778 41.4347 38.6671 40.3919 39.1443 39.296C40.7881 35.5843 41.6542 31.5544 43.5101 27.9487C46.0553 23.0351 48.9009 18.2452 52.2768 13.8618C54.9811 10.3621 58.3924 7.46342 61.6446 4.47636C62.1925 3.98146 63.0939 3.98145 63.6242 3.46888C65.0735 2.00185 66.3108 0.358086 67.4243 -1.37406C69.015 -3.84856 70.0225 -6.67655 71.7016 -9.09802C72.7091 -10.5297 73.9994 -11.7669 75.4134 -12.8098C80.7866 -16.8043 86.6723 -20.1095 91.9925 -24.1748C92.7879 -24.7757 92.7525 -26.172 93.5832 -26.72C96.3936 -28.6112 99.7165 -29.601 102.668 -31.2978C103.517 -31.7927 103.905 -33.1006 104.878 -33.2244C106.115 -33.4011 107.211 -32.1108 108.466 -32.0932C109.155 -32.0932 109.579 -33.3834 110.233 -33.1537C111.665 -32.6411 112.319 -30.8029 113.715 -30.2373C114.829 -29.7777 116.366 -29.5303 117.338 -30.2373C119.212 -31.5806 119.672 -34.3025 121.421 -35.8226C123.807 -37.8905 126.582 -39.5697 129.516 -40.7539C134.66 -42.8572 139.98 -44.7661 145.477 -45.6322C147.333 -45.9327 149.03 -44.3949 150.886 -44.1475C152.07 -43.9884 153.307 -44.0768 154.456 -44.3773C155.145 -44.554 155.534 -45.7382 156.241 -45.5792C166.051 -43.5289 175.666 -40.7185 185.281 -37.9259C189.046 -36.8301 192.793 -35.6458 196.328 -33.949C197.459 -33.4011 197.919 -31.8987 199.032 -31.3331C201.542 -30.0782 204.511 -29.9545 206.968 -28.6112C207.799 -28.1693 207.764 -26.8614 208.435 -26.2074C209.902 -24.758 211.528 -23.4678 213.278 -22.4073C216.919 -20.1802 220.914 -18.6072 224.537 -16.3624C226.428 -15.1959 228.178 -13.7642 229.751 -12.1911C232.968 -8.9743 236.185 -5.72211 238.854 -2.04572C241.841 2.05488 243.874 6.7741 246.684 10.9807C247.426 12.0943 248.858 12.6952 249.477 13.8794C256.246 26.6231 263.263 39.3137 268.795 52.6406C271.606 59.4102 272.79 66.7453 274.416 73.886C276.095 81.3094 277.721 88.7683 278.711 96.3155C278.799 97.0225 277.297 97.4997 277.58 98.1537C278.304 99.7798 279.471 102.025 281.274 102.06C282.847 102.078 283.678 99.7798 284.049 98.2421C284.632 95.909 284.349 93.4168 284.049 91.0307C283.96 90.3413 282.9 90.0055 282.9 89.3162C282.9 88.5915 284.119 88.185 284.013 87.478C282.918 80.1606 281.221 72.9492 279.383 65.7908C277.916 60.1348 276.325 54.4965 274.115 49.088C272.772 45.7828 270.068 43.1315 268.76 39.8086C268.512 39.1723 270.121 38.6597 269.82 38.0411C267.947 34.0819 264.712 30.8828 262.697 26.9943C261.407 24.5021 261.336 21.4973 259.975 19.0405C256.812 13.3669 252.481 8.4002 249.211 2.79723C248.699 1.93116 249.37 0.623215 248.787 -0.189835C247.833 -1.51546 245.977 -1.97501 244.881 -3.19458C243.661 -4.57323 243.078 -6.4291 241.929 -7.86077C240.392 -9.76967 238.094 -11.0599 236.857 -13.1633C236.45 -13.8526 236.945 -14.8777 237.458 -15.514C237.67 -15.7792 238.041 -15.1782 238.306 -14.9838C240.869 -13.0396 243.75 -11.4311 245.959 -9.09802C249.158 -5.70443 251.315 -1.46243 254.39 2.03721C255.486 3.27446 257.236 3.82238 258.332 5.04195C259.481 6.31455 259.816 8.20578 261.036 9.40768C262.662 11.0161 265.137 11.6524 266.674 13.3315C268.866 15.7353 269.979 18.9698 272.065 21.462C273.126 22.7346 275.017 23.1588 276.024 24.4667C277.81 26.7822 278.658 29.7162 280.266 32.1553C280.991 33.2335 282.317 33.8521 282.988 34.9657C286.824 41.2933 290.323 47.833 293.717 54.4081C294.795 56.4938 296.227 58.5971 296.404 60.9302C296.474 61.92 295.378 62.9982 294.389 63.1396C293.523 63.2633 293.222 61.2484 292.391 61.4958C291.154 61.8493 290.518 63.3163 289.899 64.4299C289.581 64.9778 289.687 65.6671 289.687 66.3034C289.687 68.0886 289.422 69.9268 289.917 71.6412C290.2 72.5957 291.508 72.9492 291.861 73.8683C294.353 80.0722 296.598 86.3822 298.436 92.8159C298.648 93.5759 298.277 94.4243 297.924 95.1313C296.58 97.9416 294.159 100.292 293.434 103.332C292.992 105.135 295.255 107.009 294.671 108.776C293.929 111.003 291.03 111.923 289.917 113.99C289.351 115.051 289.634 116.447 289.917 117.614C290.076 118.285 290.977 118.621 291.154 119.293C291.49 120.442 291.419 121.679 291.419 122.881C291.419 124.083 291.472 125.302 291.172 126.469C290.977 127.158 289.775 127.565 289.988 128.236C290.482 129.863 291.578 131.4 292.975 132.372C293.558 132.779 294.512 132.213 294.99 131.683C296.032 130.534 296.704 129.067 297.305 127.653C298.896 123.941 299.921 120 301.6 116.324C301.83 115.811 302.431 115.033 302.926 115.298C304.622 116.218 306.178 117.614 307.079 119.311C307.786 120.654 306.531 122.669 307.486 123.853C309.13 125.921 313.442 125.603 314.149 128.148C315.917 134.423 315.811 141.404 314.167 147.732C312.93 152.522 307.503 155.385 305.895 160.051C305.382 161.536 307.185 163.233 308.617 163.905C309.483 164.311 310.455 163.198 311.127 162.526C313.159 160.529 315.051 158.355 316.624 155.986C318.391 153.37 320.106 150.631 321.131 147.644C321.361 146.99 320.053 146.565 320.07 145.876C320.088 145.187 321.042 144.816 321.219 144.162C321.52 143.013 321.643 141.776 321.449 140.591C321.237 139.336 320.123 138.311 320.07 137.056C320.035 136.332 321.272 135.925 321.202 135.218C320.671 129.421 320.406 123.429 318.321 118.003C317.472 115.776 313.725 115.634 312.841 113.443C311.71 110.615 310.826 106.602 312.806 104.269C317.013 99.3203 323.57 96.9341 329.367 94.0001C330.481 93.4345 331.93 93.5405 333.097 94.0001C334.688 94.6187 335.995 95.8383 337.18 97.0578C337.445 97.3407 337.321 97.8709 337.197 98.2421C336.102 101.901 334.14 105.347 333.556 109.13C331.948 119.523 331.17 130.022 330.64 140.521C330.605 141.245 331.842 141.599 331.842 142.323C331.86 143.578 330.658 144.657 330.711 145.911C330.764 147.184 331.966 148.192 332.089 149.446C332.354 151.833 332.354 154.272 331.877 156.623C330.286 164.576 328.766 172.601 325.938 180.201C324.843 183.153 322.333 185.397 320.247 187.783C318.214 190.117 316.447 193.068 313.601 194.253C310.844 195.401 307.556 194.853 304.622 194.27C302.873 193.917 301.3 192.768 300.009 191.531C298.348 189.94 297.782 187.324 295.926 185.963C295.202 185.433 294.07 186.122 293.257 186.564C292.586 186.935 291.843 187.536 291.72 188.296C291.225 191.212 291.207 194.217 291.49 197.169C291.614 198.424 292.798 199.449 292.869 200.704C292.904 201.393 291.79 201.782 291.808 202.471C291.826 203.514 293.187 204.38 292.975 205.405C292.692 206.731 291.066 207.385 290.518 208.622C290.323 209.046 291.066 209.506 290.96 209.966C288.909 219.616 286.205 229.125 284.119 238.776C282.918 244.29 281.663 249.823 281.115 255.426C281.044 256.168 282.387 256.592 282.317 257.334C281.698 264.44 279.63 271.368 279.117 278.474C279.029 279.746 280.744 280.789 280.514 282.062C280.178 284.024 278.092 285.332 277.597 287.258C277.421 287.965 278.976 288.442 278.729 289.132C273.939 302.989 267.699 316.316 262.768 330.138C261.336 334.132 261.266 338.533 259.693 342.457C258.827 344.596 256.794 346.027 255.557 347.972C253.878 350.623 251.438 353.097 250.997 356.208C250.767 357.799 253.259 358.647 253.789 360.167C253.984 360.698 252.994 361.034 252.888 361.581C252.835 361.829 253.118 362.112 253.365 362.165C254.337 362.359 255.663 362.995 256.317 362.253C260.842 357.216 264.712 351.56 268.124 345.709C268.477 345.091 267.01 344.596 267.028 343.889C267.028 343.199 267.965 342.828 268.159 342.174C268.353 341.591 268.353 340.902 268.159 340.318C267.947 339.647 266.886 339.258 266.992 338.551C267.134 337.544 267.982 335.476 268.778 336.094C270.563 337.455 271.941 339.912 271.712 342.139C270.704 352.32 266.886 362.023 265.19 372.116C265.066 372.84 266.604 373.3 266.356 374.007C264.129 380.635 260.152 386.609 258.084 393.29C257.713 394.51 259.64 395.712 259.233 396.914C258.667 398.664 256.44 399.406 255.539 401.014C252.57 406.37 250.555 412.203 247.762 417.629C245.005 423.02 242.071 428.322 238.889 433.483C237.334 435.993 235.549 438.362 233.587 440.571C230.494 444.053 226.711 446.898 223.742 450.504C222.328 452.219 221.974 454.64 220.578 456.372C219.235 458.034 216.866 458.723 215.682 460.508C215.222 461.198 215.47 462.612 216.23 462.93M94.3963 420.474C93.6009 420.28 92.0455 420.74 92.0102 419.927C91.9925 419.114 93.5656 419.149 94.3609 419.343M345.381 415.19C344.586 414.995 343.03 415.455 342.995 414.642C342.977 413.829 344.55 413.864 345.346 414.058M123.807 386.432C123.984 385.637 123.542 384.082 124.355 384.046C125.168 384.029 125.133 385.602 124.939 386.397M135.031 383.375C134.236 383.18 132.68 383.64 132.645 382.827C132.627 382.014 134.2 382.049 134.996 382.243M125.31 381.095C124.815 380.494 123.666 380.069 123.807 379.309C124.02 378.249 125.186 376.428 126.123 376.994C127.307 377.719 126.971 379.751 126.706 381.095M79.6023 375.827C79.7791 375.032 79.3372 373.477 80.1503 373.441C80.9633 373.424 80.928 374.997 80.7336 375.792M126.688 372.204C126.3 372.222 125.752 372.575 125.504 372.275C125.115 371.798 125.274 371.055 125.257 370.454C125.186 368.687 125.062 366.919 125.257 365.169C125.345 364.356 125.292 362.854 126.105 362.854C126.918 362.854 126.901 364.339 126.954 365.152M78.4181 356.827C78.206 356.049 77.7995 355.307 77.7818 354.511C77.7818 354.246 78.2414 353.805 78.3651 354.017C78.7893 354.706 78.9484 355.572 78.9484 356.367M130.206 356.279C129.41 356.491 128.633 356.88 127.82 356.898C127.572 356.898 127.183 356.526 127.325 356.314C127.908 355.395 128.544 354.017 129.623 354.017M136.162 352.832C136.94 352.62 137.682 352.214 138.478 352.196C138.743 352.196 139.185 352.638 138.973 352.779C138.283 353.204 137.417 353.363 136.622 353.363M91.3739 352.709C90.3664 350.393 88.5282 348.29 88.3515 345.762C88.2808 344.649 89.6064 343.412 90.7199 343.394C91.533 343.394 91.5153 344.879 91.5683 345.709M78.9307 350.994C78.5419 351.012 77.9939 351.365 77.7465 351.065C77.3576 350.588 77.5167 349.845 77.499 349.244C77.4283 347.477 77.3046 345.709 77.499 343.96C77.5874 343.146 77.5344 341.644 78.3474 341.644C79.1605 341.644 79.1428 343.129 79.1958 343.96M278.923 349.209C278.446 349.244 277.792 349.669 277.491 349.297C277.102 348.82 277.049 347.866 277.491 347.424C278.075 346.841 279.383 346.257 279.895 346.894M127.325 343.995C128.102 343.783 128.845 343.376 129.64 343.359C129.905 343.359 130.347 343.8 130.135 343.942C129.446 344.366 128.58 344.525 127.784 344.525M92.1162 331.799C92.0455 329.943 91.2502 327.964 91.8865 326.214C92.1693 325.436 93.4949 325.525 94.3079 325.684C94.6614 325.754 94.7498 326.391 94.6261 326.744M272.825 320.045C272.79 319.568 272.366 318.914 272.737 318.614C273.214 318.225 274.168 318.172 274.61 318.614C275.194 319.197 275.777 320.505 275.141 321.017M207.375 316.864C207.392 317.253 207.817 317.924 207.445 318.03C206.668 318.225 205.148 318.242 205.095 317.447M317.949 302.282C320.176 294.399 322.898 286.64 324.63 278.633C324.79 277.908 323.305 277.466 323.464 276.742C326.31 263.715 330.781 251.078 333.521 238.016C333.786 236.761 332.354 235.647 332.354 234.375C332.354 233.685 333.397 233.332 333.503 232.66C333.875 230.309 333.998 227.906 333.733 225.555C333.592 224.3 332.089 223.257 332.354 222.002C332.673 220.5 335.218 219.952 335.235 218.414C335.253 216.329 333.715 214.473 332.443 212.829C332.195 212.511 331.842 213.713 331.488 213.536C330.446 212.988 330.163 211.22 328.996 211.026C328.165 210.885 327.07 211.981 327.211 212.811C327.405 213.995 329.756 214.208 329.739 215.409C329.668 220.04 327.459 224.406 326.999 229.001C326.928 229.726 327.971 230.115 328.201 230.787C328.395 231.388 328.395 232.095 328.236 232.713C327.794 234.375 326.84 235.859 326.433 237.521C322.262 255.231 317.879 272.924 314.573 290.811C313.919 294.346 313.601 298.128 314.626 301.575M352.433 295.018C351.638 294.823 350.065 295.283 350.047 294.47C350.029 293.374 351.302 291.907 352.363 292.154M348.898 291.483C348.103 291.288 346.547 291.748 346.512 290.935C346.494 290.122 348.068 290.157 348.863 290.351M354.165 287.912C353.953 287.134 353.547 286.392 353.529 285.597C353.529 285.332 353.989 284.89 354.112 285.102C354.537 285.791 354.696 286.657 354.696 287.453M294.07 282.61C293.752 281.266 293.24 279.941 293.134 278.562C292.922 275.628 292.922 272.659 293.151 269.742C293.222 268.929 293.434 266.844 294 267.427C294.972 268.417 294.795 270.113 294.884 271.492C295.078 274.426 295.078 277.396 294.866 280.33M355.915 280.842C355.703 280.064 355.297 279.322 355.279 278.527C355.279 278.262 355.738 277.82 355.862 278.032C356.286 278.721 356.445 279.587 356.445 280.383M160.483 280.383C161.013 279.782 161.703 279.269 162.091 278.562C162.268 278.244 162.357 277.714 162.091 277.449C160.907 276.229 159.67 274.762 158.009 274.391C154.527 273.613 150.868 273.878 147.315 274.179C146.06 274.285 145.035 275.487 143.78 275.557C143.091 275.593 142.702 274.462 142.013 274.497C140.74 274.568 139.733 275.716 138.478 275.876C136.71 276.105 134.89 275.982 133.14 275.646C131.903 275.398 130.913 274.267 129.64 274.161C127.661 274.02 125.487 273.984 123.754 274.956C123.065 275.345 123.666 276.6 124.02 277.307C124.709 278.686 125.239 280.789 126.759 281.001C134.713 282.15 142.826 281.514 150.85 281.16C152.123 281.107 153.13 279.782 154.385 279.782C155.64 279.782 156.665 281.019 157.92 281.143M214.427 256.415C215.24 256.15 216.442 256.38 216.866 255.62C217.449 254.56 217.396 253.075 216.866 251.979C216.088 250.371 213.861 249.752 213.225 248.09C211.546 243.725 211.44 238.899 210.132 234.41C209.92 233.65 208.753 233.35 208.647 232.572C208.559 231.9 210.167 231.317 209.708 230.804C207.887 228.789 205.36 227.499 202.956 226.227C200.552 224.954 198.06 222.992 195.356 223.239C193.765 223.381 192.952 225.608 192.634 227.163C192.386 228.401 193.712 229.496 193.889 230.751C194.172 232.837 195.356 235.453 194.012 237.061C191.732 239.801 187.968 241.038 184.521 242.028C183.284 242.381 182.135 240.755 180.845 240.826C179.678 240.879 178.812 242.099 177.681 242.381C170.01 244.273 162.321 246.27 154.491 247.348C153.236 247.525 152.158 246.111 150.886 246.093C149.595 246.093 148.517 247.383 147.227 247.295C137.788 246.712 128.456 244.626 119.018 244.096C117.763 244.025 116.79 245.475 115.536 245.528C114.281 245.581 113.202 244.396 111.948 244.396C111.241 244.396 110.799 245.704 110.127 245.51C106.451 244.432 103.393 241.692 99.6811 240.773C98.4439 240.473 97.348 241.816 96.0931 242.028C94.9089 242.24 93.5833 242.488 92.4697 242.028C91.0734 241.445 90.4548 239.43 88.9878 239.112C87.9273 238.882 86.8668 239.889 86.1067 240.649C84.2862 242.47 81.688 244.202 81.3345 246.765C81.034 248.992 82.8899 251.166 84.4806 252.757C85.1346 253.411 86.3719 252.898 87.2556 252.633C87.9449 252.439 88.3338 251.325 89.0408 251.431C92.6288 251.944 95.9163 253.87 99.5044 254.383C100.211 254.489 100.583 253.163 101.29 253.181C103.128 253.252 104.789 254.613 106.645 254.613C108.501 254.613 110.145 253.163 112.001 253.181C113.255 253.181 114.245 254.489 115.5 254.648C118.417 255.001 121.404 255.001 124.32 254.648C126.158 254.436 127.767 252.969 129.623 252.969C131.478 252.969 133.069 254.56 134.925 254.63C136.18 254.666 137.205 253.322 138.46 253.269C139.149 253.234 139.521 254.206 140.174 254.4C140.775 254.595 141.447 254.595 142.03 254.4C142.684 254.188 143.055 253.234 143.745 253.269C145 253.322 146.025 254.648 147.28 254.63C148.535 254.63 149.507 253.234 150.762 253.199C152.052 253.163 153.13 254.489 154.421 254.4C159.794 254.012 165.096 252.81 170.381 251.785C176.178 250.671 181.976 249.522 187.685 248.002C189.028 247.649 190.053 246.358 191.414 246.164C192.121 246.076 192.528 247.26 193.235 247.26C193.924 247.26 194.295 246.341 194.949 246.129C195.55 245.934 196.275 245.863 196.858 246.111C198.52 246.818 200.128 247.737 201.507 248.886C202.214 249.487 202.284 250.653 203.027 251.237C205.466 253.146 208.046 254.913 210.857 256.203M87.2556 365.735C86.4602 365.541 84.9048 366 84.8695 365.187C84.8518 364.374 86.4249 364.409 87.2203 364.604M201.56 232.678C202.337 232.466 203.08 232.059 203.875 232.042C204.14 232.042 204.582 232.483 204.37 232.625C203.681 233.049 202.815 233.208 202.019 233.208M198.555 229.655C198.555 229.178 198.29 228.648 198.537 228.259C198.944 227.605 199.598 226.527 200.322 226.792C201.082 227.075 201.33 228.454 200.906 229.143M137.258 211.503C137.258 210.284 137.576 209.029 137.293 207.845C137.081 206.908 136.728 205.618 135.809 205.388C126.353 203.037 116.472 202.666 107.016 200.297C105.019 199.802 103.499 198.159 101.873 196.904C101.396 196.533 100.583 196.055 100.759 195.472C101.873 191.813 104.471 188.703 105.514 185.026C105.903 183.648 105.814 181.898 104.931 180.784C104.312 180.024 102.792 180.113 101.997 180.696C100.194 181.986 98.8327 183.895 97.8076 185.857C97.4541 186.529 98.4792 187.395 98.1787 188.084C97.5424 189.569 95.5098 190.329 95.1917 191.919C94.467 195.401 94.8558 199.06 95.1917 202.595C95.2977 203.691 95.4921 205.193 96.4996 205.653C100.423 207.473 104.807 208.163 109.049 209.046C115.235 210.319 121.492 211.309 127.749 212.087C130.117 212.387 132.539 212.422 134.925 212.281M313.495 205.211C313.46 204.734 313.036 204.08 313.407 203.779C313.884 203.39 314.839 203.337 315.28 203.779C315.864 204.363 316.447 205.671 315.811 206.183M302.89 204.893C302.095 204.151 300.875 203.673 300.487 202.666C300.186 201.906 300.31 200.227 301.123 200.28C302.696 200.403 304.428 201.517 304.994 203.002M320.601 194.341C319.805 194.146 318.25 194.606 318.214 193.793C318.197 192.98 319.77 193.015 320.565 193.21M30.0594 172.618C30.2362 171.823 29.7943 170.268 30.6073 170.232C31.4204 170.215 31.385 171.805 31.1906 172.583M30.6604 158.92C30.3422 157.577 29.865 156.251 29.7236 154.873C29.5468 153.123 29.5468 151.338 29.7413 149.588C29.8296 148.775 30.0241 146.689 30.5897 147.272C31.5618 148.262 31.3497 149.959 31.4734 151.338C31.6325 153.087 31.6325 154.873 31.4557 156.64M228.549 148.404C228.373 147.626 227.931 146.848 228.037 146.053C228.125 145.364 229.486 144.851 229.097 144.285C227.507 141.97 224.272 141.051 222.893 138.594C222.345 137.622 224.113 136.561 224.095 135.448C224.042 133.61 221.939 131.789 222.681 130.092C223.247 128.802 225.403 129.297 226.8 129.297C227.63 129.297 228.779 129.35 229.168 130.092C229.592 130.905 229.027 131.966 228.585 132.761C228.001 133.786 226.587 134.281 226.216 135.395C225.951 136.19 226.039 137.852 226.87 137.799C230.564 137.569 234.135 136.155 237.511 134.67C238.624 134.175 239.472 133.079 240.02 131.984C240.303 131.418 240.25 130.534 239.808 130.092C237.952 128.201 235.796 126.54 233.445 125.32C230.971 124.012 227.931 123.994 225.509 122.598C223.07 121.202 221.727 118.162 219.129 117.066C217.131 116.218 214.781 116.818 212.642 117.137C211.935 117.243 211.564 118.515 210.874 118.339C208.948 117.844 207.551 116.129 205.731 115.369C205.112 115.122 204.405 115.245 203.751 115.351C198.484 116.235 193.341 117.791 188.021 118.374C187.314 118.445 186.872 117.031 186.182 117.243C184.751 117.702 184.079 119.611 182.647 120.071C181.993 120.283 181.587 119.134 180.933 118.939C180.332 118.745 179.66 118.745 179.077 118.939C178.034 119.293 177.044 119.876 176.196 120.566C175.171 121.396 174.658 122.881 173.456 123.447C172.962 123.694 172.608 122.527 172.06 122.545C171.371 122.581 170.982 123.606 170.293 123.606C169.603 123.606 169.179 122.351 168.525 122.545C167.482 122.846 166.616 123.8 166.157 124.79C165.839 125.515 166.068 126.451 166.422 127.141C167.447 129.085 168.507 131.171 170.24 132.514C170.876 133.009 172.202 132.638 172.573 131.913C172.909 131.294 171.671 130.799 171.512 130.128C171.459 129.88 171.742 129.527 171.989 129.562C173.244 129.739 174.393 131.047 175.63 130.729C179.342 129.792 182.435 127.123 186.076 125.974C187.791 125.444 189.682 125.603 191.467 125.762C192.28 125.833 193.889 125.797 193.765 126.61C193.553 128.13 191.114 128.661 190.831 130.163C190.619 131.347 193.5 132.673 192.51 133.345C187.031 137.003 180.314 138.329 174.358 141.139C173.828 141.387 173.28 141.899 173.191 142.483C173.068 143.278 173.068 144.444 173.775 144.833C174.376 145.169 174.87 143.773 175.56 143.773C176.249 143.773 176.638 144.833 177.327 144.833C178.017 144.833 178.405 143.808 179.095 143.773C179.66 143.737 179.996 144.886 180.509 144.674C181.605 144.215 181.852 142.412 183.001 142.164C184.114 141.917 185.051 143.26 186.182 143.402C188.516 143.684 190.902 143.472 193.252 143.419C194.454 143.384 195.674 143.472 196.84 143.154C197.53 142.96 197.919 141.846 198.626 141.935C202.779 142.447 206.703 144.356 210.857 144.886C211.564 144.975 211.97 143.755 212.695 143.755C213.384 143.755 213.72 144.904 214.409 144.886C215.647 144.869 216.707 143.684 217.944 143.667C219.199 143.667 220.277 144.727 221.515 144.798C222.045 144.833 222.416 143.596 222.858 143.914C224.502 145.116 225.138 147.378 226.729 148.633M85.5058 135.996C84.1271 135.801 81.4052 136.827 81.3522 135.43C81.2991 134.052 84.0918 134.653 85.4704 134.829M211.882 133.698C212.147 132.92 212.165 130.693 212.695 131.347C213.561 132.425 213.49 134.087 213.296 135.466C213.243 135.854 212.341 135.766 212.094 135.466M54.1327 121.237C53.355 121.449 52.6127 121.856 51.8173 121.874C51.5522 121.874 51.1103 121.432 51.3224 121.29C52.0117 120.866 52.8778 120.707 53.6732 120.707M304.658 114.733C304.446 113.955 304.039 113.213 304.021 112.417C304.021 112.152 304.481 111.71 304.605 111.922C305.029 112.612 305.188 113.478 305.188 114.273M340.008 111.198C339.796 110.42 339.389 109.678 339.371 108.882C339.371 108.617 339.831 108.175 339.955 108.387C340.379 109.077 340.538 109.943 340.538 110.738M172.555 100.398C174.128 99.5147 175.507 98.0123 177.292 97.7472C178.565 97.5527 179.607 99.0728 180.88 99.1788C185.016 99.497 189.258 99.7091 193.341 98.9668C195.285 98.6133 196.522 96.3508 198.449 95.9267C199.686 95.6615 200.817 97.2346 202.09 97.0932C203.062 96.9871 203.486 95.6969 204.335 95.2373C206.42 94.1238 208.471 92.6921 210.821 92.3917C212.695 92.1442 214.48 94.0354 216.336 93.6643C220.631 92.8159 224.237 89.3339 228.585 88.892C230.582 88.6976 231.908 91.2605 233.799 91.9144C234.965 92.3033 236.273 92.1619 237.475 91.8968C238.147 91.7554 238.536 90.5181 239.19 90.7479C240.621 91.2251 241.346 92.9219 242.672 93.6466C243.237 93.9471 244.015 93.9471 244.581 93.6643C246.436 92.8159 248.328 91.8614 249.742 90.3944C250.396 89.7227 250.731 88.5385 250.396 87.6901C249.883 86.3645 248.681 85.3217 247.462 84.5793C242.566 81.5569 237.899 77.3856 232.226 76.5018C226.64 75.6358 221.073 78.3577 215.558 79.595C213.95 79.9485 212.536 81.5039 210.91 81.2741C208.93 81.009 207.604 78.9056 205.696 78.2693C204.529 77.8805 203.221 78.0219 202.019 78.287C201.348 78.4284 200.994 79.4713 200.305 79.4359C199.05 79.3829 198.025 78.0573 196.77 78.0749C194.896 78.0926 193.217 79.754 191.361 79.5419C188.339 79.2061 185.758 76.9614 182.736 76.4842C179.201 75.9362 175.542 76.1484 171.972 76.5195C171.282 76.5902 170.982 77.6154 170.293 77.7568C168.225 78.181 165.732 76.9967 163.983 78.1633C162.109 79.4182 161.473 81.9634 160.766 84.1021C160.377 85.2686 160.518 86.5766 160.783 87.7785C160.925 88.4501 162.144 88.839 161.932 89.493C161.473 90.9246 159.352 91.5433 159.104 93.028C158.857 94.601 159.546 96.4039 160.66 97.5351C162.251 99.1435 164.46 100.133 166.652 100.681C167.341 100.858 167.712 99.5323 168.437 99.497M302.855 88.238C302.554 87.478 301.989 86.7887 301.989 85.9756C301.989 85.1626 301.989 83.6779 302.82 83.6602C303.633 83.6602 303.633 85.1449 303.65 85.958M110.145 87.1599C110.162 87.5487 110.587 88.2204 110.215 88.3264C109.438 88.5208 107.918 88.5385 107.865 87.7431M301.105 81.1857C300.893 80.408 300.486 79.6657 300.469 78.8703C300.469 78.6052 300.928 78.1633 301.052 78.3754C301.476 79.0647 301.635 79.9308 301.635 80.7262M378.893 70.6338C378.097 70.4393 376.542 70.8989 376.507 70.0858C376.489 69.2728 378.062 69.3081 378.857 69.5026M297.853 70.457C296.934 69.1844 295.626 68.1239 295.113 66.6392C294.848 65.8615 294.901 64.2885 295.732 64.2531C296.828 64.2001 297.782 65.4727 298.136 66.5155M32.092 10.2207C31.8976 8.94812 31.385 7.6932 31.5264 6.40292C31.6678 5.148 32.8344 4.12286 32.9051 2.86794C32.9404 2.16093 31.5795 1.71906 31.8092 1.04741C32.5339 -1.10894 34.5488 -2.62899 35.4679 -4.69696C38.4373 -11.3074 39.9574 -18.5718 43.4217 -24.9348C47.4516 -32.3229 52.7894 -38.9334 57.8091 -45.6852C60.4427 -49.2379 63.0939 -52.8259 66.3284 -55.8306C66.735 -56.2018 67.2299 -54.6818 67.7248 -54.9292C69.3332 -55.7423 70.1993 -57.5981 71.737 -58.5526C73.5929 -59.7015 75.979 -59.8959 77.7818 -61.1508C78.9837 -61.9992 79.2312 -63.8728 80.4684 -64.6681C80.928 -64.9686 81.3522 -63.5723 81.8647 -63.7667C83.8797 -64.5444 85.329 -66.3826 87.291 -67.284C90.0483 -68.5566 92.8939 -69.8292 95.881 -70.2534C100.017 -70.8367 104.294 -70.8897 108.413 -70.2181C109.579 -70.0236 110.18 -68.6627 111.011 -67.8319C111.541 -67.3017 112.213 -66.8068 112.495 -66.1175C112.725 -65.5519 112.761 -64.8095 112.495 -64.2616C112.071 -63.3779 111.028 -62.9183 110.569 -62.0522C108.925 -58.9768 107.882 -55.5832 106.221 -52.5078C105.938 -51.9952 105.408 -51.3942 104.825 -51.4119C104.135 -51.4119 103.782 -52.4547 103.11 -52.5608C101.307 -52.8613 99.4513 -52.8436 97.6485 -52.5961C92.0455 -51.8008 86.4426 -50.8993 80.981 -49.4323C78.2944 -48.7076 75.5901 -47.7178 73.3631 -46.0564C72.0021 -45.0312 71.8784 -42.8926 70.6588 -41.6907C69.3509 -40.4004 67.442 -39.8701 65.9926 -38.7389C64.7907 -37.8022 63.7125 -36.7063 62.7934 -35.5044C60.5487 -32.5881 58.7812 -29.3182 56.5188 -26.4195C54.6453 -24.0157 52.1178 -22.1245 50.421 -19.597C48.0348 -16.062 46.6032 -11.9614 44.3585 -8.338M230.388 -19.597C229.592 -19.7914 228.037 -19.3318 228.001 -20.1449C227.984 -20.9579 229.557 -20.9226 230.352 -20.7282M210.91 -30.2373C210.698 -31.015 210.291 -31.7573 210.273 -32.5527C210.273 -32.8178 210.733 -33.2597 210.857 -33.0476C211.281 -32.3583 211.44 -31.4922 211.44 -30.6968M115.43 -31.9518C115.412 -32.3406 114.988 -33.0123 115.359 -33.1183C116.137 -33.3127 117.657 -33.3304 117.71 -32.535M119.018 -37.2719C118.222 -37.4663 116.667 -37.0068 116.631 -37.8199C116.614 -38.6329 118.187 -38.5975 118.982 -38.4031M294 -46.0917C293.098 -46.2862 292.109 -46.1978 291.313 -46.6573C290.642 -47.0285 289.281 -47.9299 289.864 -48.4425C290.889 -49.3616 292.78 -49.7151 293.982 -49.0435M186.624 -44.9429C185.263 -44.7308 183.867 -43.9177 182.541 -44.2889C181.481 -44.5717 179.713 -45.7559 180.297 -46.6927C181.021 -47.8769 183.072 -47.6648 184.415 -47.3113M176.497 -46.6573C176.037 -47.0992 175.737 -47.8416 175.118 -47.9653C166.369 -49.7858 157.195 -49.7505 148.676 -52.4547C145.389 -53.4976 155.658 -52.2073 158.998 -53.0734C160.695 -53.5152 161.49 -56.52 163.223 -56.2018C168.119 -55.3181 172.325 -52.1719 176.744 -49.8565C177.274 -49.5737 177.698 -49.0611 177.911 -48.5132C178.123 -47.9299 178.264 -47.1522 177.893 -46.6573M115.483 -49.7328C115.253 -50.5282 114.44 -51.3589 114.811 -52.1012C117.692 -57.8633 120.591 -63.8197 124.903 -68.6096C125.964 -69.7762 128.085 -68.8571 129.623 -68.5036C129.976 -68.4152 130.047 -67.7966 129.941 -67.4431C129.269 -65.3398 128.774 -63.042 127.36 -61.3276M133.175 -69.1222C132.38 -69.3166 130.824 -68.8571 130.789 -69.6701C130.771 -70.4832 132.344 -70.4478 133.14 -70.2534M92.4874 -72.6926C92.2753 -73.4703 91.8688 -74.2126 91.8511 -75.008C91.8511 -75.2731 92.3107 -75.715 92.4344 -75.5029C92.8586 -74.8136 93.0176 -73.9475 93.0176 -73.1521M140.245 -74.3717C138.92 -74.4601 135.597 -73.4526 136.251 -74.6368C137.93 -77.7299 141.306 -79.5681 144.187 -81.6008C146.767 -83.4213 149.666 -84.8176 152.547 -86.1079C152.777 -86.2139 153.166 -85.8604 153.113 -85.613C152.936 -84.4994 152.83 -83.1562 151.981 -82.4138M164.99 -76.1569C163.611 -76.3513 160.89 -75.3261 160.837 -76.7225C160.783 -78.1011 163.576 -77.5002 164.955 -77.3234M104.895 -76.1745C104.1 -76.369 102.544 -75.9094 102.509 -76.7225C102.491 -77.5355 104.065 -77.5002 104.86 -77.3057" fill="#50231B"/>
</g>
</g>
</g>
</svg>
