<svg width="472" height="349" viewBox="0 0 472 349" fill="none" xmlns="http://www.w3.org/2000/svg">
<mask id="mask0_168_370" style="mask-type:alpha" maskUnits="userSpaceOnUse" x="0" y="0" width="472" height="349">
<rect width="472" height="349" fill="#D9D9D9"/>
</mask>
<g mask="url(#mask0_168_370)">
<path opacity="0.08" d="M143.295 252.162C145.506 253.058 147.969 253.525 149.926 254.875C150.52 255.292 149.837 256.48 150.355 256.997C151.251 257.894 152.831 257.855 153.727 258.752C154.22 259.245 153.828 260.167 154.143 260.786C154.446 261.367 154.951 261.846 155.494 262.187C159.043 264.498 163.009 266.164 166.356 268.752C166.924 269.194 166.266 270.381 166.771 270.887C167.668 271.783 169.247 271.745 170.144 272.641C170.636 273.134 170.206 274.094 170.547 274.687C171.14 275.736 172.062 276.582 172.921 277.44C174.196 278.716 175.434 280.079 176.936 281.077C177.517 281.456 178.49 280.988 178.983 281.48C179.475 281.973 178.906 283.021 179.399 283.514C180.295 284.41 181.862 284.385 182.771 285.268C183.263 285.761 182.783 286.797 183.275 287.289C183.768 287.782 184.829 287.276 185.296 287.794C186.142 288.741 185.801 290.548 186.849 291.292C188.971 292.782 191.952 292.655 194.124 294.043C194.73 294.422 194.174 295.534 194.54 296.153C195.133 297.201 196.068 298.034 196.914 298.906C207.811 309.904 218.481 321.105 229.758 331.724C230.679 332.596 232.347 332.317 233.307 333.176C234.241 334.034 234.165 335.651 235.061 336.548C235.554 337.04 236.489 336.636 237.095 336.964C237.663 337.254 238.143 337.734 238.421 338.29C238.736 338.908 238.319 339.856 238.837 340.323C239.784 341.195 241.325 341.118 242.348 341.863C243.333 342.57 244.129 343.542 244.735 344.578C245.088 345.184 244.645 346.132 245.138 346.624C245.63 347.117 246.679 346.548 247.172 347.04C248.068 347.937 248.03 349.516 248.926 350.413C249.419 350.905 250.354 350.5 250.96 350.829C251.528 351.119 252.021 351.586 252.286 352.155C252.589 352.786 252.222 353.633 252.613 354.226C253.598 355.742 254.823 357.118 256.262 358.204C257.285 358.974 258.751 358.923 259.824 359.643C261.327 360.64 262.565 362.004 263.84 363.279C265.532 364.971 267.325 366.613 268.739 368.557C269.156 369.126 268.65 370.111 269.143 370.604C269.635 371.096 270.684 370.527 271.176 371.02C272.073 371.916 272.047 373.483 272.931 374.392C273.423 374.884 274.459 374.404 274.952 374.896C275.444 375.389 274.951 376.438 275.456 376.917C275.949 377.41 276.884 377.005 277.49 377.333C278.058 377.624 278.551 378.091 278.816 378.659C279.119 379.291 278.79 380.125 279.143 380.731C279.737 381.779 280.671 382.613 281.517 383.484C286.101 388.169 290.52 393.018 295.42 397.361C296.38 398.22 297.984 398.055 298.931 398.901C299.449 399.368 298.943 400.43 299.436 400.922C299.928 401.414 300.977 400.921 301.457 401.427C301.949 401.919 301.544 402.854 301.873 403.46C302.163 404.029 302.643 404.508 303.199 404.786C303.817 405.102 304.765 404.684 305.232 405.202C306.091 406.137 305.85 407.842 306.785 408.701C308.161 409.976 310.308 410.127 311.773 411.288C313.655 412.766 315.284 414.597 316.685 416.529C317.102 417.097 316.596 418.083 317.089 418.575C317.581 419.068 318.579 418.574 319.135 418.979C321.396 420.607 322.923 423.247 325.361 424.572C326.522 425.203 328.102 424.028 329.352 424.495C329.883 424.697 329.263 425.72 329.617 426.175C331.044 428.107 332.812 429.748 334.504 431.441C335.362 432.299 336.196 433.208 337.257 433.814C337.863 434.168 338.81 433.725 339.303 434.218C339.795 434.71 339.226 435.759 339.719 436.251C340.615 437.148 342.182 437.122 343.091 438.006C343.584 438.498 343.103 439.534 343.596 440.027C344.088 440.519 345.137 440.026 345.617 440.531C346.109 441.024 345.704 441.959 346.033 442.565C346.323 443.133 346.815 443.575 347.358 443.891C348.47 444.522 349.923 444.509 350.908 445.342C354.974 448.827 358.762 452.641 362.26 456.694C363.118 457.679 362.764 459.498 363.799 460.307C366.249 462.2 369.508 462.73 372.135 464.345C373.196 465.002 374.093 465.949 374.749 467.01C375.14 467.629 374.571 468.728 375.165 469.145C377.564 470.887 380.381 471.985 383.134 473.07C383.64 473.272 384.322 473.246 384.789 472.93C385.825 472.273 386.887 471.464 387.38 470.34C387.823 469.316 388.038 467.889 387.381 467.005C386.27 465.515 383.933 465.377 382.671 464.013C382.305 463.621 382.709 462.408 383.252 462.497C386.069 462.988 388.456 464.945 391.26 465.5C393.559 465.954 396.035 466.155 398.284 465.472C401.708 464.422 404.98 462.665 407.76 460.415C411.956 457.053 415.608 453.022 418.983 448.839C419.362 448.359 418.415 447.664 418.516 447.058C419.731 440.766 421.869 434.664 422.92 428.335C423.35 425.758 423.175 423.105 422.923 420.503C422.772 418.81 420.992 417.08 421.712 415.551C424.962 408.716 431.545 403.673 434.302 396.623C436.325 391.468 436.025 385.581 435.572 380.074C434.994 373.075 430.057 366.395 431.197 359.472C431.64 356.806 436.566 358.724 439.169 357.99C439.775 357.813 440.205 357.257 440.66 356.802C443.63 353.832 446.966 351.153 449.418 347.741C450.821 345.808 451.592 343.42 452.01 341.058C452.479 338.518 452.505 335.84 452.001 333.314C450.79 327.099 449.138 320.948 446.93 315.024C444.696 309.05 439.961 304.011 438.713 297.759C438.121 294.765 440.56 291.947 441.774 289.142C442.95 286.451 444.845 284.101 445.882 281.346C446.603 279.388 447.185 277.265 446.984 275.194C446.732 272.566 445.546 270.091 444.562 267.615C443.035 263.814 440.712 260.328 439.475 256.412C438.92 254.669 440.007 252.597 439.288 250.917C438.569 249.237 436.902 248.152 435.437 247.066C434.982 246.738 433.984 247.332 433.757 246.801C433.088 245.298 433.935 243.365 433.152 241.925C432.281 240.321 430.639 239.236 429.111 238.213C428.543 237.822 427.57 238.29 427.065 237.81C426.56 237.33 427.066 236.269 426.561 235.789C426.068 235.296 425.07 235.789 424.514 235.385C422.759 234.085 419.866 232.987 419.829 230.802C419.769 225.281 423.447 220.29 424.27 214.82C424.941 210.385 424.943 205.812 424.288 201.391C424.162 200.507 422.431 200.723 422.04 199.902C421.195 198.096 421.688 195.834 420.842 194.028C417.346 186.665 413.686 179.339 409.09 172.621C406.704 169.122 403.446 166.218 400.1 163.63C396.652 160.941 392.762 158.82 388.834 156.889C386.738 155.854 384.451 155.109 382.152 154.757C379.475 154.328 376.67 155.188 374.03 154.57C372.855 154.28 372.072 153.119 371.315 152.184C370.721 151.464 370.178 150.618 370.04 149.696C369.561 146.513 370.093 143.203 369.475 140.032C368.833 136.66 367.065 133.578 366.258 130.243C365.955 128.955 366.638 127.515 366.184 126.252C364.657 121.945 362.145 118.042 360.454 113.798C359.583 111.588 359.571 109.099 358.549 106.965C358.006 105.841 356.946 105.033 355.91 104.351C355.329 103.972 354.356 104.44 353.864 103.948C353.371 103.455 353.877 102.444 353.46 101.901C351.983 99.9944 350.278 98.2392 348.346 96.7872C347.778 96.3706 346.893 96.7752 346.262 96.4723C345.353 96.0431 344.797 94.9064 343.812 94.6542C342.511 94.3136 340.742 95.7545 339.782 94.8201C338.406 93.4689 339.696 90.5124 338.256 89.2498C336.829 87.9997 334.416 89.0744 332.609 88.5067C327.557 86.9171 322.96 83.8618 317.781 82.7776C314.548 82.0967 311.036 82.3761 307.877 83.3628C306.866 83.6916 307.51 85.6999 306.638 86.294C305.716 86.9134 304.339 86.8255 303.328 86.3964C302.191 85.9168 301.219 84.8939 300.689 83.7825C298.038 78.3769 296.79 72.3012 293.836 67.0472C290.39 60.9472 285.883 55.5044 281.628 49.9352C280.883 48.9628 279.986 48.0409 278.887 47.4982C275.541 45.8952 272.055 44.4818 268.429 43.6369C266.32 43.1451 264.084 43.9166 261.949 43.5764C258.551 43.0346 255.229 42.0885 251.945 41.054C247.208 39.5779 242.826 36.6616 237.887 36.0699C235.26 35.7678 232.745 37.4489 230.332 38.5236C226.061 40.395 222.144 43.0242 217.861 44.8576C216.977 45.237 215.688 44.4037 214.955 45.0609C213.553 46.2868 213.35 48.485 212.149 49.9129C211.606 50.5574 210.734 51.202 209.913 51.0381C209.142 50.8995 208.738 49.9396 208.423 49.2449C206.542 45.1654 205.356 40.7698 203.337 36.7534C201.469 33.015 199.955 28.7963 196.798 26.0437C192.378 22.2052 186.669 20.1611 181.364 17.6873C180.278 17.1824 178.926 17.6252 177.815 17.1961C173.28 15.4926 169.125 12.8541 164.528 11.34C162.027 10.5073 159.222 11.039 156.734 10.1937C156.203 10.017 156.696 8.99353 156.368 8.5389C156.179 8.27369 155.724 8.29919 155.395 8.32458C150.822 8.70542 146.085 8.36628 141.701 9.71974C140.488 10.0992 140.879 12.234 139.944 13.0934C139.009 13.978 137.455 13.8902 136.432 14.6359C135.446 15.3437 134.637 16.3041 134.043 17.3529C133.702 17.972 134.143 18.8688 133.726 19.4374C133.157 20.1829 132.26 20.8023 131.338 20.9164C130.252 21.0431 129.077 20.7025 128.155 20.1344C122.939 16.9153 118.52 12.3946 113.076 9.60506C111.775 8.93607 110.158 10.5284 108.743 10.2006C108.2 10.0871 108.743 9.03837 108.478 8.54581C108.175 7.99011 107.759 7.3713 107.152 7.21996C105.763 6.86681 104.272 6.94321 102.845 7.08275C100.52 7.31108 98.284 8.30997 95.9596 8.31091C93.9889 8.31172 92.1324 7.06181 90.1617 7.08788C88.3553 7.12652 86.4602 7.55678 84.9187 8.51748C84.2869 8.89671 85.0821 10.3744 84.3999 10.6779C79.0175 12.9792 73.2818 14.3458 67.6344 15.9019C66.6869 16.1676 65.6133 15.8017 64.6657 16.0927C64.0719 16.2571 63.6422 16.7879 63.1999 17.2302C62.3531 18.0769 61.4054 18.8984 60.8112 19.9471C60.4699 20.5663 60.9874 21.5134 60.4945 22.0316C59.6099 22.9415 57.9551 22.8285 57.121 23.7889C56.3879 24.623 56.2611 25.861 56.1343 26.9727C55.9695 28.4508 56.7521 30.0169 56.2715 31.4319C55.8414 32.7459 54.0852 33.315 53.6299 34.6037C53.1873 35.8545 54.8919 37.9887 53.6916 38.583C50.8866 39.9989 47.4254 39.596 44.3052 39.3068C43.7494 39.2565 44.2805 38.1194 43.9522 37.6647C43.7628 37.3995 43.3207 37.4124 42.9796 37.4504C41.8174 37.5772 40.6928 38.1208 39.5306 38.1213C37.0799 38.1223 34.5918 36.9738 32.1788 37.4421C23.9797 39.0498 16.0201 41.7312 8.07326 44.2735C5.35692 45.1463 1.73132 45.2867 0.2018 47.7001C-4.24769 54.7004 -6.0323 63.0511 -8.81464 70.8592C-9.28256 72.1605 -9.56105 73.5755 -9.56162 74.9651C-9.54956 76.3673 -9.10795 77.744 -8.78006 79.1082C-8.0234 82.266 -7.67108 85.6008 -6.29533 88.5436C-2.97589 95.6797 0.760517 102.651 5.19188 109.155C5.92412 110.241 7.79385 109.862 8.80411 110.695C11.1151 112.601 13.6282 114.533 14.9788 117.198C16.0769 119.358 15.0146 122.137 15.759 124.449C15.9357 124.979 17.0349 124.385 17.4011 124.802C17.8556 125.332 17.4132 126.28 17.8045 126.848C18.8145 128.338 20.0266 129.727 21.4537 130.826C22.4639 131.609 24.0683 131.469 24.9649 132.366C25.8614 133.262 25.6965 134.892 26.5046 135.877C28.7647 138.642 31.3029 141.206 34.0685 143.441C35.5333 144.628 37.6934 144.766 39.0951 146.016C45.3206 151.559 50.9396 157.734 56.786 163.681C57.6447 164.54 58.5539 165.373 59.1598 166.434C59.5133 167.041 59.0455 168.013 59.5632 168.481C60.4977 169.339 62.2032 169.098 63.0618 170.033C64.3371 171.409 64.4246 173.62 65.6494 175.022C69.5258 179.53 73.996 183.495 78.2641 187.662C79.1228 188.52 79.9689 189.417 81.0171 190.036C82.1032 190.692 83.5686 190.666 84.5788 191.474C86.9025 193.368 88.9354 195.603 90.7535 197.977C91.1828 198.533 90.6771 199.519 91.1569 200.024C91.6367 200.529 92.6854 200.036 93.1779 200.528C93.6703 201.021 93.1899 202.057 93.6824 202.549C94.1748 203.042 95.2109 202.561 95.7033 203.054C96.1958 203.546 95.7027 204.595 96.2078 205.075C96.7129 205.554 97.6606 205.137 98.2542 205.478C99.2898 206.084 100.287 206.879 100.969 207.865C101.701 208.9 101.638 210.403 102.408 211.426C104.213 213.813 106.448 215.846 108.57 217.967C109.428 218.826 110.287 219.71 111.323 220.341C112.409 220.998 113.937 220.909 114.847 221.792C115.756 222.676 115.502 224.395 116.399 225.291C117.308 226.2 118.925 226.023 119.91 226.831C122.676 229.091 125.201 231.667 127.499 234.395C129.09 236.289 129.67 238.992 131.539 240.608C134.683 243.323 139.18 244.18 142.173 247.072M30.4595 133.639C31.1545 133.197 31.9509 131.769 32.5571 132.325C33.1506 132.893 32.0005 133.992 31.2929 134.422M118.954 217.761C118.512 217.066 117.085 216.271 117.641 215.665C118.21 215.071 119.308 216.22 119.737 216.927M171.978 265.756C171.536 265.061 170.109 264.266 170.665 263.659C171.234 263.065 172.333 264.214 172.762 264.922M166.864 259.934C167.572 260.338 168.393 260.578 168.974 261.133C169.163 261.323 169.15 261.967 168.91 261.904C168.114 261.715 167.382 261.21 166.814 260.642M310.767 401.334C311.462 400.892 312.258 399.464 312.864 400.02C313.458 400.588 312.308 401.687 311.6 402.117M179.328 271.008C178.545 269.821 177.03 268.861 176.98 267.446C176.955 266.613 178.597 267.951 179.241 268.494C180.175 269.252 181.135 270.11 181.615 271.222C181.766 271.6 181.159 272.106 180.755 272.081M332.323 418.594C331.44 417.584 328.535 416.297 329.659 415.551C331.403 414.388 333.853 415.776 335.874 416.23C336.784 416.432 337.63 416.899 338.324 417.518C338.893 418.01 340.231 419.273 339.511 419.412M97.4672 183.713C97.0253 183.018 95.5981 182.223 96.1542 181.616C96.7229 181.022 97.8215 182.171 98.2507 182.879M121.157 204.168C120.728 203.309 120.59 202.235 119.87 201.616C118.91 200.783 117.243 200.986 116.359 200.051C115.248 198.89 114.301 197.336 114.251 195.719C114.164 193.054 116.401 190.514 115.947 187.886C115.733 186.636 113.471 187.028 112.587 186.145C112.082 185.639 112.664 184.452 112.07 184.035C109.532 182.255 106.26 181.713 103.734 179.92C103.141 179.504 103.647 178.442 103.318 177.786C103.041 177.23 102.548 176.737 101.993 176.46C101.374 176.144 100.464 176.523 99.9589 176.044C99.4665 175.551 99.9596 174.503 99.4545 174.023C98.9494 173.543 98.0017 173.96 97.4081 173.619C96.3725 173.013 95.3875 172.205 94.6931 171.233C93.9356 170.172 94.1637 168.454 93.1534 167.621C89.8827 164.931 85.6387 163.594 82.3048 160.993C81.7113 160.526 82.4192 159.212 81.8004 158.795C79.6787 157.381 76.8617 157.319 74.74 155.93C74.1464 155.539 74.7406 154.339 74.2355 153.834C73.7431 153.341 72.8208 153.733 72.2019 153.418C71.6209 153.115 71.0779 152.647 70.8002 152.066C68.0612 146.547 65.2338 141.04 63.1644 135.256C62.6849 133.942 62.9003 132.413 63.2924 131.062C63.5834 130.089 64.7711 129.583 65.0999 128.623C65.6438 126.968 64.2679 124.202 65.8347 123.443C71.5204 120.662 78.3417 121.189 84.3682 119.204C85.0379 118.989 84.2932 117.562 84.8744 117.182C85.4304 116.828 86.1248 117.674 86.7691 117.636C88.5124 117.535 90.3946 117.572 91.9361 116.737C92.5679 116.383 91.962 115.221 92.3539 114.628C93.0239 113.579 93.9085 112.618 94.9825 111.974C98.0024 110.166 101.073 108.257 104.471 107.384C106.569 106.853 108.817 108.393 110.914 107.912C111.798 107.71 112.127 106.471 112.393 105.574C112.734 104.425 112.091 103.048 112.672 102.012C113.001 101.406 114.201 101.999 114.693 101.506C115.186 101.013 114.593 99.8132 115.2 99.4845C116.16 98.9535 117.613 98.7382 118.497 99.3947C120 100.493 119.999 102.994 121.489 104.105C122.385 104.775 123.8 104.547 124.824 104.104C126.239 103.497 126.821 101.097 128.362 101.147C132.796 101.258 137.103 102.861 141.208 104.514C141.852 104.779 141.207 106.055 141.712 106.535C142.217 107.015 143.19 106.547 143.759 106.939C145.565 108.163 146.65 110.487 148.696 111.244C150.225 111.812 151.931 110.409 153.547 110.611C155.505 110.85 157.197 112.845 159.143 112.516C160.76 112.263 161.771 110.468 162.744 109.142C163.503 108.08 163.44 106.577 164.211 105.528C165.298 104.088 166.676 102.836 168.192 101.876C169.127 101.294 170.289 101.016 171.401 101.015C173.485 101.002 175.633 101.102 177.616 101.771C182.896 103.512 187.96 105.822 193 108.157C193.581 108.434 194.06 108.965 194.351 109.533C194.83 110.518 195.171 111.617 195.221 112.729C195.321 114.876 194.297 117.062 194.776 119.159C194.928 119.841 196.57 119.006 196.797 119.663C197.516 121.924 196.732 124.426 197.211 126.75C197.337 127.356 197.931 127.975 198.537 128.076C200.457 128.403 202.529 128.605 204.361 127.985C205.018 127.757 204.488 126.545 204.867 125.964C205.044 125.686 205.511 125.698 205.84 125.748C208.657 126.038 211.423 126.959 214.265 126.945C217.234 126.931 220.165 126.298 223.058 125.678C226.039 125.045 228.845 122.998 231.876 123.224C235.552 123.488 239.455 124.686 242.233 127.085C245.062 129.51 245.477 133.842 247.699 136.823C248.129 137.404 249.304 136.734 249.834 137.239C250.731 138.135 250.389 140.169 251.589 140.611C254.645 141.747 258.081 141.72 261.341 141.491C261.896 141.44 261.177 140.089 261.695 139.849C262.693 139.406 264.02 139.317 264.967 139.86C265.459 140.15 264.461 140.972 264.625 141.515C265.445 144.256 266.353 147.01 267.843 149.46C268.79 151.038 270.128 152.478 271.77 153.336C272.743 153.854 274.195 153.891 275.08 153.234C275.901 152.64 276.167 151.288 275.915 150.303C274.906 146.236 273.392 142.27 271.435 138.569C270.4 136.624 267.975 135.614 267.066 133.594C266.461 132.255 267.851 130.486 267.182 129.159C266.197 127.214 264.252 125.876 262.497 124.576C261.929 124.159 260.956 124.652 260.451 124.172C259.946 123.693 260.59 122.416 259.946 122.151C256.081 120.637 251.685 120.74 247.833 119.188C247.163 118.923 247.732 117.722 247.417 117.078C247.127 116.51 246.672 115.904 246.066 115.702C240.218 113.746 234.066 112.827 228.294 110.669C222.421 108.486 216.661 105.886 211.218 102.768C210.574 102.402 211.332 100.986 210.688 100.62C208.579 99.3959 206.116 98.879 203.716 98.4504C202.251 98.1984 200.608 99.2349 199.257 98.5912C197.716 97.8591 194.773 96.0539 195.885 94.7649C197.225 93.2232 200.003 95.9255 201.999 95.4194C202.934 95.1916 203.2 93.8145 203.352 92.8796C203.605 91.2626 203.467 89.5826 203.19 87.9657C203.127 87.5994 202.761 87.1574 202.394 87.1702C199.779 87.3102 197.252 88.5492 194.637 88.4366C194.082 88.4115 194.6 87.2617 194.284 86.7945C194.133 86.5671 193.602 86.4916 193.463 86.7316C192.844 87.9573 193.689 90.8497 192.325 90.6987C188.232 90.2203 185.113 86.6214 181.223 85.3092C178.457 84.3882 175.476 84.0609 172.545 84.062C170.006 84.0504 167.554 85.2642 165.028 85.2652C163.184 85.266 161.466 84.0792 159.609 84.0673C157.916 84.068 156.261 85.8752 154.695 85.2695C149.263 83.1999 144.705 79.3489 139.666 76.4581C139.135 76.1551 138.605 75.8016 138.011 75.7387C136.685 75.6003 135.168 76.4852 133.994 75.8414C132.996 75.2986 133.35 73.5804 132.593 72.7217C131.974 72.0272 131.052 71.5349 130.13 71.4468C126.517 71.0946 122.854 71.2477 119.241 71.4513C115.464 71.6676 111.661 71.8586 107.972 72.7191C104.536 73.529 101.427 75.4252 98.0415 76.4371C97.4477 76.6016 96.4875 76.7536 96.1846 76.2231C95.4272 74.8339 95.1247 73.0907 95.378 71.5242C95.4666 70.981 96.5402 71.4732 97.0077 71.1572C97.2099 71.0308 97.248 70.4875 97.008 70.4244C95.5428 70.0208 93.8498 70.5268 92.4605 69.921C91.9553 69.6938 92.6 68.544 92.0948 68.2663C90.9961 67.673 89.5557 68.1789 88.419 67.6994C88.078 67.5605 88.5078 66.7518 88.1668 66.6383C86.7142 66.1715 84.9833 66.8417 83.6193 66.1348C82.9878 65.8067 83.7464 64.3663 83.1022 64.0507C81.0436 63.0283 78.5422 63.3578 76.3823 62.5628C72.4542 61.137 67.0349 61.1013 64.9394 57.4893C63.0585 54.2435 66.0288 50.0356 67.0535 46.4349C67.2306 45.8032 67.812 45.045 68.4436 45.0953C69.631 45.1959 70.401 46.623 71.5758 46.812C73.1042 47.0514 74.7217 45.7623 76.1616 46.3175C76.9068 46.6078 75.8576 48.2883 76.5522 48.7049C79.3686 50.3334 82.5642 51.3805 85.7726 51.8845C86.3158 51.9727 85.6974 50.6466 86.0513 50.2169C86.5568 49.5851 87.7575 48.2582 88.1361 48.9655C88.9566 50.4684 87.4778 52.5534 88.1846 54.1195C88.5885 54.9784 90.1551 54.3966 90.9128 54.9774C91.6705 55.5835 91.632 56.9099 92.4403 57.4654C95.3323 59.498 98.4772 61.1516 101.71 62.5904C102.582 62.9816 103.782 62.3116 104.565 62.8671C105.146 63.2711 104.59 64.3325 104.981 64.9261C105.651 65.9491 106.37 67.5026 107.57 67.5147C108.985 67.5141 110.362 66.2124 110.969 64.9237C111.589 63.597 109.392 60.2376 110.845 60.5276C115.859 61.5488 119.723 65.6401 124.447 67.6341C125.407 68.038 126.582 67.8985 127.592 67.6202C128.136 67.481 128.629 66.9629 128.793 66.4196C129.008 65.6742 129.198 64.651 128.668 64.0953C127.62 62.9715 124.423 63.4654 124.588 61.9368C125.032 57.9826 128.482 54.9621 130.1 51.3233C130.379 50.7168 129.558 49.4918 130.215 49.34C132.173 48.8465 134.838 51.2077 136.278 49.767C137.871 48.1747 134.941 44.6135 136.534 43.0211C137.949 41.6057 140.664 44.2195 142.521 43.4735C144.745 42.5883 146.274 40.4275 147.766 38.5573C148.562 37.559 148.222 35.7274 149.308 35.0448C150.597 34.2105 152.416 35.0941 153.882 34.6387C154.842 34.3351 155.348 33.0212 156.346 32.8313C157.521 32.616 158.733 33.1208 159.857 33.5372C166.349 35.9095 173.056 37.8648 179.131 41.1847C181.783 42.6489 184.082 44.9724 185.546 47.6246C186.442 49.2286 185.317 51.3387 185.733 53.1197C186.275 55.4565 187.07 57.7932 188.396 59.776C188.8 60.3822 189.886 59.9269 190.505 60.293C190.733 60.4192 190.732 60.8488 190.568 61.0383C190.075 61.6575 189.443 62.2388 188.711 62.5423C187.119 63.1999 184.681 62.4556 183.708 63.8835C182.81 65.2102 183.668 67.3069 184.615 68.6076C185.284 69.5295 186.75 69.6805 187.861 69.579C190.918 69.2998 193.976 68.6922 196.793 67.491C197.653 67.1117 198.019 66.0125 198.285 65.1154C199.019 62.715 198.628 59.9992 199.753 57.7628C200.107 57.0552 201.358 57.32 202.128 57.5344C202.671 57.6731 203.29 58.1656 203.328 58.734C203.516 62.0815 201.026 65.8849 202.73 68.7771C203.854 70.7094 207.303 68.4215 209.413 69.1155C210.069 69.3426 209.513 70.5302 209.829 71.1491C210.119 71.7174 210.561 72.311 211.154 72.475C212.215 72.7777 213.479 72.9541 214.489 72.4736C215.323 72.069 215.829 71.0583 215.968 70.1361C216.399 67.2809 215.718 64.3504 216.161 61.5079C216.263 60.8763 216.932 60.4086 217.514 60.1052C219.649 59.0305 221.81 57.6528 224.185 57.5002C233.205 56.966 242.262 57.3538 251.281 58.0828C251.837 58.1331 251.116 59.5104 251.634 59.725C253.049 60.3055 254.717 59.7489 256.207 60.1273C256.813 60.2787 257.23 60.8217 257.672 61.2637C261.902 65.4938 266.714 69.269 270.223 74.1184C272.685 77.5156 274.92 81.4686 275.322 85.6624C275.599 88.5425 272.642 90.8681 272.136 93.7233C271.832 95.4414 272.298 97.2729 272.942 98.9023C273.321 99.8369 274.04 100.91 275.025 101.087C276.756 101.402 278.992 101.464 280.23 100.2C282.884 97.5466 284.035 93.7185 285.704 90.3323C286.463 88.8161 287.146 87.2241 287.462 85.5691C287.715 84.2552 286.819 82.7776 287.363 81.552C287.628 80.9582 288.689 81.2609 289.295 81.488C289.813 81.6773 290.382 82.1192 290.482 82.675C291.226 86.4518 292.109 90.317 291.779 94.1574C291.462 97.7326 288.871 100.879 288.579 104.48C288.49 105.478 289.867 106.071 290.738 106.563C291.344 106.916 292.305 106.385 292.797 106.878C293.706 107.762 293.668 109.341 294.552 110.25C295.044 110.743 296.093 110.25 296.573 110.755C297.065 111.247 296.673 112.169 296.989 112.788C297.279 113.357 297.721 113.95 298.314 114.114C299.375 114.417 300.563 114.416 301.649 114.113C302.256 113.936 302.913 113.405 302.976 112.786C303.217 110.651 301.715 108.365 302.474 106.369C303.245 104.335 305.065 102.414 307.162 101.806C312.178 100.326 317.623 99.5283 322.777 100.411C327.589 101.23 331.82 104.171 335.988 106.721C337.541 107.668 339.031 109.032 339.687 110.724C341.618 115.663 342.626 120.943 343.546 126.16C344 128.812 343.127 131.63 343.834 134.232C344.023 134.901 345.286 134.345 345.855 134.736C346.158 134.938 346.145 135.431 346.094 135.785C345.816 137.654 345.044 139.436 344.879 141.318C344.676 143.592 344.259 146.005 345.003 148.165C345.533 149.706 346.998 150.842 348.387 151.65C349.246 152.155 350.762 151.093 351.356 151.889C352.063 152.823 350.774 154.289 351.177 155.401C352.868 159.973 354.786 164.52 357.501 168.574C358.208 169.635 360.052 169.28 360.999 170.126C361.517 170.594 361.125 171.566 361.504 172.147C361.681 172.425 362.148 172.362 362.476 172.362C363.247 172.349 364.182 172.626 364.788 172.146C365.332 171.704 364.802 170.618 365.294 170.125C365.787 169.632 366.798 170.086 367.316 169.618C367.733 169.252 367.114 168.052 367.67 167.976C370.374 167.672 373.165 167.987 375.805 168.63C378.559 169.286 380.933 171.129 383.661 171.86C384.962 172.201 386.415 171.304 387.679 171.758C388.209 171.96 387.678 172.92 387.956 173.425C388.246 173.968 388.739 174.435 389.282 174.751C390.393 175.382 391.821 175.419 392.831 176.202C394.725 177.692 396.531 179.422 397.806 181.481C399.283 183.868 401.606 186.595 400.923 189.324C400.493 191.068 397.222 189.465 395.604 190.249C394.783 190.64 394.366 191.689 394.125 192.586C393.935 193.332 393.847 194.304 394.352 194.885C395.046 195.681 396.929 195.111 397.244 196.109C397.887 198.143 396.447 200.392 396.761 202.502C396.913 203.487 398.378 203.941 398.542 204.939C398.756 206.291 398.136 207.642 397.82 208.994C397.428 210.649 397.654 212.771 396.39 213.909C394.874 215.249 392.31 214.53 390.516 215.49C389.101 216.249 387.559 217.311 387.066 218.839C386.547 220.494 386.976 222.49 387.834 223.98C389.046 226.077 390.877 227.933 392.999 229.12C394.337 229.877 396.119 229.03 397.597 229.446C398.203 229.623 398.658 230.204 398.923 230.772C399.226 231.404 398.947 232.212 399.238 232.831C399.679 233.753 400.778 234.296 401.056 235.281C401.396 236.557 399.69 238.996 400.991 239.26C403.568 239.815 405.982 237.477 408.534 236.87C409.089 236.743 409.81 236.68 410.201 237.096C410.693 237.614 410.137 238.751 410.718 239.206C414.115 241.82 418.271 243.296 421.642 245.935C422.021 246.238 421.061 246.794 420.593 246.908C419.419 247.199 418.156 246.795 416.993 247.099C416.399 247.263 415.919 247.743 415.54 248.249C414.984 248.982 414.44 249.803 414.263 250.713C413.997 251.989 413.39 253.656 414.262 254.604C415.183 255.601 417.053 254.59 418.329 255.082C419.251 255.448 419.87 256.345 420.551 257.052C421.41 257.91 422.496 258.668 422.913 259.792C423.291 260.828 423.366 262.141 422.81 263.102C422.456 263.708 421.307 263.09 420.751 263.519C418.843 264.998 416.632 266.452 415.633 268.638C414.824 270.407 415.227 272.604 415.731 274.474C415.857 274.979 417.45 274.296 417.26 274.764C415.414 279.514 413.188 284.164 410.319 288.372C409.586 289.433 407.893 289.308 406.857 290.041C405.859 290.736 404.431 291.431 404.279 292.644C404.178 293.453 406.313 293.111 406.375 293.932C406.489 295.132 404.758 295.928 404.681 297.116C404.465 300.514 404.881 303.963 405.511 307.323C405.624 307.941 406.218 308.636 406.837 308.648C409.06 308.723 411.208 307.661 413.431 307.585C415.895 307.495 418.497 307.267 420.821 308.125C422.312 308.68 423.612 310.056 424.13 311.559C424.924 313.795 423.913 316.373 424.531 318.659C424.682 319.189 426.123 318.456 426.173 319.012C426.462 323.117 426.574 327.349 425.448 331.304C424.929 333.085 423.11 334.298 421.518 335.234C417.613 337.547 413.482 339.507 409.161 340.923C408.668 341.088 409.174 339.799 408.858 339.382C408.669 339.117 408.214 339.168 407.886 339.168C405.41 339.169 402.441 337.92 400.458 339.399C398.373 340.928 398.169 344.111 397.764 346.638C397.308 349.493 397.496 352.462 397.912 355.329C398.013 355.961 398.682 356.428 399.263 356.731C401.397 357.804 403.646 358.636 405.932 359.33C408.13 359.986 410.669 359.619 412.664 360.73C414.811 361.916 416.605 363.811 417.854 365.92C419.104 368.004 420.088 370.479 419.923 372.917C419.631 377.301 418.214 381.571 416.57 385.64C416.229 386.511 415.117 387.042 414.182 387.144C410.392 387.55 406.565 387.336 402.763 387.148C402.017 387.111 401.361 386.404 400.628 386.455C398.531 386.607 396.547 387.959 394.45 387.783C391.797 387.557 389.537 385.347 386.872 385.285C383.751 385.198 380.656 386.248 377.75 387.335C376.992 387.614 376.524 388.46 376.271 389.218C375.791 390.684 375.424 392.263 375.625 393.779C375.701 394.335 376.484 394.587 377.027 394.726C378.517 395.129 380.096 395.571 381.638 395.419C382.395 395.343 382.75 394.155 383.508 394.079C384.872 393.927 386.198 394.52 387.55 394.785C389.482 395.176 391.44 395.44 393.322 396.033C396.695 397.105 399.878 398.696 403.25 399.743C404.235 400.046 405.89 399.098 406.307 400.045C406.989 401.586 406.76 403.834 405.585 405.035C404.675 405.945 402.869 405.301 401.757 404.645C401.126 404.266 401.91 402.8 401.228 402.498C399.03 401.513 396.415 400.491 394.129 401.212C391.829 401.946 389.971 404.132 389.01 406.33C388.214 408.187 388.061 410.815 389.349 412.356C391.281 414.667 394.957 414.653 397.432 416.37C398.127 416.862 397.709 418.34 398.492 418.694C399.781 419.274 401.36 419.109 402.737 418.793C403.634 418.578 404.443 417.946 405.011 417.225C405.441 416.669 404.949 415.596 405.517 415.204C405.985 414.888 407.021 415.241 407.084 415.81C407.26 417.654 405.149 419.689 406.121 421.267C407.056 422.808 409.696 421.961 411.325 422.731C411.666 422.895 411.616 423.476 411.565 423.855C411.286 425.699 410.363 427.456 410.363 429.325C410.362 431.069 411.385 432.698 411.561 434.441C411.699 435.868 411.951 437.435 411.344 438.723C411.041 439.355 409.841 438.762 409.323 439.23C408.906 439.596 409.524 440.796 408.968 440.872C406.252 441.189 403.435 441.001 400.808 440.218C395.655 438.679 391.108 435.346 385.892 433.971C384.25 433.543 382.518 435.552 380.914 434.984C379.967 434.643 381.319 432.382 380.385 432.028C378.68 431.385 376.708 433.23 374.952 432.738C374.03 432.473 374.258 430.906 373.665 430.161C372.907 429.227 372.036 428.28 370.95 427.775C370.066 427.371 368.954 427.927 368.032 427.587C364.18 426.186 360.656 424.027 356.804 422.601C355.844 422.248 354.264 423.196 353.734 422.312C352.813 420.733 353.862 418.623 353.458 416.855C352.954 414.708 351.237 412.889 350.998 410.679C350.758 408.392 352.414 406.13 352.061 403.857C351.91 402.947 350.634 402.556 349.725 402.38C347.717 401.989 345.569 402.798 343.624 402.193C342.828 401.953 341.919 400.816 342.298 400.083C342.892 398.959 344.762 399.211 345.659 398.314C346.152 397.821 345.546 396.608 346.165 396.292C347.555 395.609 349.74 396.935 350.776 395.772C352.508 393.839 352.13 390.757 353.205 388.394C354.76 384.995 356.353 381.559 358.641 378.589C359.45 377.553 361.496 377.956 362.153 376.819C363.797 373.913 363.659 370.262 365.063 367.242C365.303 366.724 366.667 367.456 366.755 366.888C367.034 365.321 366.681 363.603 365.949 362.189C365.684 361.671 364.774 361.848 364.206 361.962C362.298 362.38 360.579 363.694 358.621 363.758C358.091 363.784 358.799 362.394 358.306 362.179C357.308 361.738 355.995 361.662 355.022 362.181C354.415 362.509 355.021 363.722 354.516 364.202C354.023 364.695 353.088 364.291 352.482 364.62C351.913 364.911 351.433 365.391 351.155 365.947C350.839 366.566 351.192 367.45 350.737 367.981C350.383 368.385 349.272 367.779 349.133 368.323C348.791 369.649 350.319 371.228 349.598 372.377C348.941 373.414 347.059 372.644 345.998 373.276C344.924 373.92 344.077 374.969 343.483 376.069C342.358 378.179 341.548 380.453 340.89 382.752C340.738 383.283 340.738 383.99 341.104 384.407C341.445 384.798 342.759 384.192 342.645 384.71C342.101 387.299 340.824 389.713 339.484 392.012C338.852 393.099 337.968 394.161 336.818 394.679C333.962 395.969 330.905 397.031 327.772 397.285C325.852 397.437 323.818 396.844 322.164 395.872C321.545 395.506 322.114 394.382 321.76 393.75C321.167 392.702 320.232 391.869 319.386 390.997C315.649 387.159 312.05 383.156 308.009 379.645C307.049 378.812 305.432 378.964 304.498 378.106C303.98 377.639 304.435 376.653 304.094 376.059C303.489 375.024 302.567 374.178 301.708 373.319C300.849 372.46 300.016 371.551 298.968 370.933C298.362 370.579 297.427 371.009 296.922 370.529C296.416 370.049 296.922 368.988 296.417 368.508C295.925 368.016 294.99 368.42 294.383 368.092C293.815 367.802 293.335 367.322 293.057 366.766C292.742 366.147 293.159 365.2 292.641 364.733C291.694 363.861 290.065 364.052 289.13 363.193C281.68 356.349 274.76 348.949 267.638 341.752C265.946 340.06 264.153 338.418 262.739 336.473C262.323 335.905 262.816 334.932 262.336 334.427C261.856 333.922 260.807 334.415 260.315 333.922C259.822 333.43 260.315 332.381 259.81 331.901C259.318 331.409 258.383 331.814 257.777 331.486C257.208 331.195 256.728 330.715 256.451 330.16C256.135 329.541 256.527 328.618 256.035 328.126C255.542 327.633 254.607 328.038 254.001 327.71C253.433 327.42 252.953 326.94 252.675 326.384C252.36 325.765 252.739 324.855 252.259 324.35C251.767 323.858 250.718 324.351 250.238 323.846C249.758 323.341 250.239 322.355 249.835 321.8C248.421 319.855 246.64 318.226 244.935 316.521C243.66 315.246 242.423 313.882 240.92 312.885C240.339 312.506 239.366 312.974 238.874 312.481C238.381 311.989 238.95 310.94 238.457 310.448C237.561 309.551 235.982 309.59 235.085 308.693C234.593 308.201 234.997 307.266 234.669 306.659C234.379 306.091 233.899 305.611 233.343 305.334C232.712 305.031 231.777 305.486 231.272 305.006C230.363 304.122 230.414 302.53 229.517 301.634C229.025 301.141 228.09 301.546 227.484 301.218C226.915 300.927 226.473 300.435 226.158 299.892C225.514 298.793 225.578 297.29 224.694 296.381C223.797 295.484 222.142 295.674 221.195 294.828C220.677 294.361 221.196 293.287 220.691 292.807C220.173 292.29 219.011 292.871 218.581 292.29C216.018 288.843 214.58 284.674 212.08 281.189C210.704 279.257 208.936 277.59 207.042 276.151C206.019 275.38 204.528 275.457 203.48 274.712C201.99 273.651 200.538 272.401 199.578 270.835C198.303 268.777 198.633 265.77 196.915 264.053C196.069 263.207 194.262 265.368 193.34 264.597C192.418 263.827 193.569 262.147 193.241 260.984C193.077 260.416 192.129 260.328 191.94 259.76C191.599 258.61 192.421 257.157 191.752 256.159C189.757 253.179 187.257 250.451 184.315 248.394C176.775 243.129 168.161 239.57 160.584 234.394C159.523 233.662 159.713 231.88 158.817 230.958C158.324 230.466 157.275 230.959 156.796 230.454C156.278 229.936 156.859 228.774 156.279 228.345C153.336 226.16 149.635 225.164 146.693 222.98C146.112 222.55 146.693 221.388 146.176 220.87C145.683 220.378 144.647 220.858 144.155 220.366C143.65 219.861 144.269 218.635 143.65 218.269C139.849 216.009 135.327 215.152 131.538 212.88C130.894 212.488 131.627 211.124 131.021 210.695C128.495 208.927 125.274 208.335 122.685 206.656M22.5029 97.9811C22.6422 97.2862 22.3016 96.2379 22.9081 95.8839C23.8683 95.353 25.4349 95.0997 26.2178 95.8826C26.7986 96.4634 25.6992 97.4871 25.181 98.1316C24.4226 99.0667 23.5632 100.027 22.4387 100.495C22.0597 100.647 21.5673 100.028 21.5801 99.6363M31.7974 105.531C31.3429 104.824 30.1304 104.218 30.4213 103.422C30.8639 102.146 32.4692 99.8592 33.4542 100.768C34.6033 101.867 33.0992 103.952 32.5806 105.455M11.3924 82.9529C11.0264 82.2077 9.44802 80.604 10.2944 80.6921C11.6839 80.8432 12.8202 82.0806 13.6662 83.2046C13.9061 83.5203 13.1984 84.1017 12.8068 84.064M381.577 450.282C378.597 447.302 375.086 444.802 372.612 441.392C371.968 440.495 372.196 439.055 372.714 438.082C372.992 437.552 373.889 437.741 374.47 437.867C376.681 438.333 378.739 439.431 380.975 439.822C382.289 440.049 383.717 439.278 384.992 439.72C385.523 439.896 384.802 441.475 385.358 441.374C386.318 441.197 386.445 438.974 387.38 439.276C388.58 439.667 388.251 441.739 389.135 442.623C389.627 443.116 390.6 442.648 391.181 443.027C392.204 443.696 393.277 444.516 393.757 445.628C393.946 446.07 393.175 446.563 392.708 446.626C389.853 446.981 386.796 445.896 384.067 446.832C382.867 447.249 383.056 449.182 382.31 450.231M365.187 433.816C365.099 433.045 364.771 432.262 364.935 431.491C365.049 431.024 365.479 430.24 365.908 430.442C366.654 430.783 367.424 431.73 367.247 432.539M355.842 426.24C355.552 425.975 354.768 425.798 354.958 425.457C355.375 424.762 356.449 423.663 357.056 424.193M17.9093 86.6137C17.4675 85.919 16.0404 85.1238 16.5964 84.5172C17.1651 83.9233 18.2636 85.0723 18.6929 85.7796M31.2947 99.1902C31.0043 98.9251 30.2211 98.7485 30.4107 98.4073C30.8279 97.7124 31.9021 96.6129 32.5082 97.1432M26.7126 90.4377C25.8288 89.4275 23.1384 88.4053 24.0484 87.3944C25.0974 86.2191 27.2444 87.6331 28.7221 88.1757C29.3284 88.4028 29.985 88.9331 30.0479 89.5773C30.0983 90.0574 29.4665 90.4366 28.9991 90.5505M31.525 91.939C31.6011 91.1558 31.4373 90.3095 31.7407 89.5767C31.8293 89.3366 32.3219 89.3238 32.5113 89.5132C33.0922 90.0941 34.0267 90.8011 33.8495 91.6096C33.6597 92.4055 32.5479 92.7597 31.752 92.8738M15.3627 74.0833C14.9209 73.3634 13.8347 72.7322 14.0624 71.8984C14.2396 71.2162 15.6162 71.8851 16.0965 71.3796C16.5893 70.8867 16.1981 69.9647 16.5141 69.3456C16.7923 68.7896 17.2851 68.2968 17.8411 68.0186C18.3339 67.7784 18.9656 67.6266 19.4455 67.8791C24.7374 70.6181 29.6121 74.1027 34.8914 76.8797C37.7583 78.3818 41.1057 78.9489 43.8715 80.6532C44.4777 81.0319 43.8836 82.2322 44.376 82.75C44.8685 83.2424 45.8161 82.901 46.4096 83.2671C46.6243 83.406 46.6873 83.8986 46.4725 84.0124C45.3606 84.695 44.1221 85.6808 42.8337 85.4792C41.9495 85.3532 42.2156 83.4709 41.344 83.2312C38.7673 82.5501 35.9877 83.4355 33.3604 82.9565C30.7709 82.4902 28.2448 81.607 25.883 80.4332M222.061 277.42C222.706 277.433 223.438 277.18 224.007 277.47C228.516 279.704 232.645 282.671 237.167 284.918C240.387 286.521 244.063 287.164 247.157 288.994C247.789 289.373 247.043 290.775 247.687 291.141C251.476 293.388 255.846 294.524 259.812 296.467C260.671 296.897 261.15 298.261 262.11 298.235C264.397 298.171 266.873 297.639 268.642 296.199C269.514 295.478 269.022 293.899 268.745 292.813C268.581 292.194 267.975 291.714 267.394 291.437C262.758 289.101 257.832 287.36 253.21 284.987C244.66 280.607 236.488 275.52 227.913 271.165C227.395 270.9 226.713 271.052 226.195 271.292C225.626 271.557 225.146 272.063 224.868 272.619C224.564 273.251 224.842 274.059 224.526 274.678C224.248 275.234 223.78 276.182 223.186 275.992C222.403 275.765 222.707 274.098 221.899 273.896C221.115 273.694 219.991 274.364 219.801 275.16C219.611 275.981 220.533 276.701 221.139 277.282M157.182 212.996C161.084 214.75 165.227 216.037 168.865 218.259C169.484 218.625 168.952 219.737 169.293 220.381C169.584 220.949 170.038 221.53 170.644 221.757C173.764 222.956 177.238 223.119 180.244 224.583C180.888 224.898 180.167 226.25 180.761 226.667C181.531 227.21 182.757 226.515 183.591 226.944C188.819 229.569 193.58 233.016 198.759 235.717C201.626 237.219 204.556 238.658 207.663 239.516C209.406 239.995 211.339 239.249 213.108 239.703C214.08 239.943 214.534 241.358 215.532 241.496C218.817 241.975 222.24 242.213 225.499 241.53C229.567 240.669 233.396 238.811 237.085 236.914C238.184 236.345 239.208 235.398 239.701 234.273C240.144 233.25 240.157 231.949 239.703 230.913C239.21 229.789 238.137 228.993 237.114 228.324C236.672 228.034 235.99 227.958 235.51 228.186C231.808 230.044 228.838 233.545 224.795 234.481C221.194 235.304 217.38 234.118 213.818 233.185C209.599 232.075 205.545 230.346 201.642 228.389C189.454 222.318 177.304 216.082 165.584 209.139C163.487 207.902 161.619 206.084 160.445 203.949C159.7 202.598 160.724 200.766 160.131 199.339C159.676 198.202 158.73 196.573 157.529 196.763C156.127 197.003 156.101 199.302 155.014 200.212C154.471 200.655 153.574 200.238 152.942 200.542C152.386 200.82 151.944 201.338 151.615 201.869C151.426 202.185 151.299 202.639 151.451 202.968M35.5047 90.8131C40.6588 90.7352 46.4455 88.1053 50.9796 90.5668C53.215 91.7912 50.3202 96.8581 47.8818 97.5539C44.5465 98.49 41.0862 95.8638 38.0551 94.2228M384.109 437.547C384.513 436.839 384.527 435.614 385.31 435.437C386.118 435.234 387.078 436.017 387.419 436.762C387.621 437.192 386.837 437.647 386.383 437.748M395.476 443.909C395.034 443.215 393.607 442.419 394.163 441.813C394.731 441.219 395.83 442.368 396.259 443.075M68.19 109.471C69.3905 108.548 70.8056 107.865 71.7662 106.703C72.2085 106.159 71.5774 104.997 72.1839 104.669C73.1442 104.138 74.698 103.897 75.4683 104.667C76.0491 105.248 74.9749 106.297 74.4315 106.916C72.8391 108.711 71.3855 110.897 69.1618 111.807M406.832 445.18C405.986 444.057 403.321 442.832 404.269 441.809C405.217 440.785 406.782 443.21 407.641 444.321M245.214 283.538C244.772 282.843 243.345 282.048 243.901 281.441C244.47 280.847 245.569 281.996 245.998 282.704M348.748 382.042C348.306 381.347 346.879 380.552 347.435 379.945C348.004 379.351 349.102 380.5 349.532 381.208M38.0858 111.845C37.6439 111.151 36.2168 110.355 36.7729 109.749C37.3416 109.155 38.4402 110.304 38.8694 111.011M59.3287 93.0773C59.7331 92.6729 59.9481 92.0032 60.4914 91.8388C61.2368 91.6237 62.3738 91.4212 62.803 92.0526C63.409 92.9619 63.5726 94.5661 62.8017 95.3371C62.0308 96.1079 60.4392 95.9318 59.5172 95.3384M36.8142 70.1584C35.8924 69.3629 34.8189 68.7191 34.0361 67.7847C33.5058 67.1532 32.1674 65.5116 32.9885 65.5239C34.3907 65.5359 35.5018 66.824 36.4994 67.8215C37.0929 68.415 37.4336 69.2613 37.5343 70.095M54.8346 85.3733C54.6332 83.7564 55.114 81.8866 54.2177 80.51C53.5107 79.4239 51.742 79.6267 50.6559 78.8945C50.4159 78.7303 50.3152 78.0483 50.5931 78.0481C53.069 78.1229 55.4562 79.1705 57.9195 79.1316C58.867 79.1185 59.7768 78.4866 60.4844 77.8547C62.2915 76.2749 64.5154 74.8338 65.4006 72.6101C66.1341 70.7402 63.5581 68.0632 64.9483 66.6226C66.1742 65.3462 68.4346 67.177 70.1145 67.7447C74.5479 69.2462 78.7537 71.3541 83.2124 72.805C85.5996 73.5746 88.303 73.2956 90.5765 74.3558C91.208 74.6587 90.5253 75.897 90.9925 76.3895C91.7628 77.2103 93.5946 76.919 93.9732 77.98C94.5157 79.483 93.9087 81.2518 93.2512 82.6922C92.7328 83.8167 91.7723 84.8782 90.6226 85.3208C88.0704 86.2819 85.253 87.1042 82.5498 86.701C79.6192 86.2727 77.3844 83.6335 74.5045 82.9525C72.0161 82.3598 69.3884 82.6387 66.8491 82.9556M39.2776 70.1954C40.8061 70.2832 42.3979 70.0046 43.8757 70.4461C44.8862 70.7489 45.4163 71.9614 46.4014 72.34C47.3235 72.7059 48.7892 71.7706 49.37 72.5788C50.0518 73.5133 50.3034 76.0144 49.1412 76.0402C46.4757 76.1044 44.1269 74.1347 41.8409 72.7839M77.2617 105.475C77.6031 104.73 77.6793 103.82 78.2606 103.239C78.842 102.657 79.9036 101.596 80.5097 102.177C81.0906 102.758 80.029 103.819 79.4602 104.413M38.1043 66.3934C37.6624 65.6988 36.2353 64.9036 36.7914 64.297C37.3601 63.703 38.4586 64.8521 38.8878 65.5593M41.883 62.6906C41.3653 61.895 40.6708 61.2004 40.3553 60.3036C40.1408 59.71 39.8004 58.2827 40.394 58.4214C44.2592 59.3293 47.9093 61.0585 51.4457 62.8762C52.1782 63.2548 52.6832 64.0884 52.9481 64.8589C53.2888 65.8567 53.9956 67.3723 53.1742 68.0169C52.1885 68.8005 50.5087 68.258 49.4352 67.6142C48.8037 67.2355 49.5496 65.8582 48.9181 65.4542M353.287 373.159C352.996 372.894 352.213 372.717 352.403 372.376C352.82 371.681 353.894 370.582 354.5 371.112M396.651 412.328C396.916 412.037 397.093 411.254 397.434 411.443C398.129 411.86 399.24 412.945 398.697 413.539M79.7774 70.0778C80.182 69.3702 80.1951 68.1449 80.9784 67.9677C81.7996 67.7779 82.7467 68.5481 83.0875 69.2932C83.2894 69.7227 82.506 70.1777 82.0512 70.279M79.7866 47.3898C79.3448 46.6952 77.9177 45.8999 78.4737 45.2933C79.0424 44.6994 80.141 45.8485 80.5703 46.5558M74.7231 42.2757C74.6733 40.4567 73.7141 38.4359 74.5485 36.8186C74.9657 35.9973 76.3927 37.0199 77.2516 37.3733C80.0808 38.5596 83.0238 39.6574 85.5369 41.4123C86.1305 41.8289 85.5109 43.0292 86.0539 43.5217C87.0137 44.3803 88.5675 44.266 89.5652 45.0614C90.6007 45.8947 93.2651 48.5844 91.9641 48.2439C87.7074 47.1213 84.2095 43.9773 80.054 42.5262M97.2788 56.9708C97.3171 56.0233 96.5344 54.533 97.4063 54.1157C99.1499 53.2813 101.474 53.2803 103.217 54.1133C103.975 54.4668 102.686 55.9074 101.953 56.2614M107.546 65.0388C107.104 64.3441 105.677 63.5488 106.233 62.9422C106.801 62.3483 107.9 63.4974 108.329 64.2047M94.9057 52.424C94.4639 51.7294 93.0241 50.9215 93.5928 50.3275C94.3637 49.5314 96.3218 49.3916 96.9025 50.3262M141.603 96.644C140.681 95.8486 139.62 95.1921 138.85 94.2449C138.332 93.6009 137.057 92.3508 137.802 91.9841C139.546 91.1497 141.782 91.3889 143.613 91.9818C144.283 92.1963 143.625 93.5104 144.118 94.0028C144.61 94.4953 145.949 93.8378 146.151 94.5199C146.378 95.303 145.633 96.276 144.9 96.63M147.955 100.343C148.36 99.6352 148.398 98.5614 149.144 98.22C150.154 97.7648 151.683 97.5242 152.453 98.2945C153.236 99.0774 152.831 100.543 152.54 101.592C152.376 102.185 151.807 103.082 151.201 102.906C150.418 102.679 150.57 101.314 149.926 100.822M156.732 106.668C156.998 106.377 157.175 105.594 157.516 105.783C158.211 106.2 159.309 107.273 158.778 107.88M96.8289 44.9701C96.5262 43.7322 96.4383 42.4311 95.9209 41.2817C95.6685 40.726 95.1128 40.322 94.6077 39.9685C93.8373 39.4509 93.029 38.9206 92.1321 38.7062C90.9448 38.4035 89.2769 39.3643 88.4941 38.4298C87.0547 36.6871 86.5884 34.1987 86.5261 31.9375C86.5138 31.2933 87.6507 31.1917 88.3202 31.1283C89.9246 30.9634 91.8071 30.3942 93.1584 31.2653C94.7118 32.2879 94.635 34.7891 95.9608 36.115C96.7816 36.9358 98.0573 37.5038 99.2196 37.377C102.353 37.022 105.486 36.1111 108.303 34.7078C108.935 34.3791 108.291 33.1793 108.721 32.598C109.214 31.9283 110.074 30.9426 110.857 31.2707C112.549 31.9775 114.001 33.4801 114.771 35.1346C117.485 40.9066 119.251 47.0958 121.143 53.1839C121.307 53.7271 121.446 54.6745 120.915 54.8515C118.616 55.6357 116.114 55.8388 113.689 55.7135C113.285 55.6884 113.904 54.5891 113.5 54.5135C112.35 54.2739 110.783 55.7904 110.001 54.9317C108.94 53.7447 110.735 51.3186 109.611 50.1947C108.171 48.7552 105.518 49.5648 103.737 48.618C103.207 48.3403 103.864 47.1778 103.359 46.8749C102.526 46.3699 101.287 47.1284 100.454 46.6234C99.9612 46.3331 100.694 45.1959 100.189 44.9687M123.98 66.2574C124.385 65.5498 124.625 64.7286 125.181 64.1473C125.371 63.9577 126.015 63.9701 125.952 64.2101C125.762 65.006 125.244 65.7263 124.688 66.3076M434.623 351.625C435.028 350.918 435.268 350.097 435.824 349.515C436.014 349.326 436.658 349.338 436.595 349.578C436.405 350.374 435.9 351.107 435.331 351.676M361.007 274.799C362.649 274.748 364.405 275.291 365.921 274.658C367.387 274.051 369.118 272.926 369.346 271.36C370.056 266.307 369.274 261.128 368.531 256.088C368.38 255.102 366.89 254.673 366.751 253.675C366.449 251.553 368.244 249.152 367.272 247.245C365.643 244.025 362.6 241.588 359.607 239.555C358.293 238.671 356.449 238.546 354.895 238.837C354.339 238.938 354.97 240.1 354.541 240.479C354.01 240.934 353.05 240.48 352.507 240.897C351.85 241.403 350.851 242.249 351.167 243.02C351.861 244.7 353.528 245.836 355.018 246.871C355.599 247.275 356.471 246.883 357.09 247.199C357.671 247.477 358.302 247.931 358.466 248.55C359.286 251.266 359.159 254.196 359.991 256.925C360.282 257.872 361.646 258.352 361.771 259.337C362.023 261.358 361.58 263.417 361.062 265.375C360.505 267.548 359.228 269.482 358.608 271.642C358.444 272.185 358.406 272.88 358.734 273.335M444.718 349.158C444.276 348.463 442.849 347.668 443.405 347.062C443.974 346.468 445.072 347.617 445.501 348.324M439.672 331.424C439.584 330.654 439.256 329.87 439.42 329.1C439.534 328.632 439.964 327.849 440.406 328.038C441.151 328.379 441.922 329.326 441.744 330.135M145.474 19.5084C145.879 18.8008 145.879 17.6133 146.663 17.3856C148.545 16.8417 150.743 16.6386 152.512 17.4717C153.244 17.8251 152.043 19.3541 151.26 19.5818M299.239 171.2C299.984 171.566 300.741 172.703 301.487 172.311C302.384 171.843 301.576 169.443 302.574 169.481C306.162 169.606 309.623 171.145 312.856 172.736C313.5 173.051 312.741 174.492 313.373 174.82C314.724 175.514 316.569 174.629 317.92 175.323C318.539 175.639 318.021 176.738 318.336 177.357C318.627 177.925 319.107 178.405 319.662 178.683C320.294 178.986 321.178 178.581 321.747 178.998C323.691 180.462 325.586 182.104 326.911 184.137C328.224 186.132 328.817 188.52 329.498 190.819C329.776 191.753 328.891 193.32 329.775 193.749C331.518 194.608 333.754 194.392 335.611 193.848C336.786 193.506 337.544 192.293 338.202 191.257C338.492 190.79 338.543 190.107 338.341 189.602C336.89 186.331 335.514 182.933 333.305 180.117C330.338 176.341 326.777 173.033 322.988 170.104C320.639 168.286 317.785 167.251 315.095 166.027C311.811 164.512 308.59 162.732 305.091 161.862C304.397 161.698 304.055 163 303.36 163.139C301.92 163.417 300.291 162.445 298.926 163.027C297.461 163.659 296.02 164.948 295.628 166.477C295.438 167.273 297.219 167.108 297.724 167.765M154.318 18.2668C154.722 17.5592 154.735 16.3339 155.519 16.1567C156.34 15.9669 157.287 16.7371 157.628 17.4823C157.83 17.9117 157.046 18.3667 156.591 18.468M406.871 225.425C406.416 224.718 405.28 224.112 405.495 223.291C405.798 222.104 407.062 221.345 408.098 220.688C408.679 220.309 409.715 220.813 410.157 220.27C410.524 219.828 409.64 219.146 409.817 218.615C410.829 215.482 412.788 212.689 413.661 209.518C414.053 208.091 412.917 206.424 413.524 205.059C414.004 203.973 416.014 202.014 416.481 203.087C417.717 205.942 416.907 209.328 416.704 212.435C416.564 214.545 416.046 216.629 415.438 218.651C414.743 220.938 414.653 223.831 412.77 225.309M299.578 113.002C299.124 112.295 298.025 111.727 298.202 110.893C298.367 110.097 299.554 109.288 300.3 109.629C300.994 109.944 300.691 111.182 300.513 111.94M361.446 159.704C361.004 159.01 359.577 158.215 360.133 157.608C360.702 157.014 361.8 158.163 362.229 158.87M353.877 134.392C354.281 133.684 354.521 132.863 355.078 132.282C355.267 132.092 355.911 132.105 355.848 132.345C355.658 133.141 355.153 133.873 354.584 134.442M281.875 62.4665C281.433 61.7719 280.006 60.9766 280.562 60.37C281.131 59.7761 282.23 60.9252 282.659 61.6324M278.075 58.691C277.633 57.9964 276.205 57.2011 276.762 56.5945C277.33 56.0005 278.429 57.1496 278.858 57.8569M175.663 274.698C176.068 273.99 176.308 273.169 176.864 272.588C177.054 272.398 177.698 272.411 177.635 272.651C177.445 273.447 176.939 274.179 176.371 274.748M347.527 123.038C347.932 122.33 348.172 121.509 348.728 120.928C348.918 120.738 349.562 120.751 349.499 120.991C349.309 121.787 348.803 122.519 348.234 123.088" fill="#50231B"/>
</g>
</svg>
