<svg width="178" height="151" viewBox="0 0 178 151" fill="none" xmlns="http://www.w3.org/2000/svg">
<mask id="mask0_168_383" style="mask-type:alpha" maskUnits="userSpaceOnUse" x="0" y="0" width="178" height="151">
<rect width="178" height="151" fill="#D9D9D9"/>
</mask>
<g mask="url(#mask0_168_383)">
<g opacity="0.05">
<path d="M100.355 0.00209634C85.1284 0.648433 67.746 11.8359 61.3722 25.8438C55.8973 37.8774 64.0216 45.892 75.5002 48.3481C91.179 51.7032 109.073 49.4116 124.223 44.6346C133.669 41.6556 147.826 36.1382 146.722 24.04C144.842 3.45708 116.11 0.195997 100.361 0.00209634C97.8348 -0.0272826 97.8289 3.89778 100.361 3.93304C109.507 4.05055 118.895 4.93193 127.489 8.27526C135.231 11.2895 147.268 20.2324 141.728 29.9745C135.437 41.0445 114.083 43.7768 102.893 45.0577C93.1587 46.1682 69.8079 48.8123 64.28 37.6542C60.2208 29.4516 69.4143 19.9269 75.0009 15.1499C82.056 9.11547 90.9441 4.33259 100.361 3.93304C102.881 3.82727 102.893 -0.103668 100.361 0.00209634H100.355Z" fill="white"/>
<path d="M65.4254 40.5568C52.4723 45.3044 38.0094 50.9452 27.5354 60.1114C17.2022 69.1543 22.3894 76.1934 33.9267 78.8787C54.2463 83.6028 76.4223 82.6686 97.1179 82.2338C113.983 81.8813 142.31 84.9719 154.887 71.2754C169.555 55.305 140.318 43.0364 128.828 39.2289C126.419 38.4356 125.391 42.2255 127.782 43.0187C135.648 45.6217 152.185 51.2742 154.587 60.0174C158.388 73.8255 133.663 76.546 125.591 77.1336C105.883 78.5673 85.9447 78.8611 66.2008 78.1913C56.5726 77.8622 46.7683 77.4391 37.2928 75.5706C30.8545 74.3014 21.9077 72.5622 28.0699 64.9942C36.4997 54.6469 54.3051 48.8064 66.471 44.3525C68.8267 43.4888 67.8104 39.6931 65.4254 40.5627V40.5568Z" fill="white"/>
<path d="M65.2904 78.6202C53.3712 83.2033 37.9979 89.5492 30.4199 100.343C20.2747 114.786 39.2609 122.195 50.5574 124.328C64.0744 126.878 78.0262 127.16 91.7371 127.342C105.947 127.53 120.457 127.9 134.585 126.079C148.396 124.293 161.884 118.905 163.023 103.175C164.192 87.0167 146.892 78.9199 133.252 76.9926C130.778 76.6401 129.709 80.4299 132.206 80.7825C146.181 82.7626 164.627 91.9641 157.771 109.069C150.146 128.094 114.665 123.535 98.7864 123.47C84.3294 123.411 69.6551 123.335 55.3274 121.173C48.2781 120.109 31.2364 117.894 31.4068 107.923C31.6183 95.4779 56.6668 86.1236 66.3302 82.416C68.6682 81.517 67.6519 77.7153 65.2845 78.6261L65.2904 78.6202Z" fill="white"/>
<path d="M48.5364 120.138C33.7623 124.716 14.8937 133.053 7.45079 147.484C-0.379811 162.667 11.886 172.486 25.4559 176.423C38.5676 180.224 52.6603 181.029 66.2185 181.611C84.2823 182.381 102.575 182.557 120.586 180.782C135.319 179.325 158.077 176.916 165.144 161.275C173.098 143.677 156.015 127.818 141.176 121.513C138.873 120.538 136.87 123.917 139.191 124.904C153.877 131.144 173.374 150.71 157.202 165.535C149.841 172.28 138.503 174.372 128.987 175.817C111.54 178.473 93.6403 178.368 76.0464 177.986C60.8434 177.651 45.2233 177.134 30.361 173.632C22.5598 171.792 10.8462 168.596 9.03685 159.365C5.37122 140.651 35.7478 128.212 49.5704 123.928C51.9789 123.182 50.9509 119.386 48.5248 120.138H48.5364Z" fill="white"/>
<path d="M25.7908 146.556C22.1428 150.164 22.7361 155.834 25.8026 159.647C29.8031 164.612 36.8583 164.883 42.7092 164.888C45.2352 164.888 45.241 160.963 42.7092 160.958C38.6088 160.958 33.8799 161.046 30.3729 158.572C27.5414 156.574 25.7791 152.091 28.5635 149.335C30.3611 147.555 27.5825 144.776 25.7849 146.556H25.7908Z" fill="white"/>
<path d="M141.182 95.3838C144.008 97.8928 145.84 101.025 146.657 104.715C147.203 107.182 150.986 106.137 150.446 103.669C149.5 99.3735 147.25 95.5307 143.961 92.6045C142.075 90.9299 139.29 93.6975 141.182 95.3838Z" fill="white"/>
<path d="M83.5891 17.647C78.6899 20.1736 76.2579 25.9201 77.7147 31.2142C78.3844 33.6467 82.1734 32.6185 81.5037 30.1683C80.4992 26.5018 82.2204 22.7707 85.5747 21.0373C87.8246 19.8798 85.839 16.4836 83.5891 17.647Z" fill="white"/>
</g>
</g>
</svg>
