<svg width="275" height="167" viewBox="0 0 275 167" fill="none" xmlns="http://www.w3.org/2000/svg">
<mask id="mask0_168_364" style="mask-type:alpha" maskUnits="userSpaceOnUse" x="0" y="0" width="275" height="167">
<rect width="275" height="167" fill="#D9D9D9"/>
</mask>
<g mask="url(#mask0_168_364)">
<g opacity="0.05">
<path d="M256.77 88.9366C252.259 87.7537 224.013 76.816 260.513 74.1747C263.655 73.9479 271.739 77.4966 272.703 79.9758C274.21 83.8486 271.415 90.4355 268.823 93.1092C264.49 97.5896 254.689 99.1127 249.318 95.6208C241.169 90.3058 243.478 78.8982 247.957 72.0439C254.899 61.4059 271.764 56.1639 283.258 62.6374C292.856 68.0496 293.31 80.3808 290.321 89.9088C284.546 108.341 261.898 111.112 245.851 115.827C199.446 129.447 152.611 141.648 105.824 153.866C98.2425 155.843 90.6526 157.82 83.0709 159.781C81.1593 160.275 78.8426 160.51 77.0444 161.336C74.4524 162.527 74.0878 161.012 77.0363 162.633C72.8242 160.307 68.7418 154.109 65.4369 150.706C57.5231 142.54 49.6254 134.357 41.7683 126.141C33.6358 117.642 25.5275 109.119 17.557 100.466C14.7948 97.468 12.0327 94.4784 9.36775 91.3996C8.49294 90.3869 7.45612 88.4829 6.3302 87.8347C2.66084 85.7444 7.35894 87.2999 3.61667 88.5963C16.099 84.2698 30.5334 81.3045 43.688 77.9341C84.5208 67.4906 125.427 57.3062 166.34 47.1868C169.726 46.3523 168.292 41.1265 164.899 41.961C123.985 52.0805 83.079 62.2647 42.2462 72.7082C32.3803 75.2279 22.5143 77.7477 12.6888 80.4051C10.0805 81.11 2.67705 81.7501 0.773516 83.9863C-4.86418 90.5975 22.0283 113.21 26.0783 117.488C41.6549 133.976 57.4259 150.293 73.2779 166.522C73.9583 167.218 74.9789 167.461 75.9104 167.218C137.706 151.338 199.826 135.847 260.788 116.994C269.569 114.28 280.228 112.133 287.089 105.562C298.413 94.7133 302.828 70.1317 288.733 59.6315C273.173 48.0375 248.97 56.5204 241.226 73.1863C233.264 90.3059 245.924 108.892 265.397 101.641C278.511 96.7551 285.542 70.8448 267.608 67.4824C254.178 64.9627 238.893 89.8521 255.345 94.1624C258.723 95.0455 260.156 89.8197 256.786 88.9366H256.77Z" fill="white"/>
<path d="M240.497 85.3962C243.891 88.0699 247.447 90.4357 251.287 92.4207C254.381 94.0168 257.127 89.3419 254.024 87.7458C250.614 85.9877 247.35 83.9541 244.328 81.5721C241.623 79.4331 237.759 83.2411 240.497 85.4043V85.3962Z" fill="white"/>
<path d="M255.11 65.2053C260.569 67.7736 265.932 70.5121 271.213 73.437C274.267 75.1303 276.996 70.4473 273.951 68.7621C268.678 65.8373 263.307 63.0988 257.848 60.5305C254.713 59.0559 251.959 63.7226 255.11 65.2053Z" fill="white"/>
<path d="M260.132 81.4181C261.914 85.0397 259.492 88.5155 255.79 89.1394C252.364 89.7146 253.814 94.9404 257.232 94.3651C264.627 93.1174 268.005 85.1612 264.814 78.6796C263.275 75.5522 258.601 78.2907 260.14 81.4181H260.132Z" fill="white"/>
<path d="M255.555 80.405C256.965 81.3124 258.504 81.9848 260.116 82.4142C263.485 83.3217 264.927 78.0959 261.557 77.1885C260.342 76.8644 259.346 76.4026 258.293 75.7221C255.353 73.8262 252.639 78.5172 255.555 80.3968V80.405Z" fill="white"/>
<path d="M250.46 96.1639C224.653 78.8985 197.639 63.6586 172.31 45.6396C159.909 36.8165 165.692 19.0164 176.36 10.8009C186.007 3.37947 193.168 5.6561 203.074 10.3553C232.616 24.3637 259.897 44.7646 285.987 64.3148C288.782 66.4051 291.479 61.7059 288.725 59.6399C274.404 48.9128 259.735 38.6151 244.806 28.7631C233.482 21.2849 221.972 13.9121 209.887 7.72211C203.65 4.52991 195.784 -0.0720623 188.502 0.000855934C170.156 0.179101 152.837 26.1461 161.869 43.0226C164.38 47.7137 169.208 50.0958 173.485 53.0287C182.176 58.9918 190.9 64.9305 199.697 70.7316C215.484 81.1265 232.016 90.3547 247.722 100.863C250.63 102.807 253.344 98.1164 250.46 96.1881V96.1639Z" fill="white"/>
<path d="M15.0784 80.7052C14.2117 86.49 13.3369 92.2749 12.4701 98.0598C11.9598 101.471 17.1763 102.945 17.6947 99.502C18.5615 93.7171 19.4363 87.9322 20.303 82.1474C20.8133 78.7364 15.5968 77.2618 15.0784 80.7052Z" fill="white"/>
<path d="M21.7934 81.394C21.8744 90.5169 21.0806 99.5101 19.3309 108.471C18.6667 111.874 23.8913 113.332 24.5555 109.913C26.3943 100.482 27.2934 91.003 27.2124 81.394C27.18 77.9101 21.761 77.902 21.7934 81.394Z" fill="white"/>
<path d="M34.5513 77.1887C32.2508 89.3093 30.8009 101.503 30.1934 113.834C30.0233 117.318 35.4423 117.31 35.6124 113.834C36.1875 101.989 37.5645 90.2816 39.7758 78.6309C40.4238 75.2199 35.1993 73.7615 34.5513 77.1887Z" fill="white"/>
<path d="M175.89 21.4716L172.156 31.8179C170.974 35.0992 176.206 36.5171 177.381 33.2601L181.115 22.9138C182.298 19.6324 177.065 18.2146 175.89 21.4716Z" fill="white"/>
<path d="M182.921 28.4714C182.508 30.0108 182.103 31.5501 181.69 33.0895C180.791 36.4599 186.015 37.9021 186.915 34.5317C187.328 32.9923 187.733 31.453 188.146 29.9136C189.045 26.5431 183.82 25.1009 182.921 28.4714Z" fill="white"/>
<path d="M193.727 38.8743C197.21 38.8743 197.218 33.4541 193.727 33.4541C190.236 33.4541 190.236 38.8743 193.727 38.8743Z" fill="white"/>
</g>
</g>
</svg>
